<svg id="svg" version="1.1" xmlns="http://www.w3.org/2000/svg" xmlns:xlink="http://www.w3.org/1999/xlink" width="1em"
height="1em" viewBox="0, 0, 400,400">
    <g id="svgg">
        <path id="path0" d="M310.800 114.744 L 307.800 115.800 238.200 185.359 C 199.920 223.617,168.089 255.233,167.464 255.617 C 164.997 257.133,166.067 258.097,128.526 220.568 C 109.287 201.336,93.391 185.600,93.202 185.600 C 93.013 185.600,92.530 185.189,92.129 184.687 C 90.016 182.042,81.568 182.140,78.486 184.846 C 77.763 185.481,77.025 186.000,76.846 186.000 C 74.309 186.000,72.082 197.861,74.324 199.432 C 74.806 199.769,75.200 200.347,75.200 200.715 C 75.200 201.084,91.715 217.949,111.900 238.193 C 132.085 258.437,150.555 277.043,152.944 279.539 C 155.333 282.035,157.880 284.325,158.604 284.627 C 159.328 284.930,160.205 285.462,160.553 285.810 C 162.286 287.543,169.426 287.291,171.652 285.417 C 172.317 284.858,173.022 284.400,173.219 284.400 C 173.415 284.400,175.565 282.375,177.996 279.900 C 180.427 277.425,182.548 275.268,182.708 275.107 C 183.823 273.989,192.302 265.522,192.719 265.111 C 197.984 259.922,200.000 257.827,200.000 257.544 C 200.000 257.355,200.180 257.200,200.400 257.200 C 200.620 257.200,202.240 255.760,204.000 254.000 C 205.760 252.240,207.200 250.620,207.200 250.400 C 207.200 250.180,207.352 250.000,207.538 250.000 C 208.034 250.000,217.200 240.911,217.200 240.419 C 217.200 240.189,217.355 240.000,217.544 240.000 C 217.821 240.000,220.337 237.581,225.000 232.830 C 225.220 232.606,226.930 230.893,228.800 229.023 C 230.670 227.153,232.380 225.436,232.600 225.207 C 232.820 224.979,233.945 223.914,235.100 222.842 C 236.255 221.770,237.200 220.722,237.200 220.514 C 237.200 220.306,237.630 219.905,238.156 219.624 C 238.682 219.342,239.332 218.702,239.600 218.200 C 239.868 217.699,240.503 217.099,241.009 216.869 C 241.516 216.638,242.040 216.105,242.173 215.685 C 242.306 215.265,242.846 214.725,243.373 214.485 C 243.900 214.245,244.440 213.705,244.573 213.285 C 244.706 212.865,245.246 212.325,245.773 212.085 C 246.300 211.845,246.839 211.307,246.972 210.888 C 247.105 210.470,247.640 209.899,248.163 209.620 C 248.685 209.341,249.332 208.702,249.600 208.200 C 249.868 207.699,250.503 207.099,251.009 206.869 C 251.516 206.638,252.040 206.105,252.173 205.685 C 252.306 205.265,252.846 204.725,253.373 204.485 C 253.900 204.245,254.440 203.705,254.573 203.285 C 254.706 202.865,255.246 202.325,255.773 202.085 C 256.300 201.845,256.839 201.307,256.972 200.888 C 257.105 200.470,257.640 199.899,258.163 199.620 C 258.685 199.341,259.332 198.702,259.600 198.200 C 259.868 197.699,260.503 197.099,261.009 196.869 C 261.516 196.638,262.040 196.105,262.173 195.685 C 262.306 195.265,262.846 194.725,263.373 194.485 C 263.900 194.245,264.440 193.705,264.573 193.285 C 264.706 192.865,265.246 192.325,265.773 192.085 C 266.300 191.845,266.839 191.307,266.972 190.888 C 267.105 190.470,267.640 189.899,268.163 189.620 C 268.685 189.341,269.341 188.685,269.620 188.163 C 269.899 187.640,270.470 187.105,270.888 186.972 C 271.307 186.839,271.845 186.300,272.085 185.773 C 272.325 185.246,272.865 184.706,273.285 184.573 C 273.705 184.440,274.245 183.900,274.485 183.373 C 274.725 182.846,275.265 182.306,275.685 182.173 C 276.105 182.040,276.638 181.516,276.869 181.009 C 277.099 180.503,277.699 179.868,278.200 179.600 C 278.702 179.332,279.341 178.685,279.620 178.163 C 279.899 177.640,280.470 177.105,280.888 176.972 C 281.307 176.839,281.845 176.300,282.085 175.773 C 282.325 175.246,282.865 174.706,283.285 174.573 C 283.705 174.440,284.245 173.900,284.485 173.373 C 284.725 172.846,285.265 172.306,285.685 172.173 C 286.105 172.040,286.638 171.516,286.869 171.009 C 287.099 170.503,287.699 169.868,288.200 169.600 C 288.702 169.332,289.341 168.685,289.620 168.163 C 289.899 167.640,290.470 167.105,290.888 166.972 C 291.307 166.839,291.847 166.296,292.089 165.765 C 292.330 165.234,292.671 164.800,292.845 164.800 C 293.256 164.800,297.200 160.859,297.200 160.449 C 297.200 160.276,297.630 159.905,298.156 159.624 C 298.682 159.342,299.332 158.702,299.600 158.200 C 299.868 157.699,300.518 157.092,301.044 156.853 C 301.570 156.613,302.000 156.148,302.000 155.819 C 302.000 155.490,302.505 154.959,303.122 154.640 C 303.739 154.321,304.455 153.596,304.714 153.030 C 304.972 152.463,305.461 152.000,305.800 152.000 C 306.139 152.000,306.613 151.570,306.853 151.044 C 307.092 150.518,307.699 149.868,308.200 149.600 C 308.702 149.332,309.332 148.702,309.600 148.200 C 309.868 147.699,310.518 147.092,311.044 146.853 C 311.570 146.613,312.000 146.148,312.000 145.819 C 312.000 145.490,312.501 144.961,313.114 144.644 C 313.727 144.328,314.477 143.603,314.782 143.034 C 315.086 142.465,315.579 142.000,315.876 142.000 C 316.174 142.000,316.613 141.570,316.853 141.044 C 317.092 140.518,317.699 139.868,318.200 139.600 C 318.702 139.332,319.341 138.685,319.620 138.163 C 319.899 137.640,320.470 137.105,320.887 136.972 C 321.304 136.840,321.812 136.294,322.016 135.759 C 322.219 135.223,322.839 134.613,323.393 134.403 C 323.947 134.192,324.400 133.753,324.400 133.428 C 324.400 133.102,324.845 132.179,325.389 131.378 C 329.234 125.712,325.623 117.296,318.236 114.708 C 314.497 113.398,314.627 113.398,310.800 114.744 " stroke="none" fill="#f5fbf8" fill-rule="evenodd"></path>
        <path id="path1" d="M52.800 0.600 C 52.800 1.078,52.168 1.210,49.700 1.247 C 45.409 1.313,44.228 1.612,44.076 2.673 C 43.968 3.427,43.612 3.578,41.376 3.817 C 39.756 3.991,38.800 4.275,38.800 4.585 C 38.800 5.555,37.342 6.400,35.669 6.400 C 34.081 6.400,34.000 6.458,34.000 7.600 C 34.000 8.771,33.952 8.800,32.029 8.800 C 30.033 8.800,28.800 9.488,28.800 10.602 C 28.800 10.902,28.305 11.204,27.700 11.273 C 26.836 11.373,26.573 11.636,26.473 12.500 C 26.372 13.377,26.142 13.600,25.333 13.600 C 24.713 13.600,23.789 14.131,22.950 14.970 C 22.196 15.724,21.094 16.502,20.501 16.700 C 19.856 16.915,19.331 17.444,19.196 18.015 C 19.060 18.591,18.591 19.060,18.015 19.196 C 17.444 19.331,16.915 19.856,16.700 20.501 C 16.502 21.094,15.723 22.197,14.970 22.950 C 14.131 23.789,13.600 24.713,13.600 25.333 C 13.600 26.142,13.377 26.372,12.500 26.473 C 11.636 26.573,11.373 26.836,11.273 27.700 C 11.190 28.428,10.913 28.800,10.453 28.800 C 9.271 28.800,8.800 29.677,8.800 31.880 C 8.800 33.969,8.782 34.000,7.600 34.000 C 6.401 34.000,6.400 34.003,6.400 36.373 C 6.400 38.665,6.362 38.751,5.300 38.873 C 4.280 38.991,4.175 39.177,3.855 41.425 C 3.586 43.308,3.321 43.933,2.668 44.225 C 1.556 44.720,1.288 45.862,1.240 50.300 C 1.207 53.305,1.087 54.000,0.600 54.000 C 0.068 54.000,0.000 70.467,0.000 199.800 C 0.000 329.133,0.068 345.600,0.600 345.600 C 1.086 345.600,1.200 346.241,1.200 348.967 C 1.200 352.994,1.389 353.600,2.643 353.600 C 3.487 353.600,3.600 353.782,3.600 355.144 C 3.600 358.887,4.060 360.492,5.262 360.946 C 6.284 361.332,6.400 361.561,6.400 363.208 C 6.400 365.155,6.908 366.000,8.080 366.000 C 8.615 366.000,8.800 366.311,8.800 367.210 C 8.800 368.136,9.037 368.510,9.810 368.804 C 10.871 369.207,10.899 369.258,11.453 371.784 C 11.721 373.007,12.028 373.421,12.800 373.600 C 13.508 373.764,13.836 374.141,13.924 374.889 C 14.017 375.685,14.333 376.010,15.200 376.200 C 16.073 376.392,16.382 376.713,16.476 377.527 C 16.573 378.362,16.844 378.628,17.700 378.727 C 18.621 378.833,18.800 379.044,18.800 380.027 C 18.800 381.058,18.942 381.200,19.973 381.200 C 20.956 381.200,21.167 381.379,21.273 382.300 C 21.379 383.217,21.617 383.421,22.700 383.525 C 23.829 383.634,24.000 383.799,24.000 384.775 C 24.000 385.682,24.214 385.943,25.100 386.123 C 25.732 386.250,26.370 386.740,26.600 387.273 C 26.906 387.983,27.482 388.286,29.063 388.567 C 30.890 388.892,31.153 389.064,31.353 390.067 C 31.549 391.045,31.766 391.200,32.943 391.200 C 33.968 391.200,34.358 391.398,34.515 391.995 C 34.759 392.928,36.301 393.600,38.199 393.600 C 39.131 393.600,39.615 393.816,39.769 394.301 C 40.130 395.441,41.593 396.092,44.278 396.307 C 46.090 396.453,46.800 396.669,46.800 397.075 C 46.800 398.196,49.389 398.800,54.187 398.800 C 58.021 398.800,58.800 398.901,58.800 399.400 C 58.800 399.932,74.756 400.000,200.000 400.000 C 325.244 400.000,341.200 399.932,341.200 399.400 C 341.200 398.905,341.935 398.800,345.413 398.800 C 349.801 398.800,352.190 398.211,352.648 397.018 C 352.804 396.612,353.402 396.400,354.393 396.400 C 357.357 396.400,358.422 395.988,358.671 394.746 C 358.892 393.641,358.984 393.600,361.250 393.600 C 362.952 393.600,363.600 393.452,363.600 393.062 C 363.600 392.095,365.026 391.200,366.566 391.200 C 367.869 391.200,368.130 391.040,368.522 390.000 C 368.874 389.068,369.221 388.800,370.074 388.800 C 370.792 388.800,371.648 388.326,372.539 387.434 C 373.291 386.683,374.332 386.008,374.853 385.934 C 375.547 385.836,375.834 385.506,375.927 384.700 C 376.033 383.776,376.243 383.600,377.237 383.600 C 378.227 383.600,378.459 383.407,378.656 382.422 C 378.836 381.522,379.140 381.216,379.946 381.122 C 380.748 381.029,381.029 380.748,381.122 379.946 C 381.216 379.140,381.522 378.836,382.422 378.656 C 383.407 378.459,383.600 378.227,383.600 377.237 C 383.600 376.247,383.778 376.032,384.686 375.927 C 385.537 375.827,385.826 375.533,386.022 374.564 C 386.160 373.885,386.841 372.785,387.536 372.121 C 388.274 371.416,388.800 370.510,388.800 369.944 C 388.800 369.235,389.122 368.854,390.000 368.522 C 391.136 368.094,391.200 367.950,391.200 365.835 C 391.200 363.618,391.210 363.600,392.400 363.600 C 393.597 363.600,393.600 363.594,393.600 361.250 C 393.600 358.983,393.640 358.892,394.748 358.670 C 396.030 358.414,396.386 357.600,396.395 354.900 C 396.399 353.633,396.558 353.200,397.020 353.200 C 398.139 353.200,398.800 350.681,398.800 346.413 C 398.800 343.113,398.907 342.400,399.400 342.400 C 399.932 342.400,400.000 326.244,400.000 199.400 C 400.000 72.556,399.932 56.400,399.400 56.400 C 398.907 56.400,398.800 55.692,398.800 52.426 C 398.800 47.909,398.402 46.400,397.210 46.400 C 396.506 46.400,396.394 46.126,396.353 44.300 C 396.278 40.967,395.914 39.865,394.697 39.282 C 393.729 38.818,393.600 38.533,393.600 36.858 C 393.600 34.849,393.101 34.000,391.920 34.000 C 391.390 34.000,391.200 33.690,391.200 32.822 C 391.200 31.932,390.932 31.515,390.105 31.119 C 389.503 30.830,388.975 30.325,388.932 29.997 C 388.507 26.760,388.357 26.400,387.432 26.400 C 386.726 26.400,386.444 26.122,386.271 25.254 C 386.096 24.380,385.759 24.052,384.849 23.870 C 383.913 23.683,383.629 23.391,383.528 22.516 C 383.427 21.635,383.168 21.373,382.300 21.273 C 381.379 21.167,381.200 20.956,381.200 19.973 C 381.200 18.942,381.058 18.800,380.027 18.800 C 379.044 18.800,378.833 18.621,378.727 17.700 C 378.629 16.849,378.361 16.572,377.546 16.478 C 376.748 16.385,376.435 16.077,376.263 15.213 C 376.089 14.345,375.743 14.007,374.817 13.804 C 373.889 13.600,373.600 13.317,373.600 12.611 C 373.600 11.675,372.931 11.200,371.614 11.200 C 371.218 11.200,370.800 10.842,370.685 10.405 C 370.451 9.508,368.913 8.800,367.201 8.800 C 366.246 8.800,366.032 8.615,365.927 7.700 C 365.807 6.660,365.675 6.593,363.525 6.481 C 361.385 6.369,361.242 6.297,361.125 5.281 C 361.009 4.281,360.814 4.174,358.510 3.846 C 356.641 3.580,355.961 3.308,355.787 2.758 C 355.465 1.745,353.215 1.205,349.300 1.202 C 346.634 1.200,346.000 1.085,346.000 0.600 C 346.000 0.068,329.444 0.000,199.400 0.000 C 69.356 0.000,52.800 0.068,52.800 0.600 M320.500 112.480 C 321.105 112.709,321.600 113.052,321.600 113.240 C 321.600 113.429,322.293 113.937,323.139 114.369 C 323.985 114.801,324.953 115.569,325.290 116.077 C 325.627 116.585,326.357 117.485,326.911 118.078 C 327.654 118.871,328.043 119.925,328.386 122.078 C 328.642 123.685,328.918 125.209,329.000 125.464 C 329.444 126.859,327.957 132.504,326.721 134.116 C 326.011 135.042,292.147 169.122,251.469 209.850 C 210.791 250.577,177.395 284.060,177.255 284.255 C 176.409 285.437,172.675 288.040,171.543 288.237 C 170.804 288.365,169.521 288.725,168.692 289.035 C 166.756 289.760,164.380 289.755,162.714 289.022 C 161.991 288.704,160.734 288.338,159.920 288.208 C 159.013 288.063,158.008 287.513,157.322 286.786 C 156.706 286.134,155.981 285.600,155.711 285.600 C 155.440 285.600,154.928 285.157,154.573 284.616 C 154.219 284.074,153.583 283.521,153.160 283.387 C 152.737 283.253,152.119 282.616,151.785 281.972 C 151.452 281.327,150.929 280.800,150.623 280.800 C 150.317 280.800,149.833 280.271,149.547 279.625 C 149.261 278.978,148.616 278.262,148.113 278.033 C 147.611 277.804,147.200 277.443,147.200 277.231 C 147.200 277.018,130.775 260.387,110.700 240.272 C 68.573 198.062,72.128 201.805,71.807 199.323 C 71.671 198.265,71.388 197.087,71.180 196.705 C 70.694 195.818,70.693 193.900,71.176 192.719 C 71.383 192.213,71.664 190.940,71.802 189.889 C 71.966 188.633,72.420 187.567,73.126 186.777 C 75.792 183.792,77.752 182.049,78.711 181.808 C 79.283 181.664,80.212 181.225,80.776 180.831 C 82.795 179.419,88.441 179.433,89.965 180.854 C 90.406 181.264,91.002 181.600,91.290 181.600 C 92.812 181.600,97.239 185.808,129.509 217.932 C 148.809 237.144,164.909 253.144,165.287 253.488 C 165.917 254.061,166.071 254.008,167.147 252.856 C 167.793 252.165,168.507 251.600,168.734 251.600 C 168.960 251.600,169.264 251.229,169.408 250.776 C 169.552 250.322,170.100 249.755,170.627 249.515 C 171.154 249.275,171.691 248.744,171.821 248.335 C 171.950 247.926,172.561 247.330,173.178 247.012 C 173.794 246.693,174.398 246.051,174.519 245.586 C 174.641 245.121,175.121 244.641,175.586 244.519 C 176.051 244.398,176.693 243.794,177.012 243.178 C 177.330 242.561,177.944 241.945,178.375 241.808 C 178.806 241.671,179.274 241.197,179.414 240.755 C 179.555 240.313,180.100 239.755,180.627 239.515 C 181.154 239.275,181.691 238.744,181.821 238.335 C 181.950 237.926,182.561 237.330,183.178 237.012 C 183.794 236.693,184.398 236.051,184.519 235.586 C 184.641 235.121,185.121 234.641,185.586 234.519 C 186.051 234.398,186.693 233.794,187.012 233.178 C 187.330 232.561,187.944 231.945,188.375 231.808 C 188.806 231.671,189.274 231.197,189.414 230.755 C 189.555 230.313,190.100 229.755,190.627 229.515 C 191.154 229.275,191.691 228.744,191.821 228.335 C 191.950 227.926,192.561 227.330,193.178 227.012 C 193.794 226.693,194.398 226.051,194.519 225.586 C 194.641 225.121,195.121 224.641,195.586 224.519 C 196.051 224.398,196.693 223.794,197.012 223.178 C 197.330 222.561,197.944 221.945,198.375 221.808 C 198.806 221.671,199.274 221.197,199.414 220.755 C 199.555 220.313,200.100 219.755,200.627 219.515 C 201.154 219.275,201.691 218.744,201.821 218.335 C 201.950 217.926,202.561 217.330,203.178 217.012 C 203.794 216.693,204.398 216.051,204.519 215.586 C 204.641 215.121,205.121 214.641,205.586 214.519 C 206.051 214.398,206.693 213.794,207.012 213.178 C 207.330 212.561,207.944 211.945,208.375 211.808 C 208.806 211.671,209.274 211.197,209.414 210.755 C 209.555 210.313,210.100 209.755,210.627 209.515 C 211.154 209.275,211.691 208.744,211.821 208.335 C 211.950 207.926,212.561 207.330,213.178 207.012 C 213.794 206.693,214.398 206.051,214.519 205.586 C 214.641 205.121,215.121 204.641,215.586 204.519 C 216.051 204.398,216.693 203.794,217.012 203.178 C 217.330 202.561,217.926 201.950,218.335 201.821 C 218.744 201.691,219.275 201.154,219.515 200.627 C 219.755 200.100,220.313 199.555,220.755 199.414 C 221.197 199.274,221.671 198.806,221.808 198.375 C 221.945 197.944,222.561 197.330,223.178 197.012 C 223.794 196.693,224.398 196.051,224.519 195.586 C 224.641 195.121,225.121 194.641,225.586 194.519 C 226.051 194.398,226.693 193.794,227.012 193.178 C 227.330 192.561,227.944 191.945,228.375 191.808 C 228.806 191.671,229.274 191.197,229.414 190.755 C 229.555 190.313,230.100 189.755,230.627 189.515 C 231.154 189.275,231.691 188.744,231.821 188.335 C 231.950 187.926,232.561 187.330,233.178 187.012 C 233.794 186.693,234.398 186.051,234.519 185.586 C 234.641 185.121,235.121 184.641,235.586 184.519 C 236.051 184.398,236.693 183.794,237.012 183.178 C 237.330 182.561,237.944 181.945,238.375 181.808 C 238.806 181.671,239.274 181.197,239.414 180.755 C 239.555 180.313,240.100 179.755,240.627 179.515 C 241.154 179.275,241.691 178.744,241.821 178.335 C 241.950 177.926,242.561 177.330,243.178 177.012 C 243.794 176.693,244.398 176.051,244.519 175.586 C 244.641 175.121,245.121 174.641,245.586 174.519 C 246.051 174.398,246.693 173.794,247.012 173.178 C 247.330 172.561,247.944 171.945,248.375 171.808 C 248.806 171.671,249.274 171.197,249.414 170.755 C 249.555 170.313,250.100 169.755,250.627 169.515 C 251.154 169.275,251.691 168.744,251.821 168.335 C 251.950 167.926,252.561 167.330,253.178 167.012 C 253.794 166.693,254.398 166.051,254.519 165.586 C 254.641 165.121,255.121 164.641,255.586 164.519 C 256.051 164.398,256.693 163.794,257.012 163.178 C 257.330 162.561,257.944 161.945,258.375 161.808 C 258.806 161.671,259.274 161.197,259.414 160.755 C 259.555 160.313,260.100 159.755,260.627 159.515 C 261.154 159.275,261.691 158.744,261.821 158.335 C 261.950 157.926,262.561 157.330,263.178 157.012 C 263.794 156.693,264.398 156.051,264.519 155.586 C 264.641 155.121,265.121 154.641,265.586 154.519 C 266.051 154.398,266.693 153.794,267.012 153.178 C 267.330 152.561,267.944 151.945,268.375 151.808 C 268.806 151.671,269.274 151.197,269.414 150.755 C 269.555 150.313,270.100 149.755,270.627 149.515 C 271.154 149.275,271.691 148.744,271.821 148.335 C 271.950 147.926,272.561 147.330,273.178 147.012 C 273.794 146.693,274.398 146.051,274.519 145.586 C 274.641 145.121,275.121 144.641,275.586 144.519 C 276.051 144.398,276.693 143.794,277.012 143.178 C 277.330 142.561,277.944 141.945,278.375 141.808 C 278.806 141.671,279.274 141.197,279.414 140.755 C 279.555 140.313,280.100 139.755,280.627 139.515 C 281.154 139.275,281.691 138.744,281.821 138.335 C 281.950 137.926,282.561 137.330,283.178 137.012 C 283.794 136.693,284.398 136.051,284.519 135.586 C 284.641 135.121,285.121 134.641,285.586 134.519 C 286.051 134.398,286.693 133.794,287.012 133.178 C 287.330 132.561,287.944 131.945,288.375 131.808 C 288.806 131.671,289.274 131.197,289.414 130.755 C 289.555 130.313,290.100 129.755,290.627 129.515 C 291.154 129.275,291.691 128.744,291.821 128.335 C 291.950 127.926,292.561 127.330,293.178 127.012 C 293.794 126.693,294.398 126.051,294.519 125.586 C 294.641 125.121,295.121 124.641,295.586 124.519 C 296.051 124.398,296.693 123.794,297.012 123.178 C 297.330 122.561,297.926 121.950,298.335 121.821 C 298.744 121.691,299.275 121.154,299.515 120.627 C 299.755 120.100,300.313 119.555,300.755 119.414 C 301.197 119.274,301.671 118.806,301.808 118.375 C 301.945 117.944,302.571 117.325,303.200 117.000 C 303.829 116.675,304.455 116.056,304.592 115.625 C 304.729 115.194,305.237 114.721,305.720 114.576 C 306.204 114.430,307.105 113.837,307.723 113.258 C 309.388 111.699,317.189 111.224,320.500 112.480 " stroke="none" fill="#04d46c" fill-rule="evenodd"></path>
        <path id="path2" d="M311.000 113.309 C 310.340 113.582,309.026 114.217,308.080 114.721 C 306.950 115.323,282.546 139.440,236.941 185.025 C 198.760 223.189,167.191 254.591,166.787 254.807 C 165.312 255.596,163.491 253.895,129.913 220.369 C 87.759 178.280,91.816 181.776,85.200 181.832 C 80.071 181.876,77.565 183.221,74.089 187.800 C 71.761 190.866,71.773 197.934,74.112 201.290 C 74.886 202.401,91.876 219.710,111.868 239.755 C 131.859 259.800,149.931 278.000,152.028 280.200 C 160.040 288.607,166.775 290.378,173.200 285.766 C 175.154 284.363,324.712 134.883,325.332 133.712 C 325.539 133.321,326.024 132.640,326.408 132.200 C 329.424 128.748,327.297 118.724,322.907 115.702 C 319.159 113.123,313.973 112.080,311.000 113.309 M318.236 114.708 C 325.623 117.296,329.234 125.712,325.389 131.378 C 324.845 132.179,324.400 133.102,324.400 133.428 C 324.400 133.753,323.947 134.192,323.393 134.403 C 322.839 134.613,322.219 135.223,322.016 135.759 C 321.812 136.294,321.304 136.840,320.887 136.972 C 320.470 137.105,319.899 137.640,319.620 138.163 C 319.341 138.685,318.702 139.332,318.200 139.600 C 317.699 139.868,317.092 140.518,316.853 141.044 C 316.613 141.570,316.174 142.000,315.876 142.000 C 315.579 142.000,315.086 142.465,314.782 143.034 C 314.477 143.603,313.727 144.328,313.114 144.644 C 312.501 144.961,312.000 145.490,312.000 145.819 C 312.000 146.148,311.570 146.613,311.044 146.853 C 310.518 147.092,309.868 147.699,309.600 148.200 C 309.332 148.702,308.702 149.332,308.200 149.600 C 307.699 149.868,307.092 150.518,306.853 151.044 C 306.613 151.570,306.139 152.000,305.800 152.000 C 305.461 152.000,304.972 152.463,304.714 153.030 C 304.455 153.596,303.739 154.321,303.122 154.640 C 302.505 154.959,302.000 155.490,302.000 155.819 C 302.000 156.148,301.570 156.613,301.044 156.853 C 300.518 157.092,299.868 157.699,299.600 158.200 C 299.332 158.702,298.682 159.342,298.156 159.624 C 297.630 159.905,297.200 160.276,297.200 160.449 C 297.200 160.859,293.256 164.800,292.845 164.800 C 292.671 164.800,292.330 165.234,292.089 165.765 C 291.847 166.296,291.307 166.839,290.888 166.972 C 290.470 167.105,289.899 167.640,289.620 168.163 C 289.341 168.685,288.702 169.332,288.200 169.600 C 287.699 169.868,287.099 170.503,286.869 171.009 C 286.638 171.516,286.105 172.040,285.685 172.173 C 285.265 172.306,284.725 172.846,284.485 173.373 C 284.245 173.900,283.705 174.440,283.285 174.573 C 282.865 174.706,282.325 175.246,282.085 175.773 C 281.845 176.300,281.307 176.839,280.888 176.972 C 280.470 177.105,279.899 177.640,279.620 178.163 C 279.341 178.685,278.702 179.332,278.200 179.600 C 277.699 179.868,277.099 180.503,276.869 181.009 C 276.638 181.516,276.105 182.040,275.685 182.173 C 275.265 182.306,274.725 182.846,274.485 183.373 C 274.245 183.900,273.705 184.440,273.285 184.573 C 272.865 184.706,272.325 185.246,272.085 185.773 C 271.845 186.300,271.307 186.839,270.888 186.972 C 270.470 187.105,269.899 187.640,269.620 188.163 C 269.341 188.685,268.685 189.341,268.163 189.620 C 267.640 189.899,267.105 190.470,266.972 190.888 C 266.839 191.307,266.300 191.845,265.773 192.085 C 265.246 192.325,264.706 192.865,264.573 193.285 C 264.440 193.705,263.900 194.245,263.373 194.485 C 262.846 194.725,262.306 195.265,262.173 195.685 C 262.040 196.105,261.516 196.638,261.009 196.869 C 260.503 197.099,259.868 197.699,259.600 198.200 C 259.332 198.702,258.685 199.341,258.163 199.620 C 257.640 199.899,257.105 200.470,256.972 200.888 C 256.839 201.307,256.300 201.845,255.773 202.085 C 255.246 202.325,254.706 202.865,254.573 203.285 C 254.440 203.705,253.900 204.245,253.373 204.485 C 252.846 204.725,252.306 205.265,252.173 205.685 C 252.040 206.105,251.516 206.638,251.009 206.869 C 250.503 207.099,249.868 207.699,249.600 208.200 C 249.332 208.702,248.685 209.341,248.163 209.620 C 247.640 209.899,247.105 210.470,246.972 210.888 C 246.839 211.307,246.300 211.845,245.773 212.085 C 245.246 212.325,244.706 212.865,244.573 213.285 C 244.440 213.705,243.900 214.245,243.373 214.485 C 242.846 214.725,242.306 215.265,242.173 215.685 C 242.040 216.105,241.516 216.638,241.009 216.869 C 240.503 217.099,239.868 217.699,239.600 218.200 C 239.332 218.702,238.682 219.342,238.156 219.624 C 237.630 219.905,237.200 220.306,237.200 220.514 C 237.200 220.722,236.255 221.770,235.100 222.842 C 233.945 223.914,232.820 224.979,232.600 225.207 C 232.380 225.436,230.670 227.153,228.800 229.023 C 226.930 230.893,225.220 232.606,225.000 232.830 C 220.337 237.581,217.821 240.000,217.544 240.000 C 217.355 240.000,217.200 240.189,217.200 240.419 C 217.200 240.911,208.034 250.000,207.538 250.000 C 207.352 250.000,207.200 250.180,207.200 250.400 C 207.200 250.620,205.760 252.240,204.000 254.000 C 202.240 255.760,200.620 257.200,200.400 257.200 C 200.180 257.200,200.000 257.355,200.000 257.544 C 200.000 257.827,197.984 259.922,192.719 265.111 C 192.302 265.522,183.823 273.989,182.708 275.107 C 182.548 275.268,180.427 277.425,177.996 279.900 C 175.565 282.375,173.415 284.400,173.219 284.400 C 173.022 284.400,172.317 284.858,171.652 285.417 C 169.426 287.291,162.286 287.543,160.553 285.810 C 160.205 285.462,159.328 284.930,158.604 284.627 C 157.880 284.325,155.333 282.035,152.944 279.539 C 150.555 277.043,132.085 258.437,111.900 238.193 C 91.715 217.949,75.200 201.084,75.200 200.715 C 75.200 200.347,74.806 199.769,74.324 199.432 C 72.082 197.861,74.309 186.000,76.846 186.000 C 77.025 186.000,77.763 185.481,78.486 184.846 C 81.568 182.140,90.016 182.042,92.129 184.687 C 92.530 185.189,93.013 185.600,93.202 185.600 C 93.391 185.600,109.287 201.336,128.526 220.568 C 166.067 258.097,164.997 257.133,167.464 255.617 C 168.089 255.233,199.920 223.617,238.200 185.359 L 307.800 115.800 310.800 114.744 C 314.627 113.398,314.497 113.398,318.236 114.708 " stroke="none" fill="#9cecc4" fill-rule="evenodd"></path>
        <path id="path3" d="M310.400 112.916 C 309.630 113.209,308.251 113.925,307.336 114.507 C 306.420 115.089,274.341 146.891,236.048 185.177 C 169.057 252.157,166.385 254.775,165.379 254.392 C 164.803 254.173,148.823 238.494,129.866 219.548 C 90.182 179.888,91.224 180.795,85.365 180.802 C 82.220 180.805,74.800 184.446,74.800 185.986 C 74.800 186.145,74.348 186.799,73.795 187.438 C 71.430 190.173,71.272 199.272,73.550 201.550 C 73.934 201.934,74.551 202.680,74.921 203.208 C 75.291 203.736,92.380 221.007,112.897 241.588 C 133.413 262.169,151.100 279.997,152.200 281.206 C 156.923 286.399,160.766 288.400,166.015 288.400 C 168.610 288.400,172.800 287.456,172.800 286.871 C 172.800 286.707,173.295 286.279,173.900 285.921 C 174.812 285.381,214.556 245.727,311.508 148.624 C 328.588 131.517,328.108 132.171,328.111 126.000 C 328.112 122.030,327.937 121.452,325.634 117.830 C 323.012 113.706,315.062 111.142,310.400 112.916 M320.000 114.010 C 324.412 116.291,326.790 119.314,327.539 123.590 C 328.076 126.659,327.514 130.934,326.408 132.200 C 326.024 132.640,325.539 133.321,325.332 133.712 C 324.712 134.883,175.154 284.363,173.200 285.766 C 166.775 290.378,160.040 288.607,152.028 280.200 C 149.931 278.000,131.859 259.800,111.868 239.755 C 91.876 219.710,74.886 202.401,74.112 201.290 C 71.773 197.934,71.761 190.866,74.089 187.800 C 77.565 183.221,80.071 181.876,85.200 181.832 C 91.816 181.776,87.759 178.280,129.913 220.369 C 163.491 253.895,165.312 255.596,166.787 254.807 C 167.191 254.591,198.760 223.189,236.941 185.025 C 282.546 139.440,306.950 115.323,308.080 114.721 C 311.262 113.026,312.130 112.810,315.200 112.946 C 317.362 113.042,318.703 113.339,320.000 114.010 " stroke="none" fill="#64e4a4" fill-rule="evenodd"></path>
        <path id="path4" d="M311.123 111.958 C 309.435 112.142,308.556 112.478,307.723 113.258 C 307.105 113.837,306.204 114.430,305.720 114.576 C 305.237 114.721,304.729 115.194,304.592 115.625 C 304.455 116.056,303.829 116.675,303.200 117.000 C 302.571 117.325,301.945 117.944,301.808 118.375 C 301.671 118.806,301.197 119.274,300.755 119.414 C 300.313 119.555,299.755 120.100,299.515 120.627 C 299.275 121.154,298.744 121.691,298.335 121.821 C 297.926 121.950,297.330 122.561,297.012 123.178 C 296.693 123.794,296.051 124.398,295.586 124.519 C 295.121 124.641,294.641 125.121,294.519 125.586 C 294.398 126.051,293.794 126.693,293.178 127.012 C 292.561 127.330,291.950 127.926,291.821 128.335 C 291.691 128.744,291.154 129.275,290.627 129.515 C 290.100 129.755,289.555 130.313,289.414 130.755 C 289.274 131.197,288.806 131.671,288.375 131.808 C 287.944 131.945,287.330 132.561,287.012 133.178 C 286.693 133.794,286.051 134.398,285.586 134.519 C 285.121 134.641,284.641 135.121,284.519 135.586 C 284.398 136.051,283.794 136.693,283.178 137.012 C 282.561 137.330,281.950 137.926,281.821 138.335 C 281.691 138.744,281.154 139.275,280.627 139.515 C 280.100 139.755,279.555 140.313,279.414 140.755 C 279.274 141.197,278.806 141.671,278.375 141.808 C 277.944 141.945,277.330 142.561,277.012 143.178 C 276.693 143.794,276.051 144.398,275.586 144.519 C 275.121 144.641,274.641 145.121,274.519 145.586 C 274.398 146.051,273.794 146.693,273.178 147.012 C 272.561 147.330,271.950 147.926,271.821 148.335 C 271.691 148.744,271.154 149.275,270.627 149.515 C 270.100 149.755,269.555 150.313,269.414 150.755 C 269.274 151.197,268.806 151.671,268.375 151.808 C 267.944 151.945,267.330 152.561,267.012 153.178 C 266.693 153.794,266.051 154.398,265.586 154.519 C 265.121 154.641,264.641 155.121,264.519 155.586 C 264.398 156.051,263.794 156.693,263.178 157.012 C 262.561 157.330,261.950 157.926,261.821 158.335 C 261.691 158.744,261.154 159.275,260.627 159.515 C 260.100 159.755,259.555 160.313,259.414 160.755 C 259.274 161.197,258.806 161.671,258.375 161.808 C 257.944 161.945,257.330 162.561,257.012 163.178 C 256.693 163.794,256.051 164.398,255.586 164.519 C 255.121 164.641,254.641 165.121,254.519 165.586 C 254.398 166.051,253.794 166.693,253.178 167.012 C 252.561 167.330,251.950 167.926,251.821 168.335 C 251.691 168.744,251.154 169.275,250.627 169.515 C 250.100 169.755,249.555 170.313,249.414 170.755 C 249.274 171.197,248.806 171.671,248.375 171.808 C 247.944 171.945,247.330 172.561,247.012 173.178 C 246.693 173.794,246.051 174.398,245.586 174.519 C 245.121 174.641,244.641 175.121,244.519 175.586 C 244.398 176.051,243.794 176.693,243.178 177.012 C 242.561 177.330,241.950 177.926,241.821 178.335 C 241.691 178.744,241.154 179.275,240.627 179.515 C 240.100 179.755,239.555 180.313,239.414 180.755 C 239.274 181.197,238.806 181.671,238.375 181.808 C 237.944 181.945,237.330 182.561,237.012 183.178 C 236.693 183.794,236.051 184.398,235.586 184.519 C 235.121 184.641,234.641 185.121,234.519 185.586 C 234.398 186.051,233.794 186.693,233.178 187.012 C 232.561 187.330,231.950 187.926,231.821 188.335 C 231.691 188.744,231.154 189.275,230.627 189.515 C 230.100 189.755,229.555 190.313,229.414 190.755 C 229.274 191.197,228.806 191.671,228.375 191.808 C 227.944 191.945,227.330 192.561,227.012 193.178 C 226.693 193.794,226.051 194.398,225.586 194.519 C 225.121 194.641,224.641 195.121,224.519 195.586 C 224.398 196.051,223.794 196.693,223.178 197.012 C 222.561 197.330,221.945 197.944,221.808 198.375 C 221.671 198.806,221.197 199.274,220.755 199.414 C 220.313 199.555,219.755 200.100,219.515 200.627 C 219.275 201.154,218.744 201.691,218.335 201.821 C 217.926 201.950,217.330 202.561,217.012 203.178 C 216.693 203.794,216.051 204.398,215.586 204.519 C 215.121 204.641,214.641 205.121,214.519 205.586 C 214.398 206.051,213.794 206.693,213.178 207.012 C 212.561 207.330,211.950 207.926,211.821 208.335 C 211.691 208.744,211.154 209.275,210.627 209.515 C 210.100 209.755,209.555 210.313,209.414 210.755 C 209.274 211.197,208.806 211.671,208.375 211.808 C 207.944 211.945,207.330 212.561,207.012 213.178 C 206.693 213.794,206.051 214.398,205.586 214.519 C 205.121 214.641,204.641 215.121,204.519 215.586 C 204.398 216.051,203.794 216.693,203.178 217.012 C 202.561 217.330,201.950 217.926,201.821 218.335 C 201.691 218.744,201.154 219.275,200.627 219.515 C 200.100 219.755,199.555 220.313,199.414 220.755 C 199.274 221.197,198.806 221.671,198.375 221.808 C 197.944 221.945,197.330 222.561,197.012 223.178 C 196.693 223.794,196.051 224.398,195.586 224.519 C 195.121 224.641,194.641 225.121,194.519 225.586 C 194.398 226.051,193.794 226.693,193.178 227.012 C 192.561 227.330,191.950 227.926,191.821 228.335 C 191.691 228.744,191.154 229.275,190.627 229.515 C 190.100 229.755,189.555 230.313,189.414 230.755 C 189.274 231.197,188.806 231.671,188.375 231.808 C 187.944 231.945,187.330 232.561,187.012 233.178 C 186.693 233.794,186.051 234.398,185.586 234.519 C 185.121 234.641,184.641 235.121,184.519 235.586 C 184.398 236.051,183.794 236.693,183.178 237.012 C 182.561 237.330,181.950 237.926,181.821 238.335 C 181.691 238.744,181.154 239.275,180.627 239.515 C 180.100 239.755,179.555 240.313,179.414 240.755 C 179.274 241.197,178.806 241.671,178.375 241.808 C 177.944 241.945,177.330 242.561,177.012 243.178 C 176.693 243.794,176.051 244.398,175.586 244.519 C 175.121 244.641,174.641 245.121,174.519 245.586 C 174.398 246.051,173.794 246.693,173.178 247.012 C 172.561 247.330,171.950 247.926,171.821 248.335 C 171.691 248.744,171.154 249.275,170.627 249.515 C 170.100 249.755,169.552 250.322,169.408 250.776 C 169.264 251.229,168.960 251.600,168.734 251.600 C 168.507 251.600,167.793 252.165,167.147 252.856 C 166.071 254.008,165.917 254.061,165.287 253.488 C 164.909 253.144,148.809 237.144,129.509 217.932 C 97.239 185.808,92.812 181.600,91.290 181.600 C 91.002 181.600,90.406 181.264,89.965 180.854 C 88.441 179.433,82.795 179.419,80.776 180.831 C 80.212 181.225,79.283 181.664,78.711 181.808 C 77.752 182.049,75.792 183.792,73.126 186.777 C 72.420 187.567,71.966 188.633,71.802 189.889 C 71.664 190.940,71.383 192.213,71.176 192.719 C 70.693 193.900,70.694 195.818,71.180 196.705 C 71.388 197.087,71.671 198.265,71.807 199.323 C 72.128 201.805,68.573 198.062,110.700 240.272 C 130.775 260.387,147.200 277.018,147.200 277.231 C 147.200 277.443,147.611 277.804,148.113 278.033 C 148.616 278.262,149.261 278.978,149.547 279.625 C 149.833 280.271,150.317 280.800,150.623 280.800 C 150.929 280.800,151.452 281.327,151.785 281.972 C 152.119 282.616,152.737 283.253,153.160 283.387 C 153.583 283.521,154.219 284.074,154.573 284.616 C 154.928 285.157,155.440 285.600,155.711 285.600 C 155.981 285.600,156.706 286.134,157.322 286.786 C 158.008 287.513,159.013 288.063,159.920 288.208 C 160.734 288.338,161.991 288.704,162.714 289.022 C 164.380 289.755,166.756 289.760,168.692 289.035 C 169.521 288.725,170.804 288.365,171.543 288.237 C 172.675 288.040,176.409 285.437,177.255 284.255 C 177.395 284.060,210.791 250.577,251.469 209.850 C 292.147 169.122,326.011 135.042,326.721 134.116 C 327.957 132.504,329.444 126.859,329.000 125.464 C 328.918 125.209,328.642 123.685,328.386 122.078 C 328.043 119.925,327.654 118.871,326.911 118.078 C 326.357 117.485,325.627 116.585,325.290 116.077 C 324.953 115.569,323.985 114.801,323.139 114.369 C 322.293 113.937,321.600 113.429,321.600 113.240 C 321.600 112.223,315.526 111.479,311.123 111.958 M321.835 114.494 C 326.372 117.403,328.113 120.594,328.111 126.000 C 328.108 132.171,328.588 131.517,311.508 148.624 C 214.556 245.727,174.812 285.381,173.900 285.921 C 173.295 286.279,172.800 286.707,172.800 286.871 C 172.800 287.456,168.610 288.400,166.015 288.400 C 160.766 288.400,156.923 286.399,152.200 281.206 C 151.100 279.997,133.413 262.169,112.897 241.588 C 92.380 221.007,75.291 203.736,74.921 203.208 C 74.551 202.680,73.934 201.934,73.550 201.550 C 71.272 199.272,71.430 190.173,73.795 187.438 C 74.348 186.799,74.800 186.145,74.800 185.986 C 74.800 184.446,82.220 180.805,85.365 180.802 C 91.224 180.795,90.182 179.888,129.866 219.548 C 148.823 238.494,164.803 254.173,165.379 254.392 C 166.385 254.775,169.057 252.157,236.048 185.177 C 274.341 146.891,306.420 115.089,307.336 114.507 C 311.891 111.611,317.330 111.606,321.835 114.494 " stroke="none" fill="#52e49a" fill-rule="evenodd"></path>
    </g>
</svg>
