<svg id="svg" version="1.1" xmlns="http://www.w3.org/2000/svg" xmlns:xlink="http://www.w3.org/1999/xlink" width="1em"
    height="1em" viewBox="0, 0, 400,400">
    <g id="svgg">
        <path id="path0"
            d="M68.506 240.327 C 65.597 241.112,64.400 242.003,64.400 243.381 C 64.400 244.217,63.935 244.593,61.400 245.813 L 58.400 247.256 58.400 303.652 C 58.400 340.572,58.536 359.963,58.794 359.804 C 59.038 359.653,59.095 360.023,58.944 360.779 C 58.642 362.291,59.417 363.450,60.262 362.748 C 60.713 362.374,60.765 362.430,60.534 363.043 C 60.274 363.736,60.314 363.749,61.002 363.200 C 61.439 362.851,61.628 362.809,61.453 363.100 C 61.244 363.448,61.464 363.600,62.176 363.600 C 62.739 363.600,63.200 363.420,63.200 363.200 C 63.200 362.980,63.380 362.800,63.600 362.800 C 63.820 362.800,64.000 363.070,64.000 363.400 C 64.000 363.730,64.327 364.000,64.726 364.000 C 65.164 364.000,65.721 364.564,66.130 365.422 C 67.303 367.882,68.369 368.088,78.963 367.897 C 89.168 367.713,90.445 367.480,92.764 365.385 C 93.696 364.543,94.755 363.986,95.536 363.926 C 96.231 363.873,96.800 363.724,96.800 363.595 C 96.800 363.466,97.205 363.337,97.700 363.308 C 100.679 363.137,102.311 362.188,101.821 360.911 C 101.713 360.630,101.797 360.400,102.007 360.400 C 102.248 360.400,102.392 339.509,102.397 303.845 L 102.405 247.290 100.903 247.029 C 97.747 246.480,96.000 244.735,96.000 242.130 C 96.000 239.907,75.133 238.538,68.506 240.327 M308.800 239.865 C 308.470 240.000,307.255 240.458,306.100 240.884 C 304.627 241.426,304.000 241.873,304.000 242.380 C 304.000 243.868,302.811 246.000,301.982 246.000 C 301.538 246.000,300.551 246.260,299.790 246.578 L 298.406 247.157 298.213 300.478 C 298.107 329.805,297.971 355.550,297.910 357.690 C 297.784 362.142,298.662 363.978,300.399 362.893 C 300.834 362.622,301.327 362.403,301.495 362.406 C 301.663 362.409,301.535 362.580,301.212 362.784 C 300.301 363.360,301.019 363.725,302.014 363.193 C 302.575 362.892,302.800 362.876,302.632 363.148 C 302.481 363.393,302.797 363.684,303.369 363.828 C 303.920 363.966,304.470 364.390,304.590 364.769 C 304.711 365.149,305.359 365.986,306.030 366.630 L 307.251 367.800 318.797 367.917 C 331.892 368.050,332.679 367.920,333.870 365.422 C 334.279 364.564,334.836 364.000,335.274 364.000 C 335.673 364.000,336.000 363.865,336.000 363.700 C 336.000 363.535,336.585 363.378,337.300 363.352 C 339.586 363.266,340.299 363.053,340.758 362.318 C 341.272 361.495,340.816 361.357,340.033 362.100 C 339.619 362.493,339.622 362.407,340.049 361.700 C 340.348 361.205,340.749 360.800,340.940 360.800 C 341.131 360.800,341.170 360.335,341.027 359.766 C 340.865 359.120,340.918 358.826,341.168 358.980 C 341.433 359.144,341.576 340.442,341.592 303.252 L 341.616 247.276 338.851 246.219 C 336.194 245.204,336.069 245.096,335.656 243.456 C 335.215 241.705,334.811 241.364,332.000 240.372 C 330.518 239.849,309.940 239.399,308.800 239.865 M341.100 328.069 C 341.042 342.001,340.994 330.720,340.994 303.000 C 340.994 275.280,341.042 263.881,341.100 277.669 C 341.158 291.457,341.158 314.137,341.100 328.069 "
            stroke="none" fill="#dcdcdc" fill-rule="evenodd"></path>
        <path id="path1"
            d="M33.104 58.686 C 31.638 58.908,30.800 60.213,30.800 62.271 L 30.800 63.963 28.100 64.082 L 25.400 64.200 25.282 66.900 L 25.163 69.600 23.182 69.600 C 19.296 69.600,19.593 67.106,19.647 99.300 C 19.673 114.755,19.808 126.950,19.947 126.400 C 20.183 125.466,20.364 125.401,22.702 125.408 C 24.735 125.414,25.246 125.284,25.426 124.718 C 25.785 123.588,27.805 122.400,29.368 122.400 C 30.549 122.400,31.085 122.101,32.306 120.762 C 33.128 119.861,34.160 118.780,34.600 118.360 C 35.040 117.939,37.790 115.211,40.710 112.297 C 43.631 109.384,46.220 106.820,46.465 106.600 C 46.709 106.380,47.862 105.210,49.028 104.000 C 51.427 101.509,51.596 101.341,53.800 99.250 C 54.680 98.414,55.945 97.117,56.612 96.366 C 57.278 95.614,58.538 94.360,59.412 93.578 C 60.285 92.797,61.545 91.537,62.212 90.778 C 62.878 90.020,64.138 88.744,65.012 87.942 C 65.885 87.140,67.320 85.663,68.200 84.660 C 69.080 83.657,70.025 82.828,70.301 82.818 C 70.576 82.808,71.430 81.924,72.199 80.854 C 72.968 79.784,74.317 78.432,75.196 77.850 C 76.076 77.268,77.271 76.029,77.853 75.096 C 78.435 74.163,79.831 72.549,80.956 71.509 L 83.000 69.618 81.764 68.472 C 80.559 67.355,80.385 67.319,75.016 67.094 C 68.713 66.830,64.678 65.448,64.158 63.376 C 64.023 62.839,63.787 62.400,63.632 62.400 C 63.477 62.400,62.915 61.995,62.383 61.500 C 61.851 61.005,61.272 60.647,61.097 60.704 C 60.921 60.761,60.671 60.529,60.540 60.189 C 59.915 58.558,58.573 58.397,46.120 58.460 C 39.564 58.493,33.707 58.595,33.104 58.686 M154.400 58.800 C 152.530 58.938,151.488 59.084,152.084 59.125 C 153.956 59.254,154.799 64.001,153.010 64.343 C 151.796 64.574,151.227 65.620,151.213 67.645 C 151.200 69.482,149.716 72.044,148.155 72.926 C 147.837 73.106,146.857 74.164,145.976 75.278 C 145.096 76.391,143.526 77.987,142.488 78.823 C 141.450 79.659,140.266 80.851,139.857 81.471 C 139.449 82.092,138.320 83.230,137.347 84.000 C 136.375 84.770,134.909 86.235,134.090 87.256 C 133.270 88.277,132.092 89.447,131.471 89.856 C 130.851 90.265,129.631 91.485,128.760 92.566 C 127.890 93.647,126.491 95.037,125.651 95.655 C 124.811 96.273,123.632 97.489,123.030 98.357 C 122.428 99.226,121.242 100.395,120.396 100.955 C 119.549 101.516,118.310 102.769,117.642 103.740 C 116.973 104.711,115.798 105.876,115.029 106.330 C 114.260 106.783,113.009 108.020,112.249 109.077 C 111.489 110.135,110.036 111.586,109.019 112.302 C 108.002 113.018,106.796 114.239,106.338 115.016 C 105.880 115.792,104.711 116.973,103.740 117.642 C 102.769 118.310,101.516 119.549,100.955 120.396 C 100.395 121.242,99.226 122.428,98.357 123.030 C 97.489 123.632,96.273 124.811,95.655 125.651 C 95.037 126.491,93.647 127.890,92.566 128.760 C 91.485 129.631,90.265 130.851,89.856 131.471 C 89.447 132.092,88.277 133.270,87.256 134.090 C 86.235 134.909,84.770 136.375,84.000 137.347 C 83.230 138.320,82.092 139.449,81.471 139.857 C 80.851 140.266,79.631 141.485,78.760 142.566 C 77.890 143.647,76.491 145.037,75.651 145.655 C 74.811 146.273,73.621 147.504,73.006 148.391 C 72.392 149.278,71.267 150.388,70.506 150.858 C 69.746 151.328,68.600 152.452,67.960 153.356 C 67.320 154.260,66.032 155.554,65.098 156.230 C 64.164 156.907,62.919 158.173,62.332 159.044 C 61.744 159.915,60.178 161.521,58.852 162.614 C 57.527 163.706,56.433 164.805,56.421 165.056 C 56.409 165.306,55.241 166.476,53.824 167.656 C 52.407 168.835,51.237 169.946,51.224 170.125 C 51.211 170.304,46.669 174.937,41.131 180.421 C 31.260 190.195,31.025 190.396,29.116 190.649 C 27.544 190.857,26.951 191.173,26.027 192.293 C 24.629 193.990,20.460 194.200,19.940 192.600 C 19.797 192.160,19.662 201.283,19.640 212.874 C 19.598 234.892,19.677 235.992,21.290 236.011 C 22.719 236.028,25.200 238.571,25.200 240.018 C 25.200 240.705,25.451 241.321,25.782 241.448 C 26.101 241.571,26.709 242.257,27.131 242.974 C 27.554 243.690,28.777 244.887,29.850 245.635 L 31.800 246.995 40.800 247.055 C 45.750 247.088,49.274 247.029,48.630 246.924 C 47.748 246.780,47.600 246.645,48.030 246.373 C 48.429 246.120,48.450 246.010,48.100 246.006 C 47.221 245.995,47.454 241.856,48.381 241.017 C 48.811 240.628,49.390 239.295,49.667 238.055 C 50.145 235.914,51.037 234.685,53.655 232.557 C 54.389 231.961,55.645 230.440,56.505 229.106 C 56.893 228.505,57.658 227.900,58.205 227.763 C 58.752 227.626,59.201 227.398,59.202 227.257 C 59.203 227.115,59.700 226.460,60.307 225.800 C 60.914 225.140,61.727 224.105,62.114 223.500 C 62.502 222.895,63.047 222.400,63.326 222.400 C 63.944 222.400,66.990 219.277,67.334 218.291 C 67.470 217.901,67.901 217.470,68.291 217.334 C 69.290 216.985,72.400 213.940,72.400 213.311 C 72.400 213.023,72.911 212.476,73.536 212.094 C 75.404 210.954,77.496 208.958,77.788 208.039 C 77.938 207.566,78.542 206.871,79.130 206.495 C 79.719 206.118,80.434 205.587,80.720 205.314 C 81.005 205.041,81.545 204.589,81.920 204.309 C 82.294 204.029,82.850 203.315,83.156 202.722 C 83.462 202.129,84.655 200.959,85.807 200.122 C 86.960 199.285,88.207 198.060,88.580 197.400 C 88.952 196.740,89.976 195.660,90.855 195.000 C 92.856 193.498,93.498 192.856,95.000 190.855 C 95.660 189.976,96.740 188.952,97.400 188.580 C 98.060 188.207,99.285 186.960,100.122 185.807 C 100.959 184.655,102.129 183.462,102.722 183.156 C 103.315 182.850,104.029 182.294,104.309 181.920 C 104.589 181.545,105.041 181.005,105.314 180.720 C 105.587 180.434,106.118 179.719,106.495 179.130 C 106.871 178.542,107.566 177.938,108.039 177.788 C 108.958 177.496,110.954 175.404,112.094 173.536 C 112.476 172.911,113.023 172.400,113.311 172.400 C 113.940 172.400,116.985 169.290,117.334 168.291 C 117.470 167.901,117.901 167.470,118.291 167.334 C 119.290 166.985,122.400 163.940,122.400 163.311 C 122.400 163.023,122.911 162.476,123.536 162.094 C 125.404 160.954,127.496 158.958,127.788 158.039 C 127.938 157.566,128.542 156.871,129.130 156.495 C 129.719 156.118,130.434 155.587,130.720 155.314 C 131.005 155.041,131.545 154.589,131.920 154.309 C 132.294 154.029,132.850 153.315,133.156 152.722 C 133.462 152.129,134.655 150.959,135.807 150.122 C 136.960 149.285,138.207 148.060,138.580 147.400 C 138.952 146.740,139.976 145.660,140.855 145.000 C 142.856 143.498,143.498 142.856,145.000 140.855 C 145.660 139.976,146.740 138.952,147.400 138.580 C 148.060 138.207,149.285 136.960,150.122 135.807 C 150.959 134.655,152.129 133.462,152.722 133.156 C 153.315 132.850,154.029 132.294,154.309 131.920 C 154.589 131.545,155.041 131.005,155.314 130.720 C 155.587 130.434,156.118 129.719,156.495 129.130 C 156.871 128.542,157.566 127.938,158.039 127.788 C 158.958 127.496,160.954 125.404,162.094 123.536 C 162.476 122.911,163.023 122.400,163.311 122.400 C 163.940 122.400,166.985 119.290,167.334 118.291 C 167.470 117.901,167.901 117.470,168.291 117.334 C 169.290 116.985,172.400 113.940,172.400 113.311 C 172.400 113.023,172.911 112.476,173.536 112.094 C 175.404 110.954,177.496 108.958,177.788 108.039 C 177.938 107.566,178.542 106.871,179.130 106.495 C 179.719 106.118,180.434 105.587,180.720 105.314 C 181.005 105.041,181.545 104.589,181.920 104.309 C 182.294 104.029,182.850 103.315,183.156 102.722 C 183.462 102.129,184.655 100.959,185.807 100.122 C 186.960 99.285,188.207 98.060,188.580 97.400 C 188.952 96.740,189.976 95.660,190.855 95.000 C 192.856 93.498,193.498 92.856,195.000 90.855 C 195.660 89.976,196.740 88.952,197.400 88.580 C 198.060 88.207,199.285 86.960,200.122 85.807 C 200.959 84.655,202.129 83.462,202.722 83.156 C 203.315 82.850,204.029 82.294,204.309 81.920 C 204.589 81.545,205.041 81.005,205.314 80.720 C 205.587 80.434,206.125 79.708,206.510 79.106 C 206.895 78.505,207.613 77.907,208.105 77.778 C 208.597 77.648,209.630 76.711,210.400 75.694 C 211.170 74.677,212.835 72.865,214.100 71.666 C 215.993 69.872,216.400 69.253,216.400 68.169 C 216.400 66.549,217.031 64.812,217.833 64.226 C 218.171 63.978,218.501 62.962,218.588 61.902 C 218.780 59.544,218.986 59.215,220.324 59.137 C 220.916 59.102,219.780 58.941,217.800 58.779 C 213.473 58.425,159.233 58.443,154.400 58.800 M341.200 58.800 C 341.200 59.020,340.930 59.200,340.600 59.200 C 340.270 59.200,340.000 59.337,340.000 59.505 C 340.000 59.673,339.677 59.988,339.281 60.205 C 336.904 61.511,336.023 62.286,335.917 63.164 C 335.829 63.895,335.158 64.488,333.200 65.567 L 330.600 67.000 314.307 67.135 C 297.112 67.276,295.780 67.163,292.931 65.313 C 292.453 65.003,291.053 64.644,289.819 64.517 C 288.586 64.390,287.482 64.132,287.366 63.944 C 287.091 63.500,284.961 64.603,284.681 65.334 C 284.562 65.644,284.335 66.763,284.176 67.821 C 283.847 70.017,282.661 72.263,281.665 72.579 C 281.293 72.697,280.272 73.715,279.395 74.842 C 277.595 77.153,277.479 77.268,275.022 79.200 C 274.042 79.970,273.015 81.078,272.740 81.661 C 272.464 82.245,271.780 83.002,271.219 83.343 C 269.674 84.283,267.202 86.692,267.182 87.280 C 267.172 87.566,266.002 88.675,264.582 89.744 C 263.162 90.814,262.000 91.926,262.000 92.216 C 262.000 92.951,261.601 93.325,257.500 96.426 C 256.895 96.884,256.400 97.480,256.400 97.751 C 256.400 98.360,253.993 100.730,252.740 101.355 C 252.232 101.608,251.608 102.232,251.355 102.740 C 250.730 103.993,248.360 106.400,247.751 106.400 C 247.480 106.400,246.884 106.895,246.426 107.500 C 243.325 111.601,242.951 112.000,242.216 112.000 C 241.926 112.000,240.814 113.162,239.744 114.582 C 238.675 116.002,237.566 117.172,237.280 117.182 C 236.692 117.202,234.283 119.674,233.343 121.219 C 233.002 121.780,232.245 122.464,231.661 122.740 C 231.078 123.015,229.970 124.042,229.200 125.022 C 227.466 127.227,227.227 127.466,225.022 129.200 C 224.042 129.970,223.015 131.078,222.740 131.661 C 222.464 132.245,221.780 133.002,221.219 133.343 C 219.674 134.283,217.202 136.692,217.182 137.280 C 217.172 137.566,216.002 138.675,214.582 139.744 C 213.162 140.814,212.000 141.926,212.000 142.216 C 212.000 142.951,211.601 143.325,207.500 146.426 C 206.895 146.884,206.400 147.480,206.400 147.751 C 206.400 148.360,203.993 150.730,202.740 151.355 C 202.232 151.608,201.608 152.232,201.355 152.740 C 200.730 153.993,198.360 156.400,197.751 156.400 C 197.480 156.400,196.884 156.895,196.426 157.500 C 193.325 161.601,192.951 162.000,192.216 162.000 C 191.926 162.000,190.814 163.162,189.744 164.582 C 188.675 166.002,187.566 167.172,187.280 167.182 C 186.692 167.202,184.283 169.674,183.343 171.219 C 183.002 171.780,182.245 172.464,181.661 172.740 C 181.078 173.015,179.970 174.042,179.200 175.022 C 177.466 177.227,177.227 177.466,175.022 179.200 C 174.042 179.970,173.015 181.078,172.740 181.661 C 172.464 182.245,171.780 183.002,171.219 183.343 C 169.674 184.283,167.202 186.692,167.182 187.280 C 167.172 187.566,166.002 188.675,164.582 189.744 C 163.162 190.814,162.000 191.926,162.000 192.216 C 162.000 192.951,161.601 193.325,157.500 196.426 C 156.895 196.884,156.400 197.480,156.400 197.751 C 156.400 198.360,153.993 200.730,152.740 201.355 C 152.232 201.608,151.608 202.232,151.355 202.740 C 150.730 203.993,148.360 206.400,147.751 206.400 C 147.480 206.400,146.884 206.895,146.426 207.500 C 143.325 211.601,142.951 212.000,142.216 212.000 C 141.926 212.000,140.814 213.162,139.744 214.582 C 138.675 216.002,137.566 217.172,137.280 217.182 C 136.678 217.203,134.273 219.689,133.295 221.300 C 132.928 221.905,132.420 222.400,132.166 222.400 C 131.543 222.400,128.089 225.890,127.795 226.817 C 127.665 227.225,127.253 227.657,126.880 227.777 C 125.908 228.088,122.400 231.589,122.400 232.247 C 122.400 232.551,122.265 232.804,122.100 232.809 C 120.969 232.842,118.001 236.411,117.594 238.229 C 117.351 239.313,116.815 240.560,116.403 241.000 C 115.884 241.554,115.615 242.538,115.527 244.200 C 115.405 246.507,115.354 246.610,114.200 246.847 C 113.540 246.983,128.660 247.091,147.800 247.087 C 166.940 247.083,182.105 247.005,181.500 246.913 C 180.895 246.822,180.387 246.534,180.372 246.273 C 180.357 246.013,180.285 244.943,180.213 243.896 C 180.102 242.269,180.225 241.881,181.062 241.223 C 182.049 240.446,182.800 238.575,182.800 236.892 C 182.800 235.846,184.873 233.401,186.367 232.684 C 186.922 232.418,187.582 231.788,187.833 231.285 C 188.484 229.979,189.937 228.497,191.900 227.138 C 192.835 226.491,193.600 225.723,193.600 225.432 C 193.600 224.847,196.589 221.955,197.942 221.231 C 198.414 220.978,198.800 220.552,198.800 220.284 C 198.800 220.016,199.835 218.845,201.100 217.683 C 202.365 216.521,203.553 215.414,203.739 215.224 C 204.182 214.773,214.913 204.041,215.285 203.678 C 215.441 203.525,216.521 202.365,217.683 201.100 C 218.845 199.835,219.998 198.800,220.245 198.800 C 220.492 198.800,221.153 198.106,221.715 197.257 C 222.276 196.408,223.311 195.283,224.014 194.757 C 225.327 193.774,226.254 192.836,228.951 189.766 C 229.804 188.795,230.747 188.000,231.046 188.000 C 231.345 188.000,232.022 187.325,232.550 186.500 C 233.591 184.873,235.166 183.339,236.900 182.264 C 237.505 181.888,238.004 181.361,238.008 181.091 C 238.012 180.821,238.830 179.880,239.825 179.000 C 240.819 178.120,242.301 176.700,243.117 175.845 C 243.932 174.990,245.103 173.820,245.717 173.245 C 246.332 172.670,247.592 171.400,248.517 170.423 C 249.443 169.445,250.719 168.185,251.352 167.623 C 251.986 167.060,253.246 165.807,254.152 164.838 C 255.059 163.870,256.308 162.610,256.929 162.038 C 258.512 160.582,260.818 158.261,262.007 156.929 C 262.561 156.308,263.752 155.203,264.653 154.474 C 265.555 153.744,266.525 152.714,266.809 152.184 C 267.092 151.654,268.365 150.403,269.637 149.403 C 270.910 148.404,272.061 147.238,272.196 146.813 C 272.331 146.388,273.602 145.129,275.020 144.014 C 276.439 142.899,277.600 141.723,277.600 141.400 C 277.600 141.077,278.770 139.894,280.200 138.770 C 281.630 137.646,282.800 136.542,282.800 136.316 C 282.800 135.782,285.782 132.800,286.316 132.800 C 286.542 132.800,287.646 131.630,288.770 130.200 C 289.894 128.770,291.077 127.600,291.400 127.600 C 291.723 127.600,292.899 126.439,294.014 125.020 C 295.129 123.602,296.388 122.331,296.813 122.196 C 297.238 122.061,298.404 120.910,299.403 119.637 C 300.403 118.365,301.654 117.092,302.184 116.809 C 302.714 116.525,303.744 115.555,304.474 114.653 C 305.203 113.752,306.308 112.561,306.929 112.007 C 308.374 110.717,310.717 108.374,312.007 106.929 C 312.561 106.308,313.752 105.203,314.653 104.474 C 315.555 103.744,316.525 102.714,316.809 102.184 C 317.092 101.654,318.365 100.403,319.637 99.403 C 320.910 98.404,322.061 97.238,322.196 96.813 C 322.331 96.388,323.602 95.129,325.020 94.014 C 326.439 92.899,327.600 91.723,327.600 91.400 C 327.600 91.077,328.770 89.894,330.200 88.770 C 331.630 87.646,332.800 86.542,332.800 86.316 C 332.800 85.774,335.786 82.800,336.330 82.800 C 336.563 82.800,337.593 81.708,338.620 80.373 C 339.647 79.039,340.900 77.790,341.405 77.598 C 341.909 77.407,342.818 76.564,343.424 75.725 C 344.031 74.886,345.579 73.190,346.864 71.955 C 348.718 70.173,349.200 69.457,349.200 68.481 C 349.200 66.877,349.863 65.131,350.718 64.483 C 351.181 64.132,351.415 63.345,351.445 62.033 C 351.501 59.653,351.754 59.217,353.124 59.137 C 354.689 59.044,347.511 58.492,344.100 58.442 C 342.405 58.418,341.200 58.566,341.200 58.800 M285.516 59.627 C 286.330 60.577,286.400 60.582,286.400 59.685 C 286.400 59.265,286.081 58.946,285.627 58.912 C 284.901 58.857,284.894 58.901,285.516 59.627 M379.404 114.393 C 379.266 114.617,378.367 114.800,377.407 114.800 C 376.001 114.800,375.428 115.033,374.462 116.000 C 373.595 116.867,372.881 117.200,371.890 117.200 C 370.335 117.200,368.033 118.580,367.370 119.909 C 366.799 121.056,365.578 122.400,365.108 122.400 C 364.721 122.400,256.600 230.412,255.587 231.811 C 255.264 232.257,254.161 233.300,253.135 234.130 C 251.586 235.383,251.189 235.991,250.787 237.719 C 250.520 238.864,249.886 240.250,249.377 240.800 C 248.667 241.567,248.422 242.359,248.326 244.200 C 248.205 246.507,248.154 246.610,247.000 246.847 C 246.340 246.983,257.455 247.118,271.700 247.147 L 297.600 247.200 297.600 300.667 C 297.600 330.073,297.735 353.998,297.900 353.833 C 298.065 353.668,298.290 329.563,298.400 300.267 L 298.600 247.000 300.828 246.276 C 303.069 245.547,304.000 244.380,304.000 242.300 C 304.000 241.689,305.536 240.969,309.739 239.610 C 310.585 239.336,311.755 238.863,312.339 238.559 C 312.922 238.254,313.594 238.004,313.830 238.002 C 314.067 238.001,315.210 236.830,316.370 235.400 C 317.530 233.970,318.703 232.800,318.975 232.800 C 319.520 232.800,321.394 230.836,322.523 229.082 C 322.918 228.467,323.637 227.813,324.121 227.627 C 325.095 227.253,327.293 224.977,327.697 223.923 C 327.840 223.551,328.462 222.922,329.079 222.525 C 330.842 221.390,332.800 219.520,332.800 218.970 C 332.800 218.694,333.960 217.546,335.379 216.417 C 336.797 215.289,338.057 214.051,338.179 213.667 C 338.398 212.976,340.962 210.652,342.700 209.569 C 343.195 209.260,343.600 208.763,343.600 208.464 C 343.600 207.799,347.020 204.511,348.053 204.183 C 348.464 204.053,348.800 203.697,348.800 203.392 C 348.800 202.671,352.671 198.800,353.392 198.800 C 353.697 198.800,354.053 198.464,354.183 198.053 C 354.514 197.012,357.801 193.600,358.474 193.600 C 358.778 193.600,359.327 193.105,359.693 192.500 C 360.405 191.322,362.464 189.182,365.368 186.600 C 366.358 185.720,367.175 184.849,367.184 184.664 C 367.209 184.146,368.927 182.829,369.600 182.811 C 371.115 182.772,373.396 181.838,374.351 180.867 C 375.392 179.808,379.200 179.170,379.200 180.055 C 379.200 180.245,379.470 180.400,379.800 180.400 C 380.328 180.400,380.400 176.469,380.400 147.424 C 380.400 116.893,380.282 112.973,379.404 114.393 M341.088 358.100 C 340.977 358.815,341.017 359.541,341.177 359.714 C 341.337 359.887,341.496 359.302,341.531 358.414 C 341.607 356.472,341.368 356.302,341.088 358.100 M340.087 361.609 C 339.619 362.359,339.641 362.381,340.391 361.913 C 340.836 361.635,341.200 361.271,341.200 361.104 C 341.200 360.526,340.591 360.803,340.087 361.609 "
            stroke="none" fill="#533464" fill-rule="evenodd"></path>
        <path id="path2"
            d="M83.800 31.190 C 80.932 31.553,77.932 33.126,77.200 34.650 C 76.623 35.852,76.481 35.909,73.438 36.164 C 69.472 36.496,69.600 36.396,69.600 39.183 L 69.600 41.519 67.700 41.754 C 66.655 41.883,65.493 42.003,65.119 42.021 C 64.309 42.059,64.091 42.730,64.032 45.380 C 63.986 47.421,63.590 47.983,62.189 47.994 C 60.878 48.004,59.661 49.115,59.215 50.712 C 58.536 53.141,58.204 58.800,58.741 58.800 C 58.993 58.800,59.605 59.205,60.100 59.700 C 60.595 60.195,61.094 60.600,61.209 60.600 C 61.325 60.600,61.853 61.005,62.385 61.500 C 62.916 61.995,63.477 62.400,63.632 62.400 C 63.787 62.400,64.023 62.839,64.158 63.376 C 64.678 65.445,68.714 66.830,74.995 67.093 C 80.031 67.304,80.580 67.403,81.628 68.285 L 82.770 69.246 83.991 68.343 C 85.549 67.191,88.098 66.876,96.206 66.834 C 101.487 66.806,102.961 66.666,104.606 66.037 C 105.703 65.618,107.230 65.053,108.000 64.782 C 108.770 64.511,109.762 64.158,110.205 63.997 C 110.647 63.836,111.268 63.186,111.584 62.552 C 111.901 61.918,112.574 60.826,113.081 60.125 C 114.023 58.822,114.477 50.400,113.604 50.400 C 113.423 50.400,113.369 50.039,113.485 49.598 C 113.756 48.561,112.862 47.491,111.928 47.735 C 111.528 47.839,111.100 47.762,110.977 47.562 C 110.854 47.363,110.223 47.200,109.576 47.200 C 108.426 47.200,108.400 47.154,108.400 45.128 C 108.400 43.085,108.017 41.426,106.968 38.920 C 106.325 37.385,103.876 36.487,99.329 36.121 C 96.649 35.904,96.442 35.820,96.202 34.844 C 95.442 31.749,90.619 30.328,83.800 31.190 M309.965 31.211 C 305.900 31.589,304.745 32.189,304.012 34.304 C 303.452 35.921,303.349 36.000,301.812 36.000 C 300.168 36.001,295.137 36.884,293.937 37.382 C 293.572 37.534,293.102 38.140,292.892 38.729 C 291.962 41.345,291.600 42.726,291.600 43.654 C 291.600 44.872,289.680 46.804,287.892 47.384 C 286.910 47.703,286.592 48.042,286.567 48.802 C 286.549 49.351,286.400 51.359,286.234 53.264 C 285.939 56.667,286.470 62.225,287.224 63.642 C 287.449 64.064,288.339 64.364,289.814 64.517 C 291.050 64.644,292.453 65.003,292.931 65.313 C 295.780 67.163,297.112 67.276,314.307 67.135 L 330.600 67.000 333.200 65.567 C 335.158 64.488,335.829 63.895,335.917 63.164 C 336.023 62.286,336.904 61.511,339.281 60.205 C 339.677 59.988,340.000 59.673,340.000 59.505 C 340.000 59.337,340.267 59.200,340.592 59.200 C 341.529 59.200,341.723 57.483,341.201 53.807 C 340.623 49.736,339.838 48.511,337.571 48.149 L 336.000 47.898 335.994 45.449 C 335.986 42.260,335.810 42.052,332.878 41.745 L 330.400 41.486 330.400 39.392 C 330.400 36.762,330.086 36.514,326.477 36.291 C 323.621 36.115,323.537 36.079,322.877 34.755 C 321.492 31.982,316.477 30.606,309.965 31.211 "
            stroke="none" fill="#f72f2d" fill-rule="evenodd"></path>
        <path id="path3"
            d="M113.812 59.700 C 113.416 61.991,113.260 62.990,113.230 63.428 C 113.158 64.461,109.895 67.200,108.737 67.200 C 108.476 67.200,107.947 67.486,107.561 67.836 C 106.413 68.875,104.143 69.195,97.669 69.230 C 91.980 69.262,91.489 69.324,90.869 70.089 C 89.716 71.512,88.820 72.186,87.488 72.631 C 86.758 72.876,85.974 73.526,85.678 74.131 C 85.391 74.719,85.008 75.200,84.827 75.200 C 84.645 75.200,84.276 75.735,84.005 76.388 C 83.697 77.132,82.936 77.842,81.967 78.288 C 81.116 78.680,80.416 79.242,80.410 79.537 C 80.405 79.833,80.085 80.161,79.700 80.265 C 79.315 80.370,78.680 81.144,78.288 81.985 C 77.846 82.932,77.124 83.700,76.388 84.005 C 75.735 84.276,75.200 84.659,75.200 84.857 C 75.200 85.055,74.781 85.408,74.268 85.642 C 73.756 85.875,73.114 86.683,72.841 87.437 C 72.539 88.271,71.862 89.058,71.110 89.446 C 70.431 89.798,69.509 90.426,69.062 90.843 C 68.615 91.259,68.117 91.600,67.956 91.600 C 67.795 91.600,67.542 92.153,67.394 92.829 C 67.220 93.617,66.671 94.325,65.862 94.801 C 63.238 96.347,62.059 97.436,61.840 98.515 C 61.698 99.218,61.150 99.882,60.357 100.315 C 58.234 101.472,56.797 102.833,56.206 104.247 C 55.878 105.032,55.172 105.798,54.521 106.075 C 53.120 106.670,51.200 108.387,51.200 109.044 C 51.200 109.867,49.179 112.000,48.400 112.000 C 47.625 112.000,46.234 113.502,45.128 115.533 C 44.758 116.212,43.768 117.090,42.928 117.485 C 41.860 117.987,41.038 118.832,40.200 120.288 C 39.540 121.435,38.775 122.379,38.500 122.387 C 38.225 122.394,38.000 122.580,38.000 122.800 C 38.000 123.020,37.739 123.200,37.421 123.200 C 37.102 123.200,36.366 123.640,35.786 124.178 C 35.205 124.716,34.594 125.211,34.427 125.278 C 34.261 125.345,33.870 125.938,33.558 126.596 C 32.908 127.972,31.596 128.707,29.272 128.999 C 28.375 129.112,27.172 129.383,26.598 129.601 C 25.098 130.171,20.670 130.210,20.485 129.654 C 19.750 127.450,19.600 132.417,19.600 158.976 C 19.600 178.396,19.739 188.839,20.000 189.000 C 20.220 189.136,20.400 188.902,20.400 188.481 C 20.400 187.815,20.696 187.716,22.656 187.725 C 24.310 187.732,25.042 187.557,25.400 187.068 C 25.669 186.700,26.048 186.396,26.244 186.391 C 26.440 186.386,27.050 186.030,27.600 185.600 C 28.150 185.170,29.011 184.814,29.513 184.809 C 30.015 184.804,30.536 184.486,30.671 184.100 C 31.092 182.903,32.874 181.238,34.204 180.799 C 34.927 180.560,35.710 179.909,36.018 179.289 C 37.001 177.311,38.386 175.658,39.300 175.371 C 40.158 175.102,42.000 173.428,42.000 172.917 C 42.000 172.325,44.080 170.029,44.832 169.790 C 45.938 169.439,47.795 167.460,48.408 165.980 C 48.697 165.284,49.302 164.689,49.867 164.547 C 51.129 164.231,53.170 162.169,53.863 160.512 C 54.164 159.790,54.655 159.200,54.953 159.200 C 55.665 159.200,59.200 155.655,59.200 154.941 C 59.200 154.636,59.828 154.088,60.596 153.721 C 61.364 153.355,62.099 152.718,62.230 152.305 C 62.361 151.892,62.903 151.389,63.434 151.187 C 63.970 150.983,64.400 150.494,64.400 150.087 C 64.400 149.673,65.183 148.802,66.200 148.085 C 67.190 147.387,68.000 146.633,68.000 146.408 C 68.000 146.184,68.279 146.000,68.621 146.000 C 68.962 146.000,69.425 145.505,69.649 144.900 C 69.873 144.295,71.201 142.915,72.601 141.833 C 74.001 140.752,75.251 139.492,75.378 139.033 C 75.505 138.575,76.681 137.390,77.991 136.400 C 79.300 135.410,80.476 134.299,80.603 133.931 C 80.845 133.231,83.784 130.412,84.301 130.384 C 84.466 130.375,85.410 129.297,86.400 127.988 C 87.390 126.680,88.575 125.505,89.033 125.378 C 89.492 125.251,90.752 124.001,91.833 122.601 C 92.915 121.201,94.295 119.873,94.900 119.649 C 95.505 119.425,96.000 118.962,96.000 118.621 C 96.000 118.279,96.184 118.000,96.408 118.000 C 96.633 118.000,97.387 117.190,98.085 116.200 C 98.802 115.183,99.673 114.400,100.087 114.400 C 100.494 114.400,100.983 113.970,101.187 113.434 C 101.389 112.903,101.905 112.357,102.334 112.221 C 102.763 112.085,103.343 111.420,103.624 110.743 C 103.928 110.008,104.583 109.355,105.250 109.122 C 105.865 108.908,106.480 108.377,106.618 107.942 C 106.756 107.507,107.295 106.957,107.815 106.720 C 108.335 106.484,108.929 105.805,109.136 105.212 C 109.355 104.583,110.025 103.921,110.743 103.624 C 111.420 103.343,112.085 102.763,112.221 102.334 C 112.357 101.905,112.903 101.389,113.434 101.187 C 113.970 100.983,114.400 100.494,114.400 100.087 C 114.400 99.673,115.183 98.802,116.200 98.085 C 117.190 97.387,118.000 96.633,118.000 96.408 C 118.000 96.184,118.279 96.000,118.621 96.000 C 118.962 96.000,119.425 95.505,119.649 94.900 C 119.873 94.295,121.201 92.915,122.601 91.833 C 124.001 90.752,125.251 89.492,125.378 89.033 C 125.505 88.575,126.681 87.390,127.991 86.400 C 129.300 85.410,130.476 84.299,130.603 83.931 C 130.845 83.231,133.784 80.412,134.301 80.384 C 134.466 80.375,135.410 79.304,136.400 78.004 C 137.390 76.705,138.697 75.461,139.305 75.240 C 139.913 75.019,140.529 74.528,140.675 74.150 C 140.979 73.357,141.420 72.786,143.351 70.689 C 144.529 69.410,145.281 67.758,145.377 66.244 C 145.390 66.048,145.760 65.688,146.200 65.444 C 146.640 65.200,147.090 64.897,147.200 64.771 C 147.310 64.645,147.687 64.436,148.038 64.307 C 148.791 64.030,148.958 60.783,148.244 60.300 C 147.936 60.092,147.984 59.879,148.400 59.606 C 148.800 59.343,143.812 59.179,133.400 59.112 L 117.800 59.012 136.800 58.800 L 155.800 58.588 134.918 58.494 L 114.036 58.400 113.812 59.700 M234.130 58.700 C 243.772 58.760,259.432 58.760,268.930 58.700 C 278.429 58.640,270.540 58.591,251.400 58.591 C 232.260 58.591,224.489 58.640,234.130 58.700 M354.138 58.699 L 358.875 58.826 357.855 60.164 C 357.294 60.899,356.948 61.615,357.087 61.754 C 357.530 62.196,357.443 63.975,356.970 64.156 C 356.719 64.253,356.399 64.903,356.260 65.602 C 356.120 66.300,355.616 67.711,355.140 68.736 C 354.665 69.761,354.309 70.751,354.349 70.934 C 354.390 71.118,354.058 71.364,353.611 71.481 C 353.165 71.598,352.800 71.862,352.800 72.069 C 352.800 72.792,349.558 77.209,348.535 77.879 C 347.967 78.251,346.902 79.196,346.169 79.978 C 345.435 80.760,344.422 81.806,343.918 82.303 C 339.417 86.730,335.730 90.418,332.551 93.670 C 332.138 94.092,330.900 95.332,329.800 96.425 C 328.700 97.517,327.423 98.814,326.962 99.306 C 326.502 99.798,325.370 100.830,324.448 101.600 C 323.527 102.370,322.603 103.405,322.396 103.900 C 322.189 104.395,321.517 105.115,320.903 105.500 C 320.288 105.885,319.159 106.886,318.393 107.724 C 316.554 109.737,315.244 111.081,313.356 112.894 C 312.500 113.715,311.232 114.975,310.538 115.694 C 309.843 116.412,308.583 117.627,307.738 118.393 C 306.892 119.159,305.885 120.288,305.500 120.903 C 305.115 121.517,304.395 122.189,303.900 122.396 C 303.405 122.603,302.370 123.527,301.600 124.448 C 300.830 125.370,299.798 126.502,299.306 126.962 C 298.814 127.423,297.517 128.700,296.425 129.800 C 295.332 130.900,294.092 132.138,293.670 132.551 C 290.449 135.699,285.699 140.449,282.551 143.670 C 282.138 144.092,280.900 145.332,279.800 146.425 C 278.700 147.517,277.423 148.814,276.962 149.306 C 276.502 149.798,275.370 150.830,274.448 151.600 C 273.527 152.370,272.603 153.405,272.396 153.900 C 272.189 154.395,271.517 155.115,270.903 155.500 C 270.288 155.885,269.159 156.886,268.393 157.724 C 266.554 159.737,265.244 161.081,263.356 162.894 C 262.500 163.715,261.232 164.975,260.538 165.694 C 259.843 166.412,258.583 167.627,257.738 168.393 C 256.892 169.159,255.885 170.288,255.500 170.903 C 255.115 171.517,254.395 172.189,253.900 172.396 C 253.405 172.603,252.370 173.527,251.600 174.448 C 250.830 175.370,249.790 176.502,249.289 176.962 C 248.788 177.423,247.786 178.385,247.061 179.100 C 246.336 179.815,245.531 180.400,245.272 180.400 C 245.012 180.400,244.800 180.636,244.800 180.925 C 244.800 181.535,242.751 183.600,242.146 183.600 C 241.920 183.600,241.496 184.047,241.204 184.593 C 240.911 185.140,240.380 185.679,240.023 185.793 C 239.665 185.906,239.076 186.503,238.712 187.118 C 238.348 187.734,237.592 188.483,237.032 188.783 C 236.472 189.083,235.917 189.630,235.800 190.000 C 235.683 190.370,235.170 190.895,234.661 191.167 C 234.152 191.440,233.446 192.152,233.093 192.750 C 232.740 193.348,231.989 194.085,231.425 194.386 C 230.861 194.688,230.399 195.130,230.399 195.368 C 230.398 195.605,229.859 196.160,229.200 196.600 C 228.541 197.040,228.002 197.550,228.001 197.734 C 228.000 198.139,223.124 202.799,222.700 202.799 C 222.535 202.800,222.400 202.966,222.400 203.168 C 222.400 203.495,203.730 222.400,203.408 222.400 C 203.147 222.400,200.365 225.326,199.585 226.421 C 199.142 227.043,198.469 227.652,198.090 227.774 C 197.710 227.896,197.040 228.536,196.600 229.197 C 196.160 229.857,195.620 230.399,195.400 230.400 C 195.180 230.401,194.640 230.943,194.200 231.603 C 193.760 232.264,193.089 232.905,192.708 233.027 C 192.328 233.149,191.704 233.778,191.322 234.425 C 190.940 235.072,190.306 235.703,189.913 235.827 C 189.521 235.952,189.200 236.375,189.200 236.767 C 189.200 238.498,188.279 240.051,186.854 240.721 L 185.400 241.405 185.311 244.302 L 185.222 247.200 214.184 247.200 L 243.145 247.200 243.048 246.283 C 242.994 245.779,242.816 245.149,242.651 244.883 C 242.487 244.617,242.498 244.400,242.676 244.400 C 242.854 244.400,243.019 243.725,243.043 242.900 C 243.160 238.819,244.610 235.579,247.319 233.345 C 247.622 233.094,248.744 231.699,249.812 230.245 C 250.880 228.790,252.041 227.600,252.391 227.600 C 252.741 227.600,253.346 227.060,253.736 226.400 C 254.126 225.740,254.600 225.200,254.790 225.200 C 254.980 225.200,255.513 224.589,255.974 223.842 C 256.436 223.095,257.261 222.371,257.807 222.234 C 258.353 222.097,258.800 221.808,258.800 221.593 C 258.800 221.377,259.520 220.459,260.400 219.552 C 261.280 218.645,262.000 217.767,262.000 217.600 C 262.000 217.434,262.523 217.080,263.162 216.816 C 263.801 216.551,264.418 215.976,264.532 215.538 C 264.647 215.099,265.099 214.647,265.538 214.532 C 265.976 214.418,266.551 213.801,266.816 213.162 C 267.080 212.523,267.434 212.000,267.600 212.000 C 267.767 212.000,268.645 211.280,269.552 210.400 C 270.459 209.520,271.377 208.800,271.593 208.800 C 271.808 208.800,272.097 208.353,272.234 207.807 C 272.371 207.261,273.095 206.436,273.842 205.974 C 274.589 205.513,275.200 204.980,275.200 204.790 C 275.200 204.600,275.740 204.126,276.400 203.736 C 277.060 203.346,277.600 202.731,277.600 202.368 C 277.600 202.006,278.275 201.234,279.100 200.653 C 279.925 200.072,281.140 198.973,281.800 198.211 C 282.460 197.448,283.619 196.234,284.376 195.512 C 286.156 193.814,293.814 186.156,295.512 184.376 C 296.234 183.619,297.448 182.460,298.211 181.800 C 298.973 181.140,300.072 179.925,300.653 179.100 C 301.234 178.275,302.006 177.600,302.368 177.600 C 302.731 177.600,303.346 177.060,303.736 176.400 C 304.126 175.740,304.600 175.200,304.790 175.200 C 304.980 175.200,305.513 174.589,305.974 173.842 C 306.436 173.095,307.261 172.371,307.807 172.234 C 308.353 172.097,308.800 171.808,308.800 171.593 C 308.800 171.377,309.520 170.459,310.400 169.552 C 311.280 168.645,312.000 167.767,312.000 167.600 C 312.000 167.434,312.523 167.080,313.162 166.816 C 313.801 166.551,314.418 165.976,314.532 165.538 C 314.647 165.099,315.099 164.647,315.538 164.532 C 315.976 164.418,316.551 163.801,316.816 163.162 C 317.080 162.523,317.434 162.000,317.600 162.000 C 317.767 162.000,318.645 161.280,319.552 160.400 C 320.459 159.520,321.377 158.800,321.593 158.800 C 321.808 158.800,322.097 158.353,322.234 157.807 C 322.371 157.261,323.095 156.436,323.842 155.974 C 324.589 155.513,325.200 154.980,325.200 154.790 C 325.200 154.600,325.740 154.126,326.400 153.736 C 327.060 153.346,327.600 152.731,327.600 152.368 C 327.600 152.006,328.275 151.234,329.100 150.653 C 329.925 150.072,331.140 148.973,331.800 148.211 C 332.460 147.448,333.619 146.234,334.376 145.512 C 336.156 143.814,343.814 136.156,345.512 134.376 C 346.234 133.619,347.448 132.460,348.211 131.800 C 348.973 131.140,350.072 129.925,350.653 129.100 C 351.234 128.275,352.006 127.600,352.368 127.600 C 352.731 127.600,353.346 127.060,353.736 126.400 C 354.126 125.740,354.600 125.200,354.790 125.200 C 354.980 125.200,355.513 124.589,355.974 123.842 C 356.436 123.095,357.261 122.371,357.807 122.234 C 358.353 122.097,358.800 121.808,358.800 121.593 C 358.800 121.377,359.520 120.459,360.400 119.552 C 361.280 118.645,362.000 117.774,362.000 117.616 C 362.000 117.458,362.475 117.112,363.056 116.847 C 363.636 116.583,364.459 115.924,364.885 115.383 C 365.310 114.842,366.005 114.400,366.429 114.400 C 366.917 114.400,367.200 114.124,367.200 113.649 C 367.200 112.128,373.351 109.514,377.200 109.400 L 379.400 109.335 379.600 96.967 C 379.710 90.165,379.914 84.960,380.054 85.400 C 380.193 85.840,380.328 84.265,380.354 81.900 C 380.388 78.705,380.272 77.598,379.900 77.594 C 379.590 77.590,379.552 77.476,379.800 77.294 C 380.325 76.908,380.481 74.400,379.981 74.400 C 379.767 74.400,379.817 74.042,380.090 73.605 C 380.570 72.835,379.435 69.632,378.879 70.188 C 378.773 70.294,378.847 70.619,379.043 70.909 C 379.239 71.200,379.013 70.998,378.539 70.461 C 378.004 69.855,377.436 69.577,377.039 69.730 C 375.956 70.145,375.200 69.581,375.200 68.357 C 375.200 67.721,375.020 67.200,374.800 67.200 C 374.580 67.200,374.400 67.009,374.400 66.776 C 374.400 66.543,374.580 66.464,374.800 66.600 C 375.020 66.736,375.200 66.567,375.200 66.224 C 375.200 65.881,374.885 65.597,374.500 65.594 C 373.955 65.589,373.920 65.512,374.343 65.244 C 374.800 64.954,374.800 64.845,374.343 64.550 C 373.554 64.041,369.851 64.052,369.506 64.564 C 369.344 64.804,369.209 64.303,369.206 63.451 C 369.201 62.053,369.135 61.956,368.535 62.451 C 367.933 62.947,367.914 62.916,368.335 62.126 C 368.934 61.001,368.924 60.678,368.300 61.053 C 367.992 61.238,368.022 61.080,368.378 60.641 C 368.896 60.004,368.879 59.943,368.220 60.064 C 367.815 60.139,367.406 59.930,367.311 59.600 C 367.172 59.115,367.212 59.104,367.520 59.543 C 367.777 59.910,367.986 59.947,368.166 59.654 C 368.563 59.013,366.437 58.611,365.171 59.088 C 364.573 59.314,363.859 59.360,363.584 59.190 C 363.224 58.967,363.296 58.827,363.842 58.687 C 364.259 58.580,361.180 58.511,357.000 58.532 C 352.191 58.557,351.140 58.619,354.138 58.699 M224.574 59.558 C 224.696 59.755,224.565 60.005,224.283 60.113 C 223.933 60.247,223.809 60.977,223.891 62.407 C 223.958 63.560,223.822 64.732,223.591 65.011 C 223.163 65.527,223.047 65.957,222.633 68.563 C 222.490 69.463,221.918 70.498,221.148 71.250 C 219.345 73.013,217.200 75.911,217.200 76.585 C 217.200 76.902,216.615 77.446,215.900 77.793 C 214.217 78.610,212.149 80.499,211.827 81.514 C 211.688 81.952,210.905 82.774,210.087 83.341 C 207.745 84.964,206.514 86.134,206.241 87.000 C 206.102 87.440,204.918 88.600,203.610 89.578 C 202.302 90.556,201.040 91.816,200.806 92.378 C 200.572 92.940,199.501 94.030,198.425 94.800 C 197.350 95.570,195.780 97.142,194.935 98.293 C 194.091 99.443,192.940 100.576,192.378 100.809 C 191.816 101.042,190.556 102.302,189.578 103.610 C 188.600 104.918,187.440 106.102,187.000 106.241 C 186.134 106.514,184.964 107.745,183.341 110.087 C 182.774 110.905,181.948 111.689,181.506 111.830 C 180.635 112.106,178.621 114.238,177.506 116.064 C 177.124 116.689,176.557 117.200,176.246 117.200 C 175.509 117.200,172.820 119.895,172.367 121.088 C 172.173 121.597,171.597 122.173,171.088 122.367 C 169.895 122.820,167.200 125.509,167.200 126.246 C 167.200 126.557,166.689 127.124,166.064 127.506 C 164.238 128.621,162.106 130.635,161.830 131.506 C 161.689 131.948,160.905 132.774,160.087 133.341 C 157.745 134.964,156.514 136.134,156.241 137.000 C 156.102 137.440,154.918 138.600,153.610 139.578 C 152.302 140.556,151.042 141.816,150.809 142.378 C 150.576 142.940,149.443 144.091,148.293 144.935 C 147.142 145.780,145.570 147.350,144.800 148.425 C 144.030 149.501,142.940 150.572,142.378 150.806 C 141.816 151.040,140.556 152.302,139.578 153.610 C 138.600 154.918,137.440 156.102,137.000 156.241 C 136.134 156.514,134.964 157.745,133.341 160.087 C 132.774 160.905,131.948 161.689,131.506 161.830 C 130.635 162.106,128.621 164.238,127.506 166.064 C 127.124 166.689,126.557 167.200,126.246 167.200 C 125.509 167.200,122.820 169.895,122.367 171.088 C 122.173 171.597,121.597 172.173,121.088 172.367 C 119.895 172.820,117.200 175.509,117.200 176.246 C 117.200 176.557,116.689 177.124,116.064 177.506 C 114.238 178.621,112.106 180.635,111.830 181.506 C 111.689 181.948,110.905 182.774,110.087 183.341 C 107.745 184.964,106.514 186.134,106.241 187.000 C 106.102 187.440,104.918 188.600,103.610 189.578 C 102.302 190.556,101.042 191.816,100.809 192.378 C 100.576 192.940,99.443 194.091,98.293 194.935 C 97.142 195.780,95.570 197.350,94.800 198.425 C 94.030 199.501,92.940 200.572,92.378 200.806 C 91.816 201.040,90.556 202.302,89.578 203.610 C 88.600 204.918,87.440 206.102,87.000 206.241 C 86.134 206.514,84.964 207.745,83.341 210.087 C 82.774 210.905,81.948 211.689,81.506 211.830 C 80.635 212.106,78.621 214.238,77.506 216.064 C 77.124 216.689,76.557 217.200,76.246 217.200 C 75.509 217.200,72.820 219.895,72.367 221.088 C 72.173 221.597,71.606 222.171,71.107 222.362 C 69.831 222.850,67.200 225.421,67.200 226.179 C 67.200 226.527,66.689 227.124,66.064 227.506 C 64.286 228.592,62.254 230.518,61.636 231.705 C 61.326 232.300,60.786 232.886,60.436 233.008 C 58.639 233.633,56.519 236.211,56.233 238.120 C 55.939 240.078,55.490 240.488,52.669 241.370 C 52.114 241.544,51.955 241.958,52.008 243.099 C 52.046 243.925,52.048 244.690,52.011 244.800 C 51.975 244.910,51.880 245.495,51.800 246.100 L 51.655 247.200 55.415 247.200 C 58.593 247.200,59.139 247.107,58.945 246.600 C 58.776 246.161,58.995 246.000,59.757 246.000 C 60.331 246.000,60.800 245.809,60.800 245.576 C 60.800 245.343,60.592 245.281,60.338 245.438 C 60.050 245.616,59.985 245.548,60.166 245.255 C 60.325 244.998,60.602 244.877,60.781 244.988 C 60.960 245.099,61.561 244.832,62.116 244.395 C 62.672 243.958,63.319 243.600,63.555 243.600 C 63.792 243.600,64.094 243.163,64.229 242.628 C 64.460 241.708,65.280 241.158,68.206 239.964 C 69.662 239.370,70.414 239.181,71.200 239.211 C 71.530 239.223,72.340 239.192,73.000 239.140 C 78.139 238.743,91.600 239.147,91.600 239.700 C 91.600 239.865,91.819 240.000,92.087 240.000 C 94.060 240.000,95.924 241.326,96.495 243.137 C 97.104 245.068,98.943 246.480,100.468 246.187 C 100.836 246.116,101.235 246.315,101.356 246.629 C 101.476 246.943,101.783 247.200,102.036 247.200 C 102.369 247.200,102.359 247.032,102.000 246.600 C 101.713 246.254,101.674 246.000,101.908 246.000 C 102.132 246.000,102.418 246.270,102.545 246.600 C 102.726 247.072,103.542 247.200,106.360 247.200 L 109.945 247.200 109.839 246.199 C 109.780 245.649,109.633 245.100,109.513 244.979 C 109.392 244.859,109.433 244.139,109.605 243.380 C 109.776 242.621,109.852 242.000,109.775 242.000 C 109.697 242.000,110.166 240.875,110.817 239.500 C 111.467 238.125,112.000 236.780,112.000 236.512 C 112.000 236.244,112.540 235.625,113.200 235.137 C 113.860 234.649,114.399 233.968,114.399 233.625 C 114.398 233.281,115.020 232.370,115.781 231.600 C 117.739 229.619,130.011 217.357,130.450 216.943 C 130.650 216.754,131.184 216.105,131.636 215.500 C 132.088 214.895,132.676 214.400,132.943 214.400 C 133.209 214.400,133.740 213.871,134.122 213.224 C 134.504 212.578,135.145 211.944,135.548 211.817 C 135.950 211.689,136.483 211.135,136.733 210.586 C 136.984 210.037,137.611 209.396,138.128 209.160 C 138.645 208.925,139.371 208.218,139.742 207.590 C 140.113 206.962,140.764 206.339,141.188 206.204 C 141.612 206.069,142.069 205.612,142.204 205.188 C 142.339 204.764,142.964 204.112,143.593 203.741 C 144.222 203.369,144.951 202.665,145.213 202.176 C 145.474 201.688,146.118 201.058,146.644 200.776 C 147.170 200.495,147.600 200.123,147.600 199.951 C 147.600 199.778,148.058 199.178,148.618 198.618 C 149.178 198.058,149.778 197.600,149.951 197.600 C 150.123 197.600,150.495 197.170,150.776 196.644 C 151.058 196.118,151.688 195.474,152.176 195.213 C 152.665 194.951,153.369 194.222,153.741 193.593 C 154.112 192.964,154.764 192.339,155.188 192.204 C 155.612 192.069,156.069 191.612,156.204 191.188 C 156.339 190.764,156.962 190.113,157.590 189.742 C 158.218 189.371,158.925 188.645,159.160 188.128 C 159.396 187.611,160.037 186.984,160.586 186.733 C 161.135 186.483,161.689 185.950,161.817 185.548 C 161.944 185.145,162.578 184.504,163.224 184.122 C 163.871 183.740,164.400 183.209,164.400 182.943 C 164.400 182.676,164.895 182.088,165.500 181.636 C 166.105 181.184,166.754 180.650,166.943 180.450 C 167.391 179.975,179.975 167.391,180.450 166.943 C 180.650 166.754,181.184 166.105,181.636 165.500 C 182.088 164.895,182.676 164.400,182.943 164.400 C 183.209 164.400,183.740 163.871,184.122 163.224 C 184.504 162.578,185.145 161.944,185.548 161.817 C 185.950 161.689,186.483 161.135,186.733 160.586 C 186.984 160.037,187.611 159.396,188.128 159.160 C 188.645 158.925,189.371 158.218,189.742 157.590 C 190.113 156.962,190.764 156.339,191.188 156.204 C 191.612 156.069,192.069 155.612,192.204 155.188 C 192.339 154.764,192.964 154.112,193.593 153.741 C 194.222 153.369,194.951 152.665,195.213 152.176 C 195.474 151.688,196.118 151.058,196.644 150.776 C 197.170 150.495,197.600 150.123,197.600 149.951 C 197.600 149.542,199.542 147.600,199.951 147.600 C 200.123 147.600,200.495 147.170,200.776 146.644 C 201.058 146.118,201.688 145.474,202.176 145.213 C 202.665 144.951,203.369 144.222,203.741 143.593 C 204.112 142.964,204.764 142.339,205.188 142.204 C 205.612 142.069,206.069 141.612,206.204 141.188 C 206.339 140.764,206.962 140.113,207.590 139.742 C 208.218 139.371,208.925 138.645,209.160 138.128 C 209.396 137.611,210.037 136.984,210.586 136.733 C 211.135 136.483,211.689 135.950,211.817 135.548 C 211.944 135.145,212.578 134.504,213.224 134.122 C 213.871 133.740,214.400 133.209,214.400 132.943 C 214.400 132.676,214.895 132.088,215.500 131.636 C 216.105 131.184,216.754 130.650,216.943 130.450 C 217.391 129.975,229.844 117.522,230.393 117.000 C 230.624 116.780,231.184 116.105,231.636 115.500 C 232.088 114.895,232.676 114.400,232.943 114.400 C 233.209 114.400,233.740 113.871,234.122 113.224 C 234.504 112.578,235.145 111.944,235.548 111.817 C 235.950 111.689,236.483 111.135,236.733 110.586 C 236.984 110.037,237.611 109.396,238.128 109.160 C 238.645 108.925,239.371 108.218,239.742 107.590 C 240.113 106.962,240.764 106.339,241.188 106.204 C 241.612 106.069,242.069 105.612,242.204 105.188 C 242.339 104.764,242.964 104.112,243.593 103.741 C 244.222 103.369,244.951 102.665,245.213 102.176 C 245.474 101.688,246.118 101.058,246.644 100.776 C 247.170 100.495,247.600 100.123,247.600 99.951 C 247.600 99.542,249.542 97.600,249.951 97.600 C 250.123 97.600,250.495 97.170,250.776 96.644 C 251.058 96.118,251.688 95.474,252.176 95.213 C 252.665 94.951,253.369 94.222,253.741 93.593 C 254.112 92.964,254.764 92.339,255.188 92.204 C 255.612 92.069,256.069 91.612,256.204 91.188 C 256.339 90.764,256.962 90.113,257.590 89.742 C 258.218 89.371,258.925 88.645,259.160 88.128 C 259.396 87.611,260.037 86.984,260.586 86.733 C 261.135 86.483,261.689 85.950,261.817 85.548 C 261.944 85.145,262.578 84.504,263.224 84.122 C 263.871 83.740,264.400 83.209,264.400 82.943 C 264.400 82.676,264.895 82.088,265.500 81.636 C 266.105 81.184,266.736 80.676,266.902 80.507 C 274.968 72.301,277.542 69.423,277.740 68.383 C 277.865 67.730,278.033 66.881,278.114 66.498 C 278.195 66.114,278.652 65.622,279.131 65.405 C 279.609 65.188,280.000 64.873,280.000 64.705 C 280.000 64.537,280.360 64.400,280.800 64.400 C 281.602 64.400,281.762 64.054,281.612 62.645 C 281.567 62.230,281.740 61.761,281.995 61.603 C 282.329 61.397,282.275 61.132,281.804 60.661 C 281.444 60.301,281.261 59.825,281.398 59.603 C 281.565 59.334,272.142 59.200,253.000 59.200 C 236.239 59.200,224.445 59.349,224.574 59.558 M374.395 185.713 C 374.062 185.981,373.571 186.696,373.303 187.302 C 373.034 187.909,372.677 188.370,372.507 188.326 C 371.628 188.101,369.608 188.946,369.391 189.629 C 369.256 190.055,368.722 190.628,368.206 190.902 C 366.778 191.659,364.095 194.272,363.804 195.188 C 363.662 195.634,363.385 196.000,363.187 196.000 C 362.990 196.000,359.087 199.774,354.514 204.387 C 349.941 209.000,346.020 212.954,345.800 213.174 C 345.580 213.393,344.483 214.434,343.362 215.487 C 342.240 216.539,341.110 217.803,340.850 218.295 C 340.590 218.788,339.932 219.302,339.388 219.439 C 338.845 219.575,338.400 219.865,338.400 220.083 C 338.400 220.301,337.823 221.018,337.119 221.676 C 336.414 222.334,335.648 223.254,335.416 223.719 C 335.183 224.185,334.584 224.663,334.083 224.783 C 333.582 224.902,332.950 225.450,332.679 226.000 C 332.408 226.550,331.784 227.178,331.293 227.395 C 330.802 227.612,330.400 228.079,330.400 228.433 C 330.400 229.202,329.166 230.399,328.369 230.403 C 328.056 230.404,327.493 230.944,327.119 231.603 C 326.744 232.261,326.171 232.800,325.846 232.800 C 325.521 232.800,325.198 233.199,325.128 233.686 C 325.058 234.174,324.445 234.946,323.766 235.402 C 322.624 236.170,322.496 238.000,323.586 238.000 C 323.731 238.000,324.198 238.315,324.625 238.700 C 325.215 239.233,326.120 239.403,328.411 239.414 C 332.823 239.435,335.505 240.743,335.689 242.964 C 335.736 243.534,336.005 244.000,336.287 244.000 C 336.569 244.000,336.800 244.191,336.800 244.424 C 336.800 244.657,337.008 244.719,337.262 244.562 C 337.538 244.391,337.615 244.451,337.455 244.711 C 337.001 245.445,338.828 246.472,339.550 245.889 C 340.042 245.490,340.091 245.505,339.811 245.968 C 339.553 246.397,339.636 246.472,340.150 246.275 C 340.571 246.113,340.917 246.239,341.058 246.607 C 341.437 247.594,360.986 247.487,360.642 246.500 C 360.430 245.893,360.464 245.880,360.899 246.400 C 361.651 247.301,365.930 247.449,366.261 246.586 C 366.455 246.080,366.583 246.049,366.830 246.448 C 367.270 247.160,369.092 246.177,369.446 245.036 C 369.921 243.507,372.140 241.396,373.208 241.456 C 374.718 241.541,375.070 241.010,375.151 238.523 C 375.238 235.851,375.148 236.000,376.749 235.888 C 377.558 235.831,377.940 235.624,377.818 235.306 C 377.669 234.914,377.797 234.914,378.439 235.306 C 379.864 236.176,380.277 234.961,380.307 229.806 C 380.322 227.256,380.171 225.200,379.967 225.200 C 379.749 225.200,379.600 217.470,379.600 206.200 C 379.600 193.800,379.739 187.200,380.000 187.200 C 380.582 187.200,380.490 186.432,379.829 185.771 C 379.121 185.064,375.253 185.022,374.395 185.713 "
            stroke="none" fill="#fcd33c" fill-rule="evenodd"></path>
        <path id="path4"
            d="M285.931 58.603 C 285.819 58.714,270.858 58.849,252.684 58.903 C 216.264 59.010,218.841 58.788,218.593 61.837 C 218.502 62.951,218.176 63.974,217.833 64.226 C 217.031 64.812,216.400 66.549,216.400 68.169 C 216.400 69.253,215.993 69.872,214.100 71.666 C 212.835 72.865,211.170 74.677,210.400 75.694 C 209.630 76.711,208.597 77.648,208.105 77.778 C 207.613 77.907,206.895 78.505,206.510 79.106 C 206.125 79.708,205.587 80.434,205.314 80.720 C 205.041 81.005,204.589 81.545,204.309 81.920 C 204.029 82.294,203.315 82.850,202.722 83.156 C 202.129 83.462,200.959 84.655,200.122 85.807 C 199.285 86.960,198.060 88.207,197.400 88.580 C 196.740 88.952,195.660 89.976,195.000 90.855 C 193.498 92.856,192.856 93.498,190.855 95.000 C 189.976 95.660,188.952 96.740,188.580 97.400 C 188.207 98.060,186.960 99.285,185.807 100.122 C 184.655 100.959,183.462 102.129,183.156 102.722 C 182.850 103.315,182.294 104.029,181.920 104.309 C 181.545 104.589,181.005 105.041,180.720 105.314 C 180.434 105.587,179.719 106.118,179.130 106.495 C 178.542 106.871,177.938 107.566,177.788 108.039 C 177.496 108.958,175.404 110.954,173.536 112.094 C 172.911 112.476,172.400 113.023,172.400 113.311 C 172.400 113.940,169.290 116.985,168.291 117.334 C 167.901 117.470,167.470 117.901,167.334 118.291 C 166.985 119.290,163.940 122.400,163.311 122.400 C 163.023 122.400,162.476 122.911,162.094 123.536 C 160.954 125.404,158.958 127.496,158.039 127.788 C 157.566 127.938,156.871 128.542,156.495 129.130 C 156.118 129.719,155.587 130.434,155.314 130.720 C 155.041 131.005,154.589 131.545,154.309 131.920 C 154.029 132.294,153.315 132.850,152.722 133.156 C 152.129 133.462,150.959 134.655,150.122 135.807 C 149.285 136.960,148.060 138.207,147.400 138.580 C 146.740 138.952,145.660 139.976,145.000 140.855 C 144.340 141.734,143.497 142.756,143.127 143.127 C 142.756 143.497,141.734 144.340,140.855 145.000 C 139.976 145.660,138.952 146.740,138.580 147.400 C 138.207 148.060,136.960 149.285,135.807 150.122 C 134.655 150.959,133.462 152.129,133.156 152.722 C 132.850 153.315,132.294 154.029,131.920 154.309 C 131.545 154.589,131.005 155.041,130.720 155.314 C 130.434 155.587,129.719 156.118,129.130 156.495 C 128.542 156.871,127.938 157.566,127.788 158.039 C 127.496 158.958,125.404 160.954,123.536 162.094 C 122.911 162.476,122.400 163.023,122.400 163.311 C 122.400 163.940,119.290 166.985,118.291 167.334 C 117.901 167.470,117.470 167.901,117.334 168.291 C 116.985 169.290,113.940 172.400,113.311 172.400 C 113.023 172.400,112.476 172.911,112.094 173.536 C 110.954 175.404,108.958 177.496,108.039 177.788 C 107.566 177.938,106.871 178.542,106.495 179.130 C 106.118 179.719,105.587 180.434,105.314 180.720 C 105.041 181.005,104.589 181.545,104.309 181.920 C 104.029 182.294,103.315 182.850,102.722 183.156 C 102.129 183.462,100.959 184.655,100.122 185.807 C 99.285 186.960,98.060 188.207,97.400 188.580 C 96.740 188.952,95.660 189.976,95.000 190.855 C 93.498 192.856,92.856 193.498,90.855 195.000 C 89.976 195.660,88.952 196.740,88.580 197.400 C 88.207 198.060,86.960 199.285,85.807 200.122 C 84.655 200.959,83.462 202.129,83.156 202.722 C 82.850 203.315,82.294 204.029,81.920 204.309 C 81.545 204.589,81.005 205.041,80.720 205.314 C 80.434 205.587,79.719 206.118,79.130 206.495 C 78.542 206.871,77.938 207.566,77.788 208.039 C 77.496 208.958,75.404 210.954,73.536 212.094 C 72.911 212.476,72.400 213.023,72.400 213.311 C 72.400 213.940,69.290 216.985,68.291 217.334 C 67.901 217.470,67.470 217.901,67.334 218.291 C 66.990 219.277,63.944 222.400,63.326 222.400 C 63.047 222.400,62.502 222.895,62.114 223.500 C 61.727 224.105,60.914 225.140,60.307 225.800 C 59.700 226.460,59.203 227.115,59.202 227.257 C 59.201 227.398,58.752 227.626,58.205 227.763 C 57.658 227.900,56.893 228.505,56.505 229.106 C 55.645 230.440,54.389 231.961,53.655 232.557 C 51.037 234.685,50.145 235.914,49.667 238.055 C 49.390 239.295,48.811 240.628,48.381 241.017 C 47.454 241.856,47.221 245.995,48.100 246.006 C 48.470 246.011,48.459 246.102,48.060 246.355 C 47.695 246.586,48.128 246.788,49.396 246.979 C 51.480 247.291,51.690 247.198,51.834 245.900 C 51.888 245.405,51.966 244.910,52.005 244.800 C 52.045 244.690,52.046 243.925,52.008 243.099 C 51.955 241.958,52.114 241.544,52.669 241.370 C 55.490 240.488,55.939 240.078,56.233 238.120 C 56.519 236.211,58.639 233.633,60.436 233.008 C 60.786 232.886,61.326 232.300,61.636 231.705 C 62.254 230.518,64.286 228.592,66.064 227.506 C 66.689 227.124,67.200 226.527,67.200 226.179 C 67.200 225.421,69.831 222.850,71.107 222.362 C 71.606 222.171,72.173 221.597,72.367 221.088 C 72.820 219.895,75.509 217.200,76.246 217.200 C 76.557 217.200,77.124 216.689,77.506 216.064 C 78.621 214.238,80.635 212.106,81.506 211.830 C 81.948 211.689,82.774 210.905,83.341 210.087 C 84.964 207.745,86.134 206.514,87.000 206.241 C 87.440 206.102,88.600 204.918,89.578 203.610 C 90.556 202.302,91.816 201.040,92.378 200.806 C 92.940 200.572,94.030 199.501,94.800 198.425 C 95.570 197.350,97.142 195.780,98.293 194.935 C 99.443 194.091,100.576 192.940,100.809 192.378 C 101.042 191.816,102.302 190.556,103.610 189.578 C 104.918 188.600,106.102 187.440,106.241 187.000 C 106.514 186.134,107.745 184.964,110.087 183.341 C 110.905 182.774,111.689 181.948,111.830 181.506 C 112.106 180.635,114.238 178.621,116.064 177.506 C 116.689 177.124,117.200 176.557,117.200 176.246 C 117.200 175.509,119.895 172.820,121.088 172.367 C 121.597 172.173,122.173 171.597,122.367 171.088 C 122.820 169.895,125.509 167.200,126.246 167.200 C 126.557 167.200,127.124 166.689,127.506 166.064 C 128.621 164.238,130.635 162.106,131.506 161.830 C 131.948 161.689,132.774 160.905,133.341 160.087 C 134.964 157.745,136.134 156.514,137.000 156.241 C 137.440 156.102,138.600 154.918,139.578 153.610 C 140.556 152.302,141.816 151.042,142.378 150.809 C 142.940 150.576,144.091 149.443,144.935 148.293 C 145.780 147.142,147.350 145.570,148.425 144.800 C 149.501 144.030,150.572 142.940,150.806 142.378 C 151.040 141.816,152.302 140.556,153.610 139.578 C 154.918 138.600,156.102 137.440,156.241 137.000 C 156.514 136.134,157.745 134.964,160.087 133.341 C 160.905 132.774,161.689 131.948,161.830 131.506 C 162.106 130.635,164.238 128.621,166.064 127.506 C 166.689 127.124,167.200 126.557,167.200 126.246 C 167.200 125.509,169.895 122.820,171.088 122.367 C 171.597 122.173,172.173 121.597,172.367 121.088 C 172.820 119.895,175.509 117.200,176.246 117.200 C 176.557 117.200,177.124 116.689,177.506 116.064 C 178.621 114.238,180.635 112.106,181.506 111.830 C 181.948 111.689,182.774 110.905,183.341 110.087 C 184.964 107.745,186.134 106.514,187.000 106.241 C 187.440 106.102,188.600 104.918,189.578 103.610 C 190.556 102.302,191.816 101.042,192.378 100.809 C 192.940 100.576,194.091 99.443,194.935 98.293 C 195.780 97.142,197.350 95.570,198.425 94.800 C 199.501 94.030,200.572 92.940,200.806 92.378 C 201.040 91.816,202.302 90.556,203.610 89.578 C 204.918 88.600,206.102 87.440,206.241 87.000 C 206.514 86.134,207.745 84.964,210.087 83.341 C 210.905 82.774,211.688 81.952,211.827 81.514 C 212.149 80.499,214.217 78.610,215.900 77.793 C 216.615 77.446,217.200 76.902,217.200 76.585 C 217.200 75.911,219.345 73.013,221.148 71.250 C 221.918 70.498,222.490 69.463,222.633 68.563 C 223.047 65.957,223.163 65.527,223.591 65.011 C 223.822 64.732,223.958 63.560,223.891 62.407 C 223.809 60.977,223.933 60.247,224.283 60.113 C 224.565 60.005,224.696 59.755,224.574 59.558 C 224.445 59.349,236.239 59.200,253.000 59.200 C 272.142 59.200,281.565 59.334,281.398 59.603 C 281.261 59.825,281.444 60.301,281.804 60.661 C 282.275 61.132,282.329 61.397,281.995 61.603 C 281.740 61.761,281.567 62.230,281.612 62.645 C 281.762 64.054,281.602 64.400,280.800 64.400 C 280.360 64.400,280.000 64.537,280.000 64.705 C 280.000 64.873,279.609 65.188,279.131 65.405 C 278.652 65.622,278.201 66.070,278.128 66.400 C 278.055 66.730,277.887 67.579,277.754 68.286 C 277.537 69.444,275.295 71.969,266.902 80.507 C 266.736 80.676,266.105 81.184,265.500 81.636 C 264.895 82.088,264.400 82.676,264.400 82.943 C 264.400 83.209,263.871 83.740,263.224 84.122 C 262.578 84.504,261.944 85.145,261.817 85.548 C 261.689 85.950,261.135 86.483,260.586 86.733 C 260.037 86.984,259.396 87.611,259.160 88.128 C 258.925 88.645,258.218 89.371,257.590 89.742 C 256.962 90.113,256.339 90.764,256.204 91.188 C 256.069 91.612,255.612 92.069,255.188 92.204 C 254.764 92.339,254.112 92.964,253.741 93.593 C 253.369 94.222,252.665 94.951,252.176 95.213 C 251.688 95.474,251.058 96.118,250.776 96.644 C 250.495 97.170,250.123 97.600,249.951 97.600 C 249.542 97.600,247.600 99.542,247.600 99.951 C 247.600 100.123,247.170 100.495,246.644 100.776 C 246.118 101.058,245.474 101.688,245.213 102.176 C 244.951 102.665,244.222 103.369,243.593 103.741 C 242.964 104.112,242.339 104.764,242.204 105.188 C 242.069 105.612,241.612 106.069,241.188 106.204 C 240.764 106.339,240.113 106.962,239.742 107.590 C 239.371 108.218,238.645 108.925,238.128 109.160 C 237.611 109.396,236.984 110.037,236.733 110.586 C 236.483 111.135,235.950 111.689,235.548 111.817 C 235.145 111.944,234.504 112.578,234.122 113.224 C 233.740 113.871,233.209 114.400,232.943 114.400 C 232.676 114.400,232.088 114.895,231.636 115.500 C 231.184 116.105,230.650 116.754,230.450 116.943 C 229.975 117.391,217.522 129.844,217.000 130.393 C 216.780 130.624,216.105 131.184,215.500 131.636 C 214.895 132.088,214.400 132.676,214.400 132.943 C 214.400 133.209,213.871 133.740,213.224 134.122 C 212.578 134.504,211.944 135.145,211.817 135.548 C 211.689 135.950,211.135 136.483,210.586 136.733 C 210.037 136.984,209.396 137.611,209.160 138.128 C 208.925 138.645,208.218 139.371,207.590 139.742 C 206.962 140.113,206.339 140.764,206.204 141.188 C 206.069 141.612,205.612 142.069,205.188 142.204 C 204.764 142.339,204.112 142.964,203.741 143.593 C 203.369 144.222,202.665 144.951,202.176 145.213 C 201.688 145.474,201.058 146.118,200.776 146.644 C 200.495 147.170,200.123 147.600,199.951 147.600 C 199.778 147.600,199.178 148.058,198.618 148.618 C 198.058 149.178,197.600 149.778,197.600 149.951 C 197.600 150.123,197.170 150.495,196.644 150.776 C 196.118 151.058,195.474 151.688,195.213 152.176 C 194.951 152.665,194.222 153.369,193.593 153.741 C 192.964 154.112,192.339 154.764,192.204 155.188 C 192.069 155.612,191.612 156.069,191.188 156.204 C 190.764 156.339,190.113 156.962,189.742 157.590 C 189.371 158.218,188.645 158.925,188.128 159.160 C 187.611 159.396,186.984 160.037,186.733 160.586 C 186.483 161.135,185.950 161.689,185.548 161.817 C 185.145 161.944,184.504 162.578,184.122 163.224 C 183.740 163.871,183.209 164.400,182.943 164.400 C 182.676 164.400,182.088 164.895,181.636 165.500 C 181.184 166.105,180.676 166.729,180.507 166.886 C 180.106 167.260,167.522 179.844,167.000 180.393 C 166.780 180.624,166.105 181.184,165.500 181.636 C 164.895 182.088,164.400 182.676,164.400 182.943 C 164.400 183.209,163.871 183.740,163.224 184.122 C 162.578 184.504,161.944 185.145,161.817 185.548 C 161.689 185.950,161.135 186.483,160.586 186.733 C 160.037 186.984,159.396 187.611,159.160 188.128 C 158.925 188.645,158.218 189.371,157.590 189.742 C 156.962 190.113,156.339 190.764,156.204 191.188 C 156.069 191.612,155.612 192.069,155.188 192.204 C 154.764 192.339,154.112 192.964,153.741 193.593 C 153.369 194.222,152.665 194.951,152.176 195.213 C 151.688 195.474,151.058 196.118,150.776 196.644 C 150.495 197.170,150.123 197.600,149.951 197.600 C 149.778 197.600,149.178 198.058,148.618 198.618 C 148.058 199.178,147.600 199.778,147.600 199.951 C 147.600 200.123,147.170 200.495,146.644 200.776 C 146.118 201.058,145.474 201.688,145.213 202.176 C 144.951 202.665,144.222 203.369,143.593 203.741 C 142.964 204.112,142.339 204.764,142.204 205.188 C 142.069 205.612,141.612 206.069,141.188 206.204 C 140.764 206.339,140.113 206.962,139.742 207.590 C 139.371 208.218,138.645 208.925,138.128 209.160 C 137.611 209.396,136.984 210.037,136.733 210.586 C 136.483 211.135,135.950 211.689,135.548 211.817 C 135.145 211.944,134.504 212.578,134.122 213.224 C 133.740 213.871,133.209 214.400,132.943 214.400 C 132.676 214.400,132.088 214.895,131.636 215.500 C 131.184 216.105,130.650 216.754,130.450 216.943 C 130.011 217.357,117.739 229.619,115.781 231.600 C 115.020 232.370,114.398 233.281,114.399 233.625 C 114.399 233.968,113.860 234.649,113.200 235.137 C 112.540 235.625,112.000 236.244,112.000 236.512 C 112.000 236.780,111.467 238.125,110.817 239.500 C 110.166 240.875,109.697 242.000,109.775 242.000 C 109.852 242.000,109.773 242.631,109.600 243.402 C 109.426 244.173,109.437 244.899,109.624 245.015 C 109.812 245.131,109.885 245.445,109.787 245.713 C 109.346 246.917,110.258 247.308,112.855 247.030 L 115.400 246.757 115.510 244.293 C 115.589 242.528,115.837 241.599,116.386 241.015 C 116.807 240.567,117.351 239.313,117.594 238.229 C 118.001 236.411,120.969 232.842,122.100 232.809 C 122.265 232.804,122.400 232.551,122.400 232.247 C 122.400 231.589,125.908 228.088,126.880 227.777 C 127.253 227.657,127.665 227.225,127.795 226.817 C 128.089 225.890,131.543 222.400,132.166 222.400 C 132.420 222.400,132.928 221.905,133.295 221.300 C 134.273 219.689,136.678 217.203,137.280 217.182 C 137.566 217.172,138.675 216.002,139.744 214.582 C 140.814 213.162,141.926 212.000,142.216 212.000 C 142.951 212.000,143.325 211.601,146.426 207.500 C 146.884 206.895,147.480 206.400,147.751 206.400 C 148.360 206.400,150.730 203.993,151.355 202.740 C 151.608 202.232,152.232 201.608,152.740 201.355 C 153.993 200.730,156.400 198.360,156.400 197.751 C 156.400 197.480,156.895 196.884,157.500 196.426 C 161.601 193.325,162.000 192.951,162.000 192.216 C 162.000 191.926,163.162 190.814,164.582 189.744 C 166.002 188.675,167.172 187.566,167.182 187.280 C 167.202 186.692,169.674 184.283,171.219 183.343 C 171.780 183.002,172.464 182.245,172.740 181.661 C 173.015 181.078,174.042 179.970,175.022 179.200 C 177.227 177.466,177.466 177.227,179.200 175.022 C 179.970 174.042,181.078 173.015,181.661 172.740 C 182.245 172.464,183.002 171.780,183.343 171.219 C 184.283 169.674,186.692 167.202,187.280 167.182 C 187.566 167.172,188.675 166.002,189.744 164.582 C 190.814 163.162,191.926 162.000,192.216 162.000 C 192.951 162.000,193.325 161.601,196.426 157.500 C 196.884 156.895,197.480 156.400,197.751 156.400 C 198.360 156.400,200.730 153.993,201.355 152.740 C 201.608 152.232,202.232 151.608,202.740 151.355 C 203.993 150.730,206.400 148.360,206.400 147.751 C 206.400 147.480,206.895 146.884,207.500 146.426 C 211.601 143.325,212.000 142.951,212.000 142.216 C 212.000 141.926,213.162 140.814,214.582 139.744 C 216.002 138.675,217.172 137.566,217.182 137.280 C 217.202 136.692,219.674 134.283,221.219 133.343 C 221.780 133.002,222.464 132.245,222.740 131.661 C 223.015 131.078,224.042 129.970,225.022 129.200 C 227.227 127.466,227.466 127.227,229.200 125.022 C 229.970 124.042,231.078 123.015,231.661 122.740 C 232.245 122.464,233.002 121.780,233.343 121.219 C 234.283 119.674,236.692 117.202,237.280 117.182 C 237.566 117.172,238.675 116.002,239.744 114.582 C 240.814 113.162,241.926 112.000,242.216 112.000 C 242.951 112.000,243.325 111.601,246.426 107.500 C 246.884 106.895,247.480 106.400,247.751 106.400 C 248.360 106.400,250.730 103.993,251.355 102.740 C 251.608 102.232,252.232 101.608,252.740 101.355 C 253.993 100.730,256.400 98.360,256.400 97.751 C 256.400 97.480,256.895 96.884,257.500 96.426 C 261.601 93.325,262.000 92.951,262.000 92.216 C 262.000 91.926,263.162 90.814,264.582 89.744 C 266.002 88.675,267.172 87.566,267.182 87.280 C 267.202 86.692,269.674 84.283,271.219 83.343 C 271.780 83.002,272.464 82.245,272.740 81.661 C 273.015 81.078,274.042 79.970,275.022 79.200 C 277.479 77.268,277.595 77.153,279.395 74.842 C 280.272 73.715,281.293 72.697,281.665 72.579 C 282.661 72.263,283.847 70.017,284.176 67.821 C 284.572 65.177,284.736 64.854,286.009 64.196 C 287.195 63.582,287.186 61.629,285.991 60.189 C 285.605 59.725,285.607 59.473,286.000 59.000 C 286.457 58.450,286.401 58.132,285.931 58.603 M133.400 59.193 C 141.980 59.307,148.730 59.521,148.400 59.670 C 147.981 59.858,147.934 60.039,148.244 60.270 C 148.956 60.800,148.792 64.030,148.038 64.307 C 147.687 64.436,147.310 64.645,147.200 64.771 C 147.090 64.897,146.640 65.200,146.200 65.444 C 145.760 65.688,145.390 66.048,145.377 66.244 C 145.283 67.740,144.538 69.401,143.411 70.629 C 141.445 72.772,140.967 73.387,140.675 74.150 C 140.529 74.528,139.913 75.019,139.305 75.240 C 138.697 75.461,137.390 76.705,136.400 78.004 C 135.410 79.304,134.466 80.375,134.301 80.384 C 133.784 80.412,130.845 83.231,130.603 83.931 C 130.476 84.299,129.300 85.410,127.991 86.400 C 126.681 87.390,125.505 88.575,125.378 89.033 C 125.251 89.492,124.001 90.752,122.601 91.833 C 121.201 92.915,119.873 94.295,119.649 94.900 C 119.425 95.505,118.962 96.000,118.621 96.000 C 118.279 96.000,118.000 96.184,118.000 96.408 C 118.000 96.633,117.190 97.387,116.200 98.085 C 115.183 98.802,114.400 99.673,114.400 100.087 C 114.400 100.494,113.970 100.983,113.434 101.187 C 112.903 101.389,112.357 101.905,112.221 102.334 C 112.085 102.763,111.420 103.343,110.743 103.624 C 110.025 103.921,109.355 104.583,109.136 105.212 C 108.929 105.805,108.335 106.484,107.815 106.720 C 107.295 106.957,106.756 107.507,106.618 107.942 C 106.480 108.377,105.865 108.908,105.250 109.122 C 104.583 109.355,103.928 110.008,103.624 110.743 C 103.343 111.420,102.763 112.085,102.334 112.221 C 101.905 112.357,101.389 112.903,101.187 113.434 C 100.983 113.970,100.494 114.400,100.087 114.400 C 99.673 114.400,98.802 115.183,98.085 116.200 C 97.387 117.190,96.633 118.000,96.408 118.000 C 96.184 118.000,96.000 118.279,96.000 118.621 C 96.000 118.962,95.505 119.425,94.900 119.649 C 94.295 119.873,92.915 121.201,91.833 122.601 C 90.752 124.001,89.492 125.251,89.033 125.378 C 88.575 125.505,87.390 126.680,86.400 127.988 C 85.410 129.297,84.466 130.375,84.301 130.384 C 83.784 130.412,80.845 133.231,80.603 133.931 C 80.476 134.299,79.300 135.410,77.991 136.400 C 76.681 137.390,75.505 138.575,75.378 139.033 C 75.251 139.492,74.001 140.752,72.601 141.833 C 71.201 142.915,69.873 144.295,69.649 144.900 C 69.425 145.505,68.962 146.000,68.621 146.000 C 68.279 146.000,68.000 146.184,68.000 146.408 C 68.000 146.633,67.190 147.387,66.200 148.085 C 65.183 148.802,64.400 149.673,64.400 150.087 C 64.400 150.494,63.970 150.983,63.434 151.187 C 62.903 151.389,62.361 151.892,62.230 152.305 C 62.099 152.718,61.364 153.355,60.596 153.721 C 59.828 154.088,59.200 154.636,59.200 154.941 C 59.200 155.655,55.665 159.200,54.953 159.200 C 54.655 159.200,54.164 159.790,53.863 160.512 C 53.170 162.169,51.129 164.231,49.867 164.547 C 49.302 164.689,48.697 165.284,48.408 165.980 C 47.795 167.460,45.938 169.439,44.832 169.790 C 44.080 170.029,42.000 172.325,42.000 172.917 C 42.000 173.428,40.158 175.102,39.300 175.371 C 38.386 175.658,37.001 177.311,36.018 179.289 C 35.710 179.909,34.927 180.560,34.204 180.799 C 32.874 181.238,31.092 182.903,30.671 184.100 C 30.536 184.486,30.015 184.804,29.513 184.809 C 29.011 184.814,28.150 185.170,27.600 185.600 C 27.050 186.030,26.440 186.386,26.244 186.391 C 26.048 186.396,25.669 186.700,25.400 187.068 C 25.042 187.557,24.310 187.732,22.656 187.725 C 20.696 187.716,20.400 187.815,20.400 188.481 C 20.400 188.902,20.220 189.136,20.000 189.000 C 19.555 188.725,19.467 190.434,19.831 192.257 C 20.221 194.204,24.439 194.220,26.038 192.281 C 26.950 191.174,27.548 190.857,29.116 190.649 C 31.025 190.396,31.260 190.195,41.131 180.421 C 46.669 174.937,51.211 170.304,51.224 170.125 C 51.237 169.946,52.407 168.835,53.824 167.656 C 55.241 166.476,56.409 165.306,56.421 165.056 C 56.433 164.805,57.527 163.706,58.852 162.614 C 60.178 161.521,61.744 159.915,62.332 159.044 C 62.919 158.173,64.164 156.907,65.098 156.230 C 66.032 155.554,67.320 154.260,67.960 153.356 C 68.600 152.452,69.746 151.328,70.506 150.858 C 71.267 150.388,72.392 149.278,73.006 148.391 C 73.621 147.504,74.811 146.273,75.651 145.655 C 76.491 145.037,77.890 143.647,78.760 142.566 C 79.631 141.485,80.851 140.266,81.471 139.857 C 82.092 139.449,83.230 138.320,84.000 137.347 C 84.770 136.375,86.235 134.909,87.256 134.090 C 88.277 133.270,89.447 132.092,89.856 131.471 C 90.265 130.851,91.485 129.631,92.566 128.760 C 93.647 127.890,95.037 126.491,95.655 125.651 C 96.273 124.811,97.489 123.632,98.357 123.030 C 99.226 122.428,100.395 121.242,100.955 120.396 C 101.516 119.549,102.769 118.310,103.740 117.642 C 104.711 116.973,105.876 115.798,106.330 115.029 C 106.783 114.260,108.020 113.009,109.077 112.249 C 110.135 111.489,111.586 110.036,112.302 109.019 C 113.018 108.002,114.239 106.796,115.016 106.338 C 115.792 105.880,116.973 104.711,117.642 103.740 C 118.310 102.769,119.549 101.516,120.396 100.955 C 121.242 100.395,122.428 99.226,123.030 98.357 C 123.632 97.489,124.811 96.273,125.651 95.655 C 126.491 95.037,127.890 93.647,128.760 92.566 C 129.631 91.485,130.851 90.265,131.471 89.856 C 132.092 89.447,133.270 88.277,134.090 87.256 C 134.909 86.235,136.375 84.770,137.347 84.000 C 138.320 83.230,139.449 82.092,139.857 81.471 C 140.266 80.851,141.450 79.659,142.488 78.823 C 143.526 77.987,145.096 76.391,145.976 75.278 C 146.857 74.164,147.837 73.106,148.155 72.926 C 149.716 72.044,151.200 69.482,151.213 67.645 C 151.227 65.620,151.796 64.574,153.010 64.343 C 153.986 64.156,154.233 62.755,153.638 60.770 C 153.042 58.781,153.164 58.793,134.000 58.897 L 117.800 58.986 133.400 59.193 M353.029 59.147 C 351.718 59.430,351.138 60.766,351.455 62.774 C 351.593 63.652,351.443 64.056,350.862 64.367 C 349.971 64.844,349.200 66.767,349.200 68.515 C 349.200 69.450,348.690 70.200,346.864 71.955 C 345.579 73.190,344.031 74.886,343.424 75.725 C 342.818 76.564,341.909 77.407,341.405 77.598 C 340.900 77.790,339.647 79.039,338.620 80.373 C 337.593 81.708,336.563 82.800,336.330 82.800 C 335.786 82.800,332.800 85.774,332.800 86.316 C 332.800 86.542,331.630 87.646,330.200 88.770 C 328.770 89.894,327.600 91.077,327.600 91.400 C 327.600 91.723,326.439 92.899,325.020 94.014 C 323.602 95.129,322.331 96.388,322.196 96.813 C 322.061 97.238,320.910 98.404,319.637 99.403 C 318.365 100.403,317.092 101.654,316.809 102.184 C 316.525 102.714,315.555 103.744,314.653 104.474 C 313.752 105.203,312.561 106.308,312.007 106.929 C 311.453 107.549,310.338 108.719,309.529 109.529 C 308.719 110.338,307.549 111.453,306.929 112.007 C 306.308 112.561,305.203 113.752,304.474 114.653 C 303.744 115.555,302.714 116.525,302.184 116.809 C 301.654 117.092,300.403 118.365,299.403 119.637 C 298.404 120.910,297.238 122.061,296.813 122.196 C 296.388 122.331,295.129 123.602,294.014 125.020 C 292.899 126.439,291.723 127.600,291.400 127.600 C 291.077 127.600,289.894 128.770,288.770 130.200 C 287.646 131.630,286.542 132.800,286.316 132.800 C 285.782 132.800,282.800 135.782,282.800 136.316 C 282.800 136.542,281.630 137.646,280.200 138.770 C 278.770 139.894,277.600 141.077,277.600 141.400 C 277.600 141.723,276.439 142.899,275.020 144.014 C 273.602 145.129,272.331 146.388,272.196 146.813 C 272.061 147.238,270.910 148.404,269.637 149.403 C 268.365 150.403,267.092 151.654,266.809 152.184 C 266.525 152.714,265.555 153.744,264.653 154.474 C 263.752 155.203,262.561 156.308,262.007 156.929 C 260.818 158.261,258.512 160.582,256.929 162.038 C 256.308 162.610,255.059 163.870,254.152 164.838 C 253.246 165.807,251.986 167.060,251.352 167.623 C 250.719 168.185,249.443 169.445,248.517 170.423 C 247.592 171.400,246.332 172.670,245.717 173.245 C 245.103 173.820,243.932 174.990,243.117 175.845 C 242.301 176.700,240.819 178.120,239.825 179.000 C 238.830 179.880,238.012 180.823,238.008 181.095 C 238.004 181.367,237.325 182.022,236.500 182.550 C 234.873 183.591,233.339 185.166,232.264 186.900 C 231.888 187.505,231.339 188.000,231.042 188.000 C 230.745 188.000,229.804 188.795,228.951 189.766 C 226.254 192.836,225.327 193.774,224.014 194.757 C 223.311 195.283,222.276 196.408,221.715 197.257 C 221.153 198.106,220.492 198.800,220.245 198.800 C 219.998 198.800,218.845 199.835,217.683 201.100 C 216.521 202.365,215.414 203.553,215.224 203.739 C 214.773 204.182,204.182 214.773,203.739 215.224 C 203.553 215.414,202.365 216.521,201.100 217.683 C 199.835 218.845,198.800 220.016,198.800 220.284 C 198.800 220.552,198.414 220.978,197.942 221.231 C 196.589 221.955,193.600 224.847,193.600 225.432 C 193.600 225.723,192.835 226.491,191.900 227.138 C 189.937 228.497,188.484 229.979,187.833 231.285 C 187.582 231.788,186.922 232.418,186.367 232.684 C 184.873 233.401,182.800 235.846,182.800 236.892 C 182.800 238.580,182.048 240.447,181.054 241.229 C 180.173 241.922,180.083 242.248,180.216 244.252 C 180.397 246.966,180.155 246.717,182.920 247.042 L 185.200 247.310 185.232 245.955 C 185.343 241.345,185.309 241.453,186.854 240.723 C 188.278 240.051,189.200 238.496,189.200 236.767 C 189.200 236.375,189.521 235.952,189.913 235.827 C 190.306 235.703,190.940 235.072,191.322 234.425 C 191.704 233.778,192.328 233.149,192.708 233.027 C 193.089 232.905,193.760 232.264,194.200 231.603 C 194.640 230.943,195.180 230.401,195.400 230.400 C 195.620 230.399,196.160 229.857,196.600 229.197 C 197.040 228.536,197.710 227.896,198.090 227.774 C 198.469 227.652,199.142 227.043,199.585 226.421 C 200.365 225.326,203.147 222.400,203.408 222.400 C 203.730 222.400,222.400 203.495,222.400 203.168 C 222.400 202.966,222.535 202.800,222.700 202.799 C 223.124 202.799,228.000 198.139,228.001 197.734 C 228.002 197.550,228.541 197.040,229.200 196.600 C 229.859 196.160,230.398 195.614,230.399 195.386 C 230.399 195.159,230.903 194.675,231.519 194.312 C 232.134 193.948,232.874 193.209,233.163 192.669 C 233.452 192.130,234.115 191.459,234.637 191.180 C 235.160 190.901,235.679 190.380,235.793 190.023 C 235.906 189.665,236.503 189.076,237.118 188.712 C 237.734 188.348,238.483 187.592,238.783 187.032 C 239.083 186.472,239.630 185.917,240.000 185.800 C 240.370 185.683,240.911 185.140,241.204 184.593 C 241.496 184.047,241.941 183.600,242.193 183.600 C 242.787 183.600,244.800 181.499,244.800 180.878 C 244.800 180.615,245.012 180.400,245.272 180.400 C 245.531 180.400,246.336 179.815,247.061 179.100 C 247.786 178.385,248.788 177.423,249.289 176.962 C 249.790 176.502,250.830 175.370,251.600 174.448 C 252.370 173.527,253.405 172.603,253.900 172.396 C 254.395 172.189,255.115 171.517,255.500 170.903 C 255.885 170.288,256.892 169.159,257.738 168.393 C 258.583 167.627,259.843 166.412,260.538 165.694 C 261.232 164.975,262.500 163.715,263.356 162.894 C 265.244 161.081,266.554 159.737,268.393 157.724 C 269.159 156.886,270.288 155.885,270.903 155.500 C 271.517 155.115,272.189 154.395,272.396 153.900 C 272.603 153.405,273.527 152.370,274.448 151.600 C 275.370 150.830,276.502 149.798,276.962 149.306 C 277.423 148.814,278.700 147.517,279.800 146.425 C 280.900 145.332,282.138 144.092,282.551 143.670 C 285.678 140.471,290.471 135.678,293.670 132.551 C 294.092 132.138,295.332 130.900,296.425 129.800 C 297.517 128.700,298.814 127.423,299.306 126.962 C 299.798 126.502,300.830 125.370,301.600 124.448 C 302.370 123.527,303.405 122.603,303.900 122.396 C 304.395 122.189,305.115 121.517,305.500 120.903 C 305.885 120.288,306.892 119.159,307.738 118.393 C 308.583 117.627,309.843 116.412,310.538 115.694 C 311.232 114.975,312.500 113.715,313.356 112.894 C 315.244 111.081,316.554 109.737,318.393 107.724 C 319.159 106.886,320.288 105.885,320.903 105.500 C 321.517 105.115,322.189 104.395,322.396 103.900 C 322.603 103.405,323.527 102.370,324.448 101.600 C 325.370 100.830,326.502 99.798,326.962 99.306 C 327.423 98.814,328.700 97.517,329.800 96.425 C 330.900 95.332,332.138 94.092,332.551 93.670 C 335.730 90.418,339.417 86.730,343.918 82.303 C 344.422 81.806,345.435 80.760,346.169 79.978 C 346.902 79.196,347.967 78.251,348.535 77.879 C 349.558 77.209,352.800 72.792,352.800 72.069 C 352.800 71.862,353.165 71.598,353.611 71.481 C 354.058 71.364,354.390 71.118,354.349 70.934 C 354.309 70.751,354.665 69.761,355.140 68.736 C 355.616 67.711,356.120 66.300,356.260 65.602 C 356.399 64.903,356.719 64.253,356.970 64.156 C 357.443 63.975,357.530 62.196,357.087 61.754 C 356.948 61.615,357.298 60.893,357.865 60.151 L 358.895 58.800 356.547 58.847 C 355.256 58.873,353.673 59.008,353.029 59.147 M363.200 58.957 C 363.200 59.346,364.327 59.492,364.836 59.169 C 365.247 58.909,365.101 58.811,364.300 58.806 C 363.695 58.803,363.200 58.871,363.200 58.957 M112.913 60.300 C 112.505 60.905,111.910 61.918,111.590 62.552 C 111.271 63.186,110.647 63.836,110.205 63.997 C 109.762 64.158,108.770 64.512,108.000 64.784 C 107.230 65.055,105.700 65.605,104.600 66.006 C 102.983 66.595,101.031 66.766,94.399 66.900 C 88.729 67.015,85.899 67.226,85.229 67.585 C 83.882 68.305,78.965 73.354,77.777 75.236 C 77.237 76.092,76.076 77.268,75.196 77.850 C 74.317 78.432,72.968 79.784,72.199 80.854 C 71.430 81.924,70.576 82.808,70.301 82.818 C 70.025 82.828,69.080 83.657,68.200 84.660 C 67.320 85.663,65.885 87.140,65.012 87.942 C 64.138 88.744,62.878 90.020,62.212 90.778 C 61.545 91.537,60.285 92.797,59.412 93.578 C 58.538 94.360,57.278 95.614,56.612 96.366 C 55.945 97.117,54.680 98.414,53.800 99.250 C 51.596 101.341,51.427 101.509,49.028 104.000 C 47.862 105.210,46.709 106.380,46.465 106.600 C 46.220 106.820,43.631 109.384,40.710 112.297 C 37.790 115.211,35.040 117.939,34.600 118.360 C 34.160 118.780,33.128 119.861,32.306 120.762 C 31.085 122.101,30.549 122.400,29.368 122.400 C 27.798 122.400,25.784 123.589,25.422 124.729 C 25.237 125.313,24.746 125.434,22.629 125.419 L 20.061 125.400 19.805 127.104 C 19.387 129.896,22.658 131.099,26.598 129.601 C 27.172 129.383,28.375 129.112,29.272 128.999 C 31.596 128.707,32.908 127.972,33.558 126.596 C 33.870 125.938,34.261 125.345,34.427 125.278 C 34.594 125.211,35.205 124.716,35.786 124.178 C 36.366 123.640,37.102 123.200,37.421 123.200 C 37.739 123.200,38.000 123.020,38.000 122.800 C 38.000 122.580,38.225 122.394,38.500 122.387 C 38.775 122.379,39.540 121.435,40.200 120.288 C 41.038 118.832,41.860 117.987,42.928 117.485 C 43.768 117.090,44.758 116.212,45.128 115.533 C 46.234 113.502,47.625 112.000,48.400 112.000 C 49.179 112.000,51.200 109.867,51.200 109.044 C 51.200 108.387,53.120 106.670,54.521 106.075 C 55.172 105.798,55.878 105.032,56.206 104.247 C 56.797 102.833,58.234 101.472,60.357 100.315 C 61.150 99.882,61.698 99.218,61.840 98.515 C 62.059 97.436,63.238 96.347,65.862 94.801 C 66.671 94.325,67.220 93.617,67.394 92.829 C 67.542 92.153,67.795 91.600,67.956 91.600 C 68.117 91.600,68.615 91.259,69.062 90.843 C 69.509 90.426,70.431 89.798,71.110 89.446 C 71.862 89.058,72.539 88.271,72.841 87.437 C 73.114 86.683,73.756 85.875,74.268 85.642 C 74.781 85.408,75.200 85.055,75.200 84.857 C 75.200 84.659,75.735 84.276,76.388 84.005 C 77.124 83.700,77.846 82.932,78.288 81.985 C 78.680 81.144,79.315 80.370,79.700 80.265 C 80.085 80.161,80.405 79.833,80.410 79.537 C 80.416 79.242,81.116 78.680,81.967 78.288 C 82.936 77.842,83.697 77.132,84.005 76.388 C 84.276 75.735,84.645 75.200,84.827 75.200 C 85.008 75.200,85.391 74.719,85.678 74.131 C 85.974 73.526,86.758 72.876,87.488 72.631 C 88.820 72.186,89.716 71.512,90.869 70.089 C 91.489 69.324,91.980 69.262,97.669 69.230 C 104.143 69.195,106.413 68.875,107.561 67.836 C 107.947 67.486,108.476 67.200,108.737 67.200 C 109.979 67.200,113.200 64.405,113.200 63.328 C 113.200 63.038,113.232 62.665,113.272 62.500 C 113.540 61.383,113.872 59.200,113.774 59.200 C 113.708 59.200,113.321 59.695,112.913 60.300 M379.531 96.967 L 379.400 109.335 377.200 109.400 C 373.350 109.515,367.200 112.128,367.200 113.649 C 367.200 114.124,366.917 114.400,366.429 114.400 C 366.005 114.400,365.310 114.842,364.885 115.383 C 364.459 115.924,363.636 116.583,363.056 116.847 C 362.475 117.112,362.000 117.458,362.000 117.616 C 362.000 117.774,361.280 118.645,360.400 119.552 C 359.520 120.459,358.800 121.377,358.800 121.593 C 358.800 121.808,358.353 122.097,357.807 122.234 C 357.261 122.371,356.436 123.095,355.974 123.842 C 355.513 124.589,354.980 125.200,354.790 125.200 C 354.600 125.200,354.126 125.740,353.736 126.400 C 353.346 127.060,352.731 127.600,352.368 127.600 C 352.006 127.600,351.234 128.275,350.653 129.100 C 350.072 129.925,348.973 131.140,348.211 131.800 C 347.448 132.460,346.234 133.619,345.512 134.376 C 343.814 136.156,336.156 143.814,334.376 145.512 C 333.619 146.234,332.460 147.448,331.800 148.211 C 331.140 148.973,329.925 150.072,329.100 150.653 C 328.275 151.234,327.600 152.006,327.600 152.368 C 327.600 152.731,327.060 153.346,326.400 153.736 C 325.740 154.126,325.200 154.600,325.200 154.790 C 325.200 154.980,324.589 155.513,323.842 155.974 C 323.095 156.436,322.371 157.261,322.234 157.807 C 322.097 158.353,321.808 158.800,321.593 158.800 C 321.377 158.800,320.459 159.520,319.552 160.400 C 318.645 161.280,317.767 162.000,317.600 162.000 C 317.434 162.000,317.080 162.523,316.816 163.162 C 316.551 163.801,315.976 164.418,315.538 164.532 C 315.099 164.647,314.647 165.099,314.532 165.538 C 314.418 165.976,313.801 166.551,313.162 166.816 C 312.523 167.080,312.000 167.434,312.000 167.600 C 312.000 167.767,311.280 168.645,310.400 169.552 C 309.520 170.459,308.800 171.377,308.800 171.593 C 308.800 171.808,308.353 172.097,307.807 172.234 C 307.261 172.371,306.436 173.095,305.974 173.842 C 305.513 174.589,304.980 175.200,304.790 175.200 C 304.600 175.200,304.126 175.740,303.736 176.400 C 303.346 177.060,302.731 177.600,302.368 177.600 C 302.006 177.600,301.234 178.275,300.653 179.100 C 300.072 179.925,298.973 181.140,298.211 181.800 C 297.448 182.460,296.234 183.619,295.512 184.376 C 293.814 186.156,286.156 193.814,284.376 195.512 C 283.619 196.234,282.460 197.448,281.800 198.211 C 281.140 198.973,279.925 200.072,279.100 200.653 C 278.275 201.234,277.600 202.006,277.600 202.368 C 277.600 202.731,277.060 203.346,276.400 203.736 C 275.740 204.126,275.200 204.600,275.200 204.790 C 275.200 204.980,274.589 205.513,273.842 205.974 C 273.095 206.436,272.371 207.261,272.234 207.807 C 272.097 208.353,271.808 208.800,271.593 208.800 C 271.377 208.800,270.459 209.520,269.552 210.400 C 268.645 211.280,267.767 212.000,267.600 212.000 C 267.434 212.000,267.080 212.523,266.816 213.162 C 266.551 213.801,265.976 214.418,265.538 214.532 C 265.099 214.647,264.647 215.099,264.532 215.538 C 264.418 215.976,263.801 216.551,263.162 216.816 C 262.523 217.080,262.000 217.434,262.000 217.600 C 262.000 217.767,261.280 218.645,260.400 219.552 C 259.520 220.459,258.800 221.377,258.800 221.593 C 258.800 221.808,258.353 222.097,257.807 222.234 C 257.261 222.371,256.436 223.095,255.974 223.842 C 255.513 224.589,254.980 225.200,254.790 225.200 C 254.600 225.200,254.126 225.740,253.736 226.400 C 253.346 227.060,252.741 227.600,252.391 227.600 C 252.041 227.600,250.880 228.790,249.812 230.245 C 248.744 231.699,247.622 233.094,247.319 233.345 C 244.610 235.579,243.160 238.819,243.043 242.900 C 243.019 243.725,242.854 244.400,242.676 244.400 C 242.498 244.400,242.490 244.622,242.657 244.893 C 242.825 245.164,242.986 245.704,243.014 246.093 C 243.096 247.204,243.400 247.302,245.875 247.014 L 248.200 246.744 248.310 244.283 C 248.397 242.349,248.622 241.606,249.362 240.811 C 249.879 240.255,250.520 238.864,250.787 237.719 C 251.189 235.991,251.586 235.383,253.135 234.130 C 254.161 233.300,255.264 232.257,255.587 231.811 C 256.600 230.412,364.721 122.400,365.108 122.400 C 365.578 122.400,366.799 121.056,367.370 119.909 C 368.033 118.580,370.335 117.200,371.890 117.200 C 372.881 117.200,373.595 116.867,374.462 116.000 C 375.428 115.033,376.001 114.800,377.407 114.800 C 378.367 114.800,379.266 114.617,379.404 114.393 C 379.542 114.170,379.816 114.087,380.013 114.208 C 380.475 114.494,380.467 86.479,380.005 85.400 C 379.802 84.925,379.609 89.624,379.531 96.967 M374.767 180.463 C 374.269 181.392,372.612 182.250,370.586 182.626 C 368.929 182.935,367.245 183.915,367.197 184.600 C 367.181 184.820,366.358 185.720,365.368 186.600 C 362.464 189.182,360.405 191.322,359.693 192.500 C 359.327 193.105,358.778 193.600,358.474 193.600 C 357.801 193.600,354.514 197.012,354.183 198.053 C 354.053 198.464,353.697 198.800,353.392 198.800 C 352.671 198.800,348.800 202.671,348.800 203.392 C 348.800 203.697,348.464 204.053,348.053 204.183 C 347.020 204.511,343.600 207.799,343.600 208.464 C 343.600 208.763,343.195 209.260,342.700 209.569 C 340.962 210.652,338.398 212.976,338.179 213.667 C 338.057 214.051,336.797 215.289,335.379 216.417 C 333.960 217.546,332.800 218.694,332.800 218.970 C 332.800 219.520,330.842 221.390,329.079 222.525 C 328.462 222.922,327.840 223.551,327.697 223.923 C 327.293 224.977,325.095 227.253,324.121 227.627 C 323.637 227.813,322.918 228.467,322.523 229.082 C 321.394 230.836,319.520 232.800,318.975 232.800 C 318.703 232.800,317.530 233.970,316.370 235.400 C 315.210 236.830,314.067 238.006,313.830 238.014 C 313.594 238.021,312.680 238.375,311.800 238.800 L 310.200 239.573 317.700 239.586 C 325.116 239.600,326.111 239.423,324.241 238.422 C 322.531 237.507,322.350 236.354,323.766 235.402 C 324.445 234.946,325.058 234.174,325.128 233.686 C 325.198 233.199,325.521 232.800,325.846 232.800 C 326.171 232.800,326.744 232.261,327.119 231.603 C 327.493 230.944,328.087 230.404,328.438 230.403 C 329.207 230.399,330.400 229.160,330.400 228.363 C 330.400 228.048,330.802 227.612,331.293 227.395 C 331.784 227.178,332.408 226.550,332.679 226.000 C 332.950 225.450,333.582 224.902,334.083 224.783 C 334.584 224.663,335.183 224.185,335.416 223.719 C 335.648 223.254,336.414 222.334,337.119 221.676 C 337.823 221.018,338.400 220.301,338.400 220.083 C 338.400 219.865,338.845 219.575,339.388 219.439 C 339.932 219.302,340.590 218.788,340.850 218.295 C 341.110 217.803,342.240 216.539,343.362 215.487 C 344.483 214.434,345.529 213.444,345.687 213.287 C 345.845 213.129,349.766 209.175,354.401 204.500 C 359.036 199.825,362.990 196.000,363.187 196.000 C 363.385 196.000,363.662 195.634,363.804 195.188 C 364.095 194.272,366.778 191.659,368.206 190.902 C 368.722 190.628,369.256 190.055,369.391 189.629 C 369.608 188.946,371.628 188.101,372.507 188.326 C 372.677 188.370,373.034 187.909,373.303 187.302 C 374.115 185.465,379.600 183.982,379.600 185.600 C 379.600 185.820,379.780 186.000,380.000 186.000 C 380.229 186.000,380.400 184.800,380.400 183.200 C 380.400 180.978,380.276 180.400,379.800 180.400 C 379.470 180.400,379.200 180.250,379.200 180.067 C 379.200 179.344,375.173 179.704,374.767 180.463 M379.600 206.200 C 379.600 218.600,379.739 225.200,380.000 225.200 C 380.261 225.200,380.400 218.600,380.400 206.200 C 380.400 193.800,380.261 187.200,380.000 187.200 C 379.739 187.200,379.600 193.800,379.600 206.200 M71.115 239.019 C 71.025 239.108,70.602 239.252,70.176 239.337 C 69.115 239.549,66.731 240.466,66.880 240.605 C 66.946 240.667,68.254 240.411,69.786 240.035 C 71.489 239.617,72.321 239.255,71.925 239.103 C 71.569 238.967,71.205 238.929,71.115 239.019 M73.800 239.146 C 73.309 239.355,76.473 239.571,82.000 239.704 C 86.950 239.823,91.618 240.115,92.374 240.353 C 93.129 240.591,93.833 240.701,93.937 240.596 C 94.042 240.491,93.559 240.292,92.864 240.153 C 92.169 240.014,91.600 239.779,91.600 239.630 C 91.600 239.277,91.158 239.248,82.200 239.008 C 78.020 238.896,74.240 238.958,73.800 239.146 M327.600 239.622 C 332.243 240.437,334.011 240.951,334.847 241.729 C 335.381 242.227,335.641 242.318,335.527 241.968 C 335.119 240.717,331.916 239.517,328.600 239.374 C 325.477 239.239,325.453 239.245,327.600 239.622 M374.600 239.906 C 373.734 240.542,373.041 241.636,373.652 241.401 C 373.963 241.282,374.440 240.828,374.712 240.392 C 375.245 239.539,375.224 239.448,374.600 239.906 M64.000 243.200 C 64.000 243.420,63.803 243.600,63.563 243.600 C 63.323 243.600,62.672 243.958,62.116 244.395 C 61.561 244.832,60.960 245.099,60.781 244.988 C 60.602 244.877,60.325 244.998,60.166 245.255 C 59.993 245.534,60.049 245.617,60.304 245.459 C 60.539 245.314,60.792 245.351,60.866 245.542 C 61.138 246.248,64.400 244.470,64.400 243.616 C 64.400 243.167,64.310 242.800,64.200 242.800 C 64.090 242.800,64.000 242.980,64.000 243.200 M336.100 244.500 C 336.223 245.117,337.672 246.003,338.113 245.730 C 338.290 245.621,338.681 245.735,338.982 245.985 C 339.368 246.305,339.607 246.312,339.794 246.010 C 339.940 245.773,339.821 245.630,339.530 245.690 C 339.238 245.751,339.048 245.567,339.106 245.283 C 339.187 244.885,339.025 244.866,338.406 245.197 C 337.652 245.600,337.426 245.459,337.563 244.670 C 337.594 244.489,337.435 244.455,337.210 244.594 C 336.984 244.733,336.800 244.657,336.800 244.424 C 336.800 244.191,336.620 244.000,336.400 244.000 C 336.180 244.000,336.045 244.225,336.100 244.500 M97.020 245.307 C 97.262 245.937,98.526 246.544,100.489 246.972 C 101.364 247.163,101.532 247.087,101.340 246.588 C 101.209 246.245,101.003 246.064,100.883 246.184 C 100.763 246.304,100.293 246.086,99.839 245.701 C 99.049 245.030,99.037 245.030,99.574 245.722 C 100.166 246.485,98.591 246.032,97.291 245.065 C 96.921 244.790,96.847 244.856,97.020 245.307 M58.800 246.400 C 58.800 246.901,59.224 246.901,60.000 246.400 C 60.485 246.086,60.428 246.011,59.700 246.006 C 59.205 246.003,58.800 246.180,58.800 246.400 M340.994 303.000 C 340.994 330.720,341.042 342.001,341.100 328.069 C 341.158 314.137,341.158 291.457,341.100 277.669 C 341.042 263.881,340.994 275.280,340.994 303.000 "
            stroke="none" fill="#e3bc44" fill-rule="evenodd"></path>
    </g>
</svg>
