<svg id="svg" version="1.1" xmlns="http://www.w3.org/2000/svg" xmlns:xlink="http://www.w3.org/1999/xlink" width="1em"
height="1em" viewBox="0, 0, 400,400">
    <g id="svgg">
        <path id="path0" d="M183.300 11.487 C 183.025 11.586,182.794 11.967,182.787 12.333 C 182.776 12.942,182.729 12.940,182.248 12.306 C 181.640 11.506,181.161 11.768,181.455 12.739 C 181.565 13.103,181.411 12.993,181.111 12.496 C 180.676 11.773,180.468 11.692,180.067 12.093 C 179.667 12.493,179.495 12.477,179.205 12.008 C 179.006 11.686,178.718 11.549,178.565 11.702 C 178.411 11.855,178.482 12.217,178.723 12.507 C 179.065 12.920,178.899 13.053,177.950 13.125 C 176.902 13.205,176.775 13.110,176.997 12.409 C 177.145 11.942,177.073 11.600,176.827 11.600 C 176.592 11.600,176.400 11.791,176.400 12.024 C 176.400 12.257,176.175 12.312,175.900 12.147 C 175.528 11.923,175.534 12.011,175.922 12.490 C 176.378 13.053,176.316 13.120,175.433 13.023 C 174.877 12.962,174.518 13.067,174.635 13.256 C 174.752 13.445,174.646 13.600,174.400 13.600 C 174.154 13.600,174.041 13.742,174.148 13.916 C 174.256 14.090,173.727 14.161,172.972 14.073 C 172.115 13.973,171.600 14.084,171.600 14.370 C 171.600 14.700,171.382 14.711,170.823 14.412 C 170.395 14.183,169.270 13.999,168.323 14.003 C 167.375 14.006,166.185 14.008,165.678 14.007 C 165.113 14.006,164.861 14.174,165.026 14.443 C 165.220 14.756,165.073 14.760,164.505 14.456 C 163.948 14.158,163.258 14.159,162.171 14.459 C 161.053 14.768,160.588 14.763,160.480 14.440 C 160.251 13.753,159.600 14.350,159.600 15.247 C 159.600 15.756,159.418 15.955,159.100 15.794 C 158.825 15.655,158.927 15.808,159.327 16.134 C 159.988 16.673,159.850 16.720,157.827 16.639 C 156.471 16.586,155.598 16.717,155.594 16.976 C 155.591 17.209,155.435 17.160,155.249 16.866 C 154.992 16.460,154.859 16.532,154.693 17.166 C 154.407 18.261,153.329 18.236,152.977 17.126 C 152.705 16.271,152.688 16.275,152.131 17.338 C 151.661 18.235,150.800 18.503,150.800 17.753 C 150.800 17.643,150.980 17.664,151.200 17.800 C 151.420 17.936,151.600 17.772,151.600 17.436 C 151.600 17.057,151.372 16.913,151.000 17.055 C 150.670 17.182,150.400 17.446,150.400 17.643 C 150.400 17.839,150.141 18.000,149.824 18.000 C 149.507 18.000,149.146 18.163,149.023 18.363 C 148.900 18.562,149.204 18.641,149.699 18.538 L 150.600 18.350 149.687 18.896 C 148.995 19.310,145.800 19.559,145.800 19.200 C 145.800 18.931,144.392 18.959,143.954 19.237 C 143.514 19.516,143.544 19.589,144.100 19.594 C 144.485 19.597,144.800 19.791,144.800 20.024 C 144.800 20.257,144.636 20.346,144.436 20.222 C 143.891 19.885,142.767 20.423,143.052 20.885 C 143.208 21.136,142.965 21.179,142.400 21.000 C 141.835 20.821,141.592 20.864,141.748 21.115 C 141.884 21.336,141.712 21.625,141.365 21.758 C 140.419 22.121,140.122 22.038,140.800 21.600 C 141.260 21.303,141.121 21.212,140.200 21.212 C 139.244 21.212,139.122 21.298,139.600 21.636 C 140.046 21.951,139.816 21.996,138.700 21.812 C 137.739 21.653,137.200 21.719,137.200 21.996 C 137.200 22.302,136.960 22.300,136.374 21.986 C 135.365 21.446,133.954 22.270,134.881 22.859 C 135.263 23.101,135.210 23.189,134.676 23.194 C 134.258 23.197,134.066 23.384,134.221 23.635 C 134.397 23.919,134.026 24.043,133.145 23.994 C 132.405 23.953,131.665 23.960,131.500 24.009 C 131.335 24.059,130.855 24.123,130.433 24.150 C 130.012 24.178,129.517 24.364,129.333 24.564 C 129.136 24.780,129.229 24.795,129.562 24.602 C 129.905 24.403,130.028 24.431,129.879 24.673 C 129.526 25.243,128.000 25.044,127.574 24.372 C 127.285 23.915,127.199 23.961,127.145 24.600 C 127.108 25.040,127.058 25.618,127.034 25.885 C 126.981 26.475,126.000 27.514,126.000 26.980 C 126.000 26.771,125.550 26.600,125.000 26.600 C 124.450 26.600,124.060 26.780,124.133 27.000 C 124.207 27.220,124.462 27.400,124.700 27.400 C 124.938 27.400,125.255 27.521,125.403 27.670 C 125.552 27.818,125.362 27.894,124.981 27.838 C 124.601 27.783,124.046 27.404,123.749 26.998 C 123.131 26.153,122.785 26.335,122.693 27.555 C 122.658 28.020,122.488 28.400,122.315 28.400 C 122.142 28.400,121.986 28.715,121.968 29.100 C 121.950 29.501,121.852 29.591,121.739 29.310 C 121.590 28.943,121.298 28.980,120.570 29.456 C 119.978 29.844,119.600 29.920,119.600 29.650 C 119.600 29.406,119.095 29.736,118.477 30.382 C 117.609 31.290,116.936 31.585,115.515 31.679 C 114.504 31.745,113.760 31.935,113.862 32.100 C 113.964 32.265,113.857 32.400,113.624 32.400 C 113.391 32.400,113.200 32.213,113.200 31.984 C 113.200 31.756,112.808 31.934,112.329 32.380 C 111.265 33.372,111.640 33.892,112.979 33.282 C 113.792 32.912,113.923 32.935,113.739 33.415 C 113.616 33.734,113.367 33.904,113.186 33.791 C 113.004 33.679,112.753 33.753,112.627 33.956 C 112.502 34.159,112.039 34.231,111.600 34.116 C 111.153 33.999,110.800 34.104,110.800 34.353 C 110.800 34.599,110.609 34.800,110.376 34.800 C 110.143 34.800,110.075 34.602,110.225 34.360 C 110.422 34.041,110.273 34.040,109.681 34.357 C 109.068 34.685,108.815 34.670,108.664 34.297 C 108.505 33.903,108.457 33.904,108.432 34.300 C 108.414 34.575,108.109 34.800,107.753 34.800 C 107.304 34.800,107.170 35.044,107.316 35.600 C 107.460 36.150,107.318 36.419,106.863 36.461 C 105.573 36.579,105.394 36.625,104.838 36.972 C 104.453 37.213,104.366 37.178,104.562 36.862 C 104.730 36.590,104.596 36.400,104.236 36.400 C 103.837 36.400,103.701 36.643,103.845 37.100 C 104.046 37.737,104.017 37.742,103.528 37.154 C 103.042 36.570,102.916 36.608,102.223 37.554 L 101.455 38.600 102.386 37.800 C 103.056 37.225,103.265 37.168,103.133 37.600 C 103.031 37.930,102.555 38.378,102.074 38.595 C 101.593 38.812,101.187 39.262,101.172 39.595 C 101.153 40.005,101.033 39.942,100.800 39.400 C 100.513 38.733,100.452 38.714,100.428 39.287 C 100.410 39.721,100.184 39.892,99.816 39.751 C 99.395 39.589,99.276 39.758,99.391 40.355 C 99.479 40.810,99.379 41.289,99.169 41.419 C 98.959 41.549,98.914 41.868,99.070 42.128 C 99.279 42.476,99.196 42.473,98.756 42.117 C 98.098 41.585,96.400 41.858,96.400 42.496 C 96.400 42.734,96.170 42.707,95.836 42.430 C 95.403 42.071,95.202 42.074,94.974 42.442 C 94.785 42.747,94.845 42.819,95.138 42.638 C 95.392 42.481,95.600 42.543,95.600 42.776 C 95.600 43.009,95.330 43.200,95.000 43.200 C 94.670 43.200,94.400 43.469,94.400 43.797 C 94.400 44.194,94.097 44.345,93.500 44.248 C 92.381 44.065,91.573 44.664,91.876 45.453 C 92.022 45.835,91.801 46.127,91.256 46.269 C 90.790 46.391,90.499 46.637,90.610 46.816 C 90.720 46.995,90.166 47.061,89.377 46.963 C 88.461 46.850,88.035 46.933,88.197 47.196 C 88.337 47.421,88.170 47.713,87.828 47.845 C 87.485 47.976,87.323 48.276,87.468 48.510 C 87.633 48.777,87.483 48.841,87.066 48.681 C 86.588 48.497,86.400 48.641,86.400 49.189 C 86.400 49.609,86.192 50.081,85.938 50.238 C 85.635 50.426,85.576 50.331,85.768 49.962 C 85.928 49.653,85.776 49.749,85.430 50.176 C 85.083 50.604,84.800 51.093,84.800 51.264 C 84.800 51.435,84.570 51.487,84.289 51.379 C 84.007 51.271,83.422 51.471,82.989 51.824 C 82.326 52.363,82.312 52.430,82.900 52.245 C 83.285 52.124,83.600 52.199,83.600 52.413 C 83.600 52.626,83.015 52.803,82.300 52.806 C 81.404 52.810,81.171 52.921,81.551 53.161 C 82.378 53.685,81.646 54.502,80.539 54.290 C 79.446 54.082,78.423 55.320,79.261 55.838 C 79.515 55.995,79.618 55.952,79.488 55.743 C 79.359 55.533,79.421 55.100,79.628 54.781 C 79.908 54.346,79.969 54.437,79.869 55.147 C 79.782 55.770,79.296 56.280,78.452 56.635 C 77.746 56.932,77.262 57.023,77.377 56.837 C 77.492 56.652,77.110 56.500,76.529 56.500 L 75.472 56.500 76.428 57.221 C 77.022 57.669,77.160 57.929,76.792 57.908 C 75.166 57.815,74.216 58.023,74.743 58.356 C 75.121 58.596,75.151 58.783,74.843 58.974 C 74.599 59.124,74.400 59.139,74.400 59.007 C 74.400 58.875,73.904 59.270,73.298 59.884 C 72.400 60.794,72.308 61.050,72.798 61.272 C 73.292 61.495,73.275 61.549,72.700 61.572 C 72.315 61.587,72.000 61.750,72.000 61.933 C 72.000 62.117,71.730 62.267,71.400 62.267 C 71.070 62.267,70.800 62.117,70.800 61.933 C 70.800 61.750,70.530 61.600,70.200 61.600 C 69.861 61.600,69.600 61.958,69.600 62.424 C 69.600 62.877,69.420 63.136,69.200 63.000 C 68.980 62.864,68.800 62.928,68.800 63.143 C 68.800 63.358,69.025 63.624,69.300 63.735 C 69.685 63.890,69.679 63.944,69.276 63.968 C 68.988 63.986,68.864 64.180,69.000 64.400 C 69.136 64.620,68.967 64.800,68.624 64.800 C 68.281 64.800,68.000 65.001,68.000 65.247 C 68.000 65.510,67.631 65.600,67.100 65.467 C 66.231 65.248,66.227 65.260,66.976 65.820 C 67.653 66.325,67.666 66.400,67.076 66.400 C 66.704 66.400,66.400 66.704,66.400 67.076 C 66.400 67.666,66.325 67.653,65.820 66.976 C 65.260 66.227,65.248 66.231,65.467 67.100 C 65.609 67.667,65.512 68.000,65.204 68.000 C 64.918 68.000,64.817 68.268,64.962 68.645 C 65.138 69.104,65.037 69.223,64.609 69.059 C 64.279 68.932,64.029 68.957,64.052 69.114 C 64.278 70.627,63.982 71.329,63.435 70.580 C 62.890 69.835,62.853 69.845,62.377 70.891 C 62.105 71.487,61.699 71.861,61.474 71.722 C 61.233 71.573,61.160 71.719,61.297 72.075 C 61.469 72.524,61.264 72.670,60.502 72.640 C 59.937 72.618,59.398 72.825,59.304 73.100 C 59.210 73.375,59.339 73.600,59.590 73.600 C 59.842 73.600,59.919 73.392,59.762 73.138 C 59.572 72.832,59.654 72.786,60.003 73.002 C 60.611 73.377,59.138 74.800,58.142 74.800 C 57.675 74.800,57.659 74.963,58.051 75.700 C 58.486 76.516,58.469 76.549,57.865 76.051 C 57.293 75.579,57.200 75.592,57.200 76.151 C 57.200 76.508,56.998 76.800,56.751 76.800 C 56.437 76.800,56.427 76.950,56.718 77.301 C 57.284 77.983,56.263 79.406,55.527 78.963 C 55.098 78.705,55.099 78.768,55.532 79.302 C 56.003 79.884,55.945 79.937,55.022 79.770 C 54.078 79.598,54.004 79.676,54.233 80.590 C 54.429 81.370,54.333 81.600,53.815 81.600 C 53.143 81.600,51.844 82.651,51.750 83.271 C 51.723 83.452,51.678 83.801,51.650 84.047 C 51.623 84.292,51.240 84.399,50.800 84.284 C 49.917 84.053,49.649 84.992,50.500 85.335 C 50.775 85.446,50.460 85.554,49.800 85.575 C 48.959 85.601,48.764 85.716,49.148 85.959 C 49.590 86.239,49.551 86.387,48.948 86.725 C 48.537 86.955,48.200 87.291,48.200 87.472 C 48.200 87.652,48.065 87.755,47.900 87.700 C 47.735 87.645,47.645 87.825,47.700 88.100 C 47.755 88.375,47.575 88.555,47.300 88.500 C 46.969 88.434,46.800 88.924,46.800 89.951 C 46.800 90.842,46.545 91.714,46.200 92.000 C 45.824 92.312,45.600 92.340,45.600 92.074 C 45.600 91.841,45.249 91.676,44.820 91.708 C 44.305 91.747,44.164 91.915,44.404 92.204 C 44.890 92.790,44.466 94.289,43.735 94.570 C 43.413 94.693,43.251 94.959,43.375 95.160 C 43.499 95.361,43.258 95.436,42.838 95.326 C 42.190 95.156,42.088 95.324,42.165 96.435 C 42.223 97.264,41.989 98.011,41.528 98.472 C 40.845 99.155,40.843 99.200,41.500 99.206 C 42.037 99.211,42.075 99.291,41.666 99.551 C 41.372 99.737,41.157 100.049,41.187 100.245 C 41.217 100.440,40.918 100.656,40.521 100.723 C 38.945 100.993,38.644 101.204,39.133 101.693 C 39.765 102.325,39.738 103.004,39.100 102.511 C 37.841 101.537,36.984 101.496,37.822 102.451 C 38.564 103.294,38.565 103.323,37.852 103.062 C 37.226 102.833,37.142 102.937,37.341 103.694 C 37.624 104.776,36.783 106.879,36.163 106.641 C 35.892 106.537,35.795 106.841,35.909 107.437 C 36.041 108.127,35.913 108.400,35.459 108.400 C 35.026 108.400,34.905 108.178,35.076 107.700 C 35.214 107.315,35.195 107.119,35.034 107.263 C 34.872 107.408,34.701 107.795,34.652 108.123 C 34.604 108.451,34.303 109.042,33.982 109.436 C 33.628 109.873,33.596 110.036,33.900 109.853 C 34.232 109.654,34.400 109.815,34.400 110.333 C 34.400 110.834,34.038 111.204,33.391 111.366 C 32.551 111.577,32.449 111.745,32.784 112.370 C 33.090 112.942,33.035 113.178,32.551 113.363 C 32.164 113.512,32.014 113.859,32.165 114.254 C 32.302 114.610,32.197 115.162,31.933 115.481 C 31.556 115.935,31.563 116.130,31.968 116.380 C 32.333 116.605,32.354 116.781,32.043 116.974 C 31.799 117.124,31.600 117.046,31.600 116.800 C 31.600 116.554,31.417 116.466,31.193 116.604 C 30.970 116.742,30.891 117.023,31.017 117.228 C 31.246 117.599,30.685 117.761,29.660 117.621 C 29.357 117.579,29.240 117.741,29.394 117.991 C 29.545 118.235,29.428 118.732,29.134 119.094 C 28.840 119.457,28.789 119.641,29.019 119.503 C 29.250 119.365,29.678 119.401,29.972 119.583 C 30.372 119.830,30.279 119.984,29.600 120.200 C 28.958 120.404,28.841 120.578,29.198 120.799 C 29.476 120.970,29.567 121.330,29.401 121.598 C 29.170 121.973,29.021 121.960,28.756 121.543 C 28.488 121.120,28.411 121.155,28.406 121.700 C 28.403 122.085,28.214 122.400,27.986 122.400 C 27.706 122.400,27.712 122.661,28.003 123.206 C 28.329 123.815,28.314 123.986,27.941 123.906 C 27.670 123.848,27.373 124.160,27.282 124.600 C 27.192 125.040,26.888 125.670,26.609 126.000 C 26.329 126.330,26.149 126.900,26.210 127.266 C 26.294 127.780,26.078 127.894,25.260 127.764 C 24.246 127.602,24.234 127.621,24.976 128.197 C 25.674 128.739,25.561 128.989,24.683 128.842 C 24.508 128.812,24.562 129.155,24.801 129.602 C 25.140 130.235,25.077 130.692,24.518 131.665 C 23.992 132.580,23.930 132.960,24.288 133.086 C 24.626 133.206,24.533 133.520,23.986 134.107 C 23.373 134.765,23.088 134.848,22.718 134.478 C 22.455 134.215,22.051 134.006,21.820 134.013 C 21.589 134.020,21.745 134.287,22.168 134.606 C 22.887 135.151,22.894 135.234,22.267 135.926 C 21.899 136.332,21.714 136.781,21.856 136.923 C 21.998 137.065,21.886 137.455,21.608 137.790 C 21.278 138.188,21.254 138.400,21.538 138.400 C 21.781 138.400,21.862 138.695,21.719 139.066 C 21.548 139.513,21.617 139.636,21.932 139.442 C 22.189 139.283,22.400 139.333,22.400 139.553 C 22.400 139.773,22.228 140.059,22.017 140.189 C 21.807 140.319,21.736 140.690,21.860 141.013 C 22.068 141.555,21.328 141.833,20.232 141.625 C 20.030 141.586,20.103 141.843,20.395 142.194 C 20.832 142.720,20.833 142.920,20.404 143.317 C 19.989 143.701,19.943 143.678,20.176 143.200 C 20.337 142.870,20.125 143.022,19.704 143.538 C 18.922 144.497,18.800 145.430,19.343 146.307 C 19.518 146.591,19.447 146.800,19.175 146.800 C 18.862 146.800,18.830 146.969,19.080 147.300 C 19.912 148.400,19.624 149.698,18.590 149.500 C 18.001 149.388,17.722 149.474,17.875 149.721 C 18.028 149.969,17.791 150.039,17.262 149.900 C 16.787 149.776,16.500 149.838,16.623 150.037 C 16.746 150.237,17.107 150.400,17.424 150.400 C 18.233 150.400,18.140 151.060,17.200 152.000 L 16.400 152.800 17.200 152.800 C 17.640 152.800,18.000 152.991,18.000 153.224 C 18.000 153.457,17.840 153.549,17.645 153.428 C 17.450 153.307,17.045 153.511,16.745 153.881 C 16.370 154.344,16.356 154.460,16.700 154.253 C 16.981 154.084,17.200 154.149,17.200 154.400 C 17.200 154.646,17.393 154.728,17.630 154.582 C 17.867 154.435,17.831 154.682,17.549 155.132 C 17.269 155.581,16.896 155.859,16.720 155.751 C 16.282 155.480,16.319 155.901,16.814 156.826 C 17.095 157.351,17.096 157.600,16.819 157.600 C 16.594 157.600,16.452 158.003,16.505 158.495 C 16.583 159.234,16.360 159.426,15.226 159.595 C 13.916 159.790,13.885 159.833,14.555 160.500 C 15.205 161.148,15.207 161.200,14.580 161.200 C 14.023 161.200,13.991 161.307,14.400 161.800 C 14.796 162.277,14.797 162.522,14.402 162.997 C 14.004 163.477,14.034 163.863,14.553 164.958 C 15.314 166.561,15.343 166.800,14.776 166.800 C 14.543 166.800,14.481 166.592,14.638 166.338 C 14.819 166.045,14.747 165.985,14.442 166.174 C 14.074 166.402,14.071 166.603,14.430 167.036 C 14.746 167.417,14.768 167.762,14.499 168.100 C 14.041 168.674,14.080 169.959,14.581 170.769 C 14.811 171.141,14.775 171.232,14.472 171.044 C 14.155 170.848,14.060 171.307,14.156 172.583 C 14.268 174.084,14.173 174.400,13.608 174.400 C 12.629 174.400,11.397 175.828,12.036 176.222 C 12.368 176.427,12.420 176.356,12.200 176.000 C 11.990 175.661,12.033 175.573,12.321 175.751 C 12.565 175.902,12.664 176.289,12.541 176.611 C 12.417 176.932,12.185 177.114,12.025 177.015 C 11.864 176.916,11.733 177.097,11.733 177.418 C 11.733 177.738,11.928 178.003,12.167 178.006 C 12.405 178.009,12.362 178.163,12.070 178.348 C 11.645 178.618,11.678 178.821,12.235 179.378 C 12.773 179.916,12.815 180.143,12.422 180.386 C 12.100 180.585,12.063 180.792,12.320 180.950 C 12.543 181.088,12.631 181.559,12.517 181.996 C 12.403 182.433,12.180 182.711,12.023 182.614 C 11.583 182.342,11.721 186.563,12.161 186.870 C 12.405 187.039,12.381 187.341,12.097 187.683 C 11.849 187.982,11.702 188.581,11.771 189.014 C 11.841 189.446,11.718 190.025,11.500 190.300 C 11.231 190.637,11.244 190.800,11.538 190.800 C 11.779 190.800,11.864 191.088,11.729 191.440 C 11.594 191.793,11.684 192.204,11.928 192.356 C 12.250 192.555,12.235 192.902,11.873 193.615 C 11.281 194.779,11.447 196.138,12.130 195.728 C 12.486 195.515,12.489 195.586,12.141 196.023 C 11.386 196.972,11.262 203.599,12.000 203.606 C 12.365 203.610,12.438 203.728,12.187 203.906 C 11.692 204.258,11.686 204.800,12.168 205.562 C 12.434 205.981,12.381 206.038,11.962 205.785 C 11.483 205.497,11.481 205.547,11.949 206.123 C 12.307 206.564,12.342 206.800,12.049 206.800 C 11.802 206.800,11.600 207.171,11.600 207.624 C 11.600 208.077,11.778 208.337,11.995 208.203 C 12.222 208.063,12.289 208.223,12.154 208.577 C 12.023 208.917,11.710 209.072,11.458 208.921 C 11.206 208.770,11.247 208.951,11.549 209.323 C 11.851 209.695,11.964 210.000,11.800 210.000 C 11.636 210.000,11.749 210.305,12.051 210.677 C 12.424 211.137,12.440 211.257,12.100 211.053 C 11.752 210.844,11.600 211.064,11.600 211.776 C 11.600 212.339,11.780 212.800,12.000 212.800 C 12.220 212.800,12.400 212.991,12.400 213.224 C 12.400 213.457,12.250 213.555,12.067 213.441 C 11.883 213.328,11.733 213.497,11.733 213.818 C 11.733 214.138,11.862 214.400,12.020 214.400 C 12.178 214.400,12.392 214.845,12.496 215.388 C 12.599 215.931,12.543 216.288,12.370 216.181 C 11.871 215.873,11.618 216.581,12.004 217.206 C 12.220 217.556,12.171 217.999,11.877 218.363 C 11.606 218.699,11.586 218.842,11.832 218.695 C 12.097 218.536,12.226 218.776,12.165 219.319 C 12.111 219.803,12.038 220.200,12.003 220.200 C 11.968 220.200,11.873 220.554,11.792 220.986 C 11.606 221.984,12.272 222.800,13.273 222.800 C 13.699 222.800,13.944 222.968,13.817 223.172 C 13.691 223.377,13.777 223.662,14.010 223.806 C 14.242 223.950,14.328 224.397,14.200 224.800 C 14.072 225.203,14.158 225.650,14.390 225.794 C 14.957 226.144,14.473 226.877,13.872 226.577 C 13.613 226.447,13.709 226.594,14.086 226.904 C 14.608 227.333,14.661 227.579,14.306 227.934 C 13.951 228.289,13.979 228.401,14.420 228.406 C 14.916 228.411,14.918 228.464,14.434 228.771 C 13.584 229.308,13.815 231.968,14.790 232.877 C 15.236 233.292,15.600 233.750,15.600 233.896 C 15.600 234.041,15.384 233.944,15.120 233.680 C 14.331 232.891,13.820 233.138,14.557 233.952 C 15.184 234.646,15.187 234.756,14.590 235.352 C 13.994 235.949,14.016 236.001,14.871 236.013 C 15.729 236.024,15.746 236.066,15.100 236.557 C 14.183 237.253,14.211 237.575,15.166 237.325 C 16.136 237.071,16.744 238.160,16.601 239.895 C 16.534 240.709,16.648 241.094,16.909 240.933 C 17.170 240.771,17.200 240.876,16.990 241.216 C 15.998 242.822,16.683 246.922,17.887 246.586 C 18.279 246.477,18.060 246.653,17.400 246.976 C 16.415 247.459,16.343 247.575,17.000 247.628 C 17.440 247.663,18.070 247.717,18.400 247.746 C 18.730 247.776,18.957 248.019,18.905 248.286 C 18.852 248.553,18.978 249.216,19.185 249.759 C 19.450 250.456,19.419 250.804,19.080 250.942 C 18.735 251.082,18.747 251.146,19.124 251.168 C 19.412 251.186,19.530 251.390,19.386 251.623 C 18.877 252.446,18.971 256.401,19.500 256.400 C 19.775 256.400,20.000 256.660,20.000 256.977 C 20.000 257.333,20.298 257.497,20.777 257.404 C 21.320 257.300,21.488 257.427,21.334 257.827 C 21.213 258.142,21.308 258.400,21.545 258.400 C 21.782 258.400,21.860 258.699,21.719 259.066 C 21.534 259.549,21.609 259.642,21.994 259.404 C 22.346 259.186,22.428 259.231,22.239 259.537 C 21.735 260.353,21.633 261.600,22.072 261.600 C 22.341 261.600,22.315 261.821,22.000 262.200 C 21.511 262.789,21.854 263.024,22.930 262.837 C 23.111 262.806,23.150 262.957,23.017 263.173 C 22.884 263.388,22.465 263.449,22.087 263.308 C 21.488 263.083,21.470 263.136,21.945 263.721 C 22.245 264.089,22.670 264.281,22.888 264.146 C 23.136 263.992,23.177 264.241,22.997 264.808 C 22.749 265.592,22.826 265.687,23.553 265.496 C 24.226 265.320,24.327 265.401,24.052 265.894 C 23.837 266.277,23.908 266.903,24.239 267.541 C 24.655 268.341,24.665 268.638,24.286 268.879 C 23.825 269.172,24.195 269.369,24.949 269.231 C 25.141 269.196,25.195 269.435,25.069 269.763 C 24.906 270.188,25.027 270.288,25.490 270.110 C 25.970 269.926,26.074 270.030,25.890 270.510 C 25.724 270.943,25.907 271.243,26.441 271.413 C 27.100 271.622,27.154 271.773,26.747 272.264 C 26.349 272.744,26.364 272.934,26.826 273.230 C 27.292 273.530,27.301 273.664,26.877 273.938 C 26.284 274.321,26.648 276.541,27.243 276.174 C 27.900 275.767,27.609 276.505,26.900 277.043 C 26.266 277.525,26.307 277.576,27.343 277.587 C 28.167 277.596,28.424 277.760,28.266 278.173 C 28.112 278.573,28.280 278.700,28.823 278.596 C 29.250 278.513,29.600 278.616,29.600 278.823 C 29.600 279.030,29.436 279.200,29.235 279.200 C 28.715 279.200,28.977 280.526,29.535 280.712 C 30.141 280.914,30.140 282.000,29.533 282.000 C 29.277 282.000,29.182 282.116,29.324 282.257 C 29.465 282.398,29.890 282.263,30.267 281.957 C 30.799 281.525,30.881 281.520,30.633 281.932 C 30.427 282.276,30.614 282.675,31.163 283.059 C 31.631 283.387,31.902 283.834,31.767 284.054 C 31.631 284.274,31.833 284.682,32.215 284.961 C 32.597 285.241,32.810 285.724,32.687 286.035 C 32.522 286.451,32.455 286.416,32.432 285.900 C 32.414 285.515,32.224 285.200,32.009 285.200 C 31.772 285.200,31.800 285.602,32.080 286.215 C 32.337 286.779,32.772 287.143,33.058 287.033 C 33.342 286.924,33.669 286.988,33.785 287.176 C 34.041 287.590,32.870 288.091,32.368 287.781 C 32.171 287.658,32.116 287.838,32.247 288.179 C 32.529 288.913,32.617 288.926,33.617 288.391 C 34.253 288.050,34.338 288.095,34.123 288.656 C 33.930 289.160,34.008 289.249,34.432 289.007 C 34.892 288.744,34.905 288.785,34.500 289.221 C 33.948 289.816,33.816 290.561,34.317 290.251 C 34.491 290.144,34.660 290.399,34.692 290.820 C 34.723 291.240,34.578 291.690,34.368 291.820 C 34.158 291.949,34.092 292.226,34.221 292.434 C 34.350 292.643,34.623 292.709,34.828 292.583 C 35.032 292.456,35.200 292.533,35.200 292.753 C 35.200 292.974,35.546 293.087,35.968 293.006 C 36.391 292.925,36.835 293.115,36.956 293.429 C 37.076 293.743,37.001 294.000,36.787 294.000 C 36.574 294.000,36.400 294.180,36.400 294.400 C 36.400 294.620,36.681 294.800,37.024 294.800 C 37.367 294.800,37.558 294.944,37.449 295.120 C 37.341 295.296,37.619 295.669,38.068 295.949 C 38.738 296.368,38.830 296.365,38.583 295.930 C 38.363 295.542,38.408 295.515,38.751 295.829 C 39.324 296.356,39.709 298.115,39.179 297.787 C 38.971 297.658,38.800 297.853,38.800 298.219 C 38.800 298.641,39.016 298.803,39.387 298.660 C 39.710 298.536,40.071 298.592,40.190 298.783 C 40.308 298.975,40.179 299.223,39.902 299.334 C 39.599 299.456,39.678 299.549,40.100 299.568 C 40.485 299.586,40.803 299.915,40.806 300.300 C 40.811 300.898,40.869 300.913,41.200 300.400 C 41.413 300.070,41.618 299.980,41.655 300.200 C 41.692 300.420,41.764 300.780,41.815 301.000 C 41.866 301.220,41.928 301.636,41.954 301.924 C 41.979 302.212,42.178 302.337,42.395 302.203 C 42.630 302.058,42.684 302.237,42.527 302.645 C 42.328 303.164,42.403 303.248,42.832 302.989 C 43.305 302.703,43.314 302.752,42.885 303.282 C 42.602 303.632,42.294 304.342,42.201 304.859 L 42.032 305.800 42.878 304.800 C 43.722 303.802,43.723 303.802,43.493 304.723 C 43.296 305.512,43.351 305.573,43.869 305.143 C 44.398 304.704,44.445 304.840,44.236 306.220 C 44.063 307.363,44.110 307.634,44.406 307.200 C 44.763 306.676,44.867 306.689,45.227 307.300 C 45.454 307.685,45.821 308.000,46.043 308.000 C 46.266 308.000,46.319 307.792,46.162 307.538 C 45.997 307.272,46.051 307.184,46.288 307.331 C 46.515 307.471,46.700 308.052,46.700 308.623 C 46.700 309.193,46.929 309.872,47.209 310.130 C 47.608 310.499,47.648 310.471,47.395 310.000 C 47.203 309.644,47.220 309.536,47.436 309.733 C 47.636 309.917,47.800 310.277,47.801 310.533 C 47.802 310.790,48.162 311.000,48.601 311.001 C 49.449 311.001,49.695 311.871,49.079 312.695 C 48.831 313.028,48.921 313.272,49.355 313.438 C 49.710 313.574,50.000 313.857,50.000 314.066 C 50.000 314.276,49.792 314.319,49.538 314.162 C 49.252 313.985,49.185 314.052,49.362 314.338 C 49.753 314.970,50.915 314.934,50.594 314.300 C 50.455 314.025,50.637 314.160,50.999 314.600 C 51.360 315.040,51.869 315.340,52.128 315.267 C 52.388 315.193,52.467 315.267,52.303 315.430 C 52.140 315.593,52.192 315.949,52.418 316.221 C 52.643 316.493,52.800 316.870,52.767 317.058 C 52.590 318.041,52.814 318.598,53.163 318.046 C 53.670 317.246,54.522 318.953,54.196 320.115 C 54.001 320.811,54.037 320.872,54.368 320.400 C 54.685 319.946,54.789 319.930,54.794 320.333 C 54.797 320.627,55.025 320.791,55.300 320.698 C 55.575 320.606,56.038 320.816,56.330 321.165 C 56.645 321.543,56.741 321.572,56.568 321.238 C 56.371 320.860,56.433 320.773,56.758 320.974 C 57.130 321.204,57.131 321.401,56.762 321.845 C 56.165 322.566,56.483 322.900,57.767 322.900 C 58.317 322.900,58.729 323.094,58.683 323.332 C 58.638 323.569,58.810 323.772,59.067 323.782 C 59.697 323.806,60.260 324.400,59.653 324.400 C 59.296 324.400,59.282 324.606,59.600 325.200 C 59.835 325.640,60.301 326.000,60.635 326.000 C 60.969 326.000,61.430 326.540,61.660 327.200 C 61.890 327.860,62.241 328.400,62.439 328.400 C 62.934 328.400,62.897 329.501,62.396 329.668 C 62.174 329.742,62.373 330.040,62.838 330.331 C 63.303 330.621,63.564 330.666,63.418 330.430 C 63.272 330.193,63.240 330.000,63.347 330.000 C 63.659 330.000,64.800 332.464,64.800 333.138 C 64.800 333.619,64.923 333.585,65.362 332.985 C 65.908 332.238,65.946 332.244,66.742 333.208 C 67.493 334.118,67.506 334.241,66.904 334.700 C 66.314 335.149,66.334 335.200,67.100 335.200 C 67.569 335.200,68.056 335.368,68.183 335.573 C 68.310 335.778,69.130 335.880,70.007 335.799 C 71.509 335.662,72.089 336.051,71.200 336.600 C 70.980 336.736,70.800 337.143,70.800 337.504 C 70.800 337.989,70.917 338.043,71.249 337.711 C 71.807 337.153,72.800 337.494,72.800 338.243 C 72.800 338.549,72.991 338.800,73.224 338.800 C 73.457 338.800,73.536 338.620,73.400 338.400 C 73.264 338.180,73.279 338.000,73.432 338.000 C 73.913 338.000,74.774 339.365,74.787 340.149 C 74.798 340.781,74.897 340.817,75.423 340.381 C 75.937 339.954,76.024 339.963,75.923 340.432 C 75.855 340.745,76.029 340.954,76.309 340.897 C 76.595 340.839,76.925 341.326,77.061 342.005 C 77.194 342.671,77.458 343.312,77.647 343.429 C 77.836 343.546,77.870 343.326,77.722 342.941 C 77.498 342.358,77.666 342.393,78.731 343.151 C 79.434 343.652,79.915 344.214,79.799 344.402 C 79.683 344.589,79.951 344.857,80.394 344.998 C 80.837 345.139,81.214 345.557,81.232 345.927 C 81.251 346.343,81.340 346.409,81.465 346.100 C 81.576 345.825,81.838 345.600,82.047 345.600 C 82.266 345.600,82.236 345.959,81.977 346.443 C 81.635 347.083,81.645 347.396,82.022 347.743 C 82.405 348.096,82.463 348.044,82.276 347.513 C 81.953 346.591,82.634 346.216,83.022 347.102 C 83.190 347.486,83.291 347.957,83.247 348.149 C 83.203 348.341,83.425 348.399,83.740 348.279 C 84.131 348.128,84.386 348.429,84.546 349.229 C 84.675 349.873,84.975 350.400,85.214 350.400 C 85.452 350.400,85.536 350.220,85.400 350.000 C 85.264 349.780,85.343 349.600,85.576 349.600 C 85.809 349.600,86.000 349.832,86.000 350.115 C 86.000 350.704,87.472 350.931,87.805 350.392 C 88.065 349.972,89.200 350.329,89.200 350.830 C 89.200 351.020,88.885 351.072,88.500 350.945 C 88.115 350.819,88.340 351.093,89.000 351.555 C 89.660 352.017,89.981 352.396,89.713 352.397 C 89.418 352.399,89.329 352.670,89.486 353.080 C 89.649 353.505,89.807 353.580,89.907 353.280 C 89.995 353.016,90.242 352.800,90.457 352.800 C 90.672 352.800,90.717 353.011,90.558 353.268 C 90.364 353.583,90.487 353.652,90.934 353.481 C 91.376 353.311,91.600 353.431,91.600 353.836 C 91.600 354.214,91.791 354.336,92.100 354.155 C 92.375 353.994,92.240 354.279,91.800 354.788 L 91.000 355.713 92.180 355.104 C 93.302 354.524,93.396 354.541,94.120 355.462 C 94.709 356.210,95.005 356.328,95.423 355.981 C 96.214 355.324,96.714 355.819,96.545 357.090 C 96.463 357.701,96.502 357.976,96.631 357.702 C 96.792 357.361,97.243 357.582,98.066 358.405 C 98.727 359.065,99.433 359.503,99.636 359.377 C 99.840 359.252,100.119 359.446,100.258 359.808 C 100.398 360.171,100.621 360.297,100.756 360.088 C 100.892 359.876,101.353 359.849,101.800 360.026 C 102.563 360.329,102.564 360.345,101.833 360.372 C 101.412 360.387,101.190 360.524,101.341 360.675 C 101.737 361.071,103.202 361.126,102.961 360.736 C 102.849 360.556,103.038 360.516,103.379 360.647 C 103.721 360.778,104.000 361.136,104.000 361.443 C 104.000 361.749,104.174 362.000,104.387 362.000 C 104.601 362.000,104.660 361.700,104.519 361.334 C 104.348 360.887,104.417 360.764,104.732 360.958 C 105.433 361.391,105.296 362.316,104.500 362.524 C 103.986 362.658,104.046 362.720,104.724 362.754 C 105.345 362.785,105.552 362.964,105.355 363.300 C 105.194 363.575,105.432 363.476,105.884 363.081 C 106.625 362.432,106.765 362.422,107.324 362.981 C 107.664 363.321,108.216 363.600,108.550 363.600 C 108.883 363.600,109.399 364.095,109.695 364.700 C 109.995 365.311,110.535 365.776,110.913 365.745 C 111.286 365.715,111.505 365.831,111.398 366.002 C 111.292 366.174,111.654 366.427,112.203 366.565 C 112.751 366.703,113.200 367.028,113.200 367.288 C 113.200 367.647,113.085 367.645,112.720 367.280 C 112.021 366.581,111.412 366.691,112.007 367.409 C 112.316 367.781,112.822 367.920,113.307 367.766 C 113.807 367.607,114.005 367.668,113.842 367.931 C 113.669 368.213,113.968 368.238,114.762 368.011 C 116.107 367.625,116.398 367.794,116.406 368.967 C 116.410 369.431,116.542 369.617,116.706 369.387 C 117.065 368.882,117.816 368.872,118.267 369.364 C 118.460 369.576,118.390 369.608,118.100 369.441 C 117.490 369.089,117.465 369.400,118.019 370.436 C 118.394 371.137,118.502 371.155,119.047 370.610 C 119.515 370.143,119.842 370.101,120.459 370.432 C 120.901 370.668,121.473 370.781,121.731 370.683 C 122.828 370.266,124.000 371.159,124.000 372.411 C 124.000 373.096,124.171 373.542,124.383 373.411 C 124.593 373.281,124.664 372.910,124.540 372.587 C 124.416 372.264,124.499 372.000,124.724 372.000 C 124.949 372.000,125.202 372.206,125.286 372.457 C 125.370 372.709,125.938 372.968,126.548 373.033 C 127.538 373.139,127.601 373.078,127.129 372.476 C 126.647 371.860,126.666 371.852,127.343 372.384 C 127.751 372.706,128.471 373.171,128.943 373.417 C 129.414 373.664,129.781 374.031,129.757 374.233 C 129.734 374.435,130.049 374.915,130.457 375.300 C 130.866 375.685,131.200 375.904,131.200 375.786 C 131.200 375.668,131.560 375.765,132.000 376.000 C 132.607 376.325,132.801 376.304,132.806 375.914 C 132.810 375.553,132.927 375.578,133.200 376.000 C 133.505 376.471,133.589 376.482,133.594 376.051 C 133.599 375.608,133.716 375.599,134.200 376.000 C 134.559 376.298,134.800 376.332,134.800 376.084 C 134.800 375.580,135.498 375.672,136.708 376.338 C 137.208 376.612,137.780 376.736,137.981 376.612 C 138.181 376.488,138.475 376.598,138.634 376.855 C 138.815 377.148,138.750 377.216,138.462 377.038 C 138.208 376.881,137.986 376.898,137.969 377.076 C 137.953 377.254,137.877 377.725,137.802 378.122 C 137.662 378.858,138.400 378.511,139.338 377.400 C 139.535 377.166,139.584 377.286,139.455 377.687 C 139.199 378.486,139.812 379.027,140.222 378.364 C 140.419 378.046,140.600 378.073,140.844 378.457 C 141.097 378.857,141.189 378.868,141.194 378.500 C 141.200 377.960,142.479 377.812,142.962 378.295 C 143.124 378.457,143.469 378.611,143.728 378.637 C 144.716 378.737,146.000 379.308,146.000 379.647 C 146.000 380.147,145.444 380.084,144.880 379.520 C 144.507 379.147,144.400 379.147,144.400 379.520 C 144.400 379.784,144.591 380.000,144.824 380.000 C 145.057 380.000,145.137 380.178,145.003 380.395 C 144.863 380.622,145.023 380.689,145.379 380.553 C 145.722 380.421,146.000 380.524,146.000 380.781 C 146.000 381.054,146.207 381.118,146.500 380.935 C 147.242 380.471,148.000 380.421,148.000 380.835 C 148.000 381.036,148.739 381.200,149.643 381.200 C 151.034 381.200,151.248 381.093,151.042 380.500 C 150.810 379.833,150.824 379.833,151.343 380.500 C 151.643 380.885,152.069 381.200,152.289 381.200 C 152.510 381.200,152.639 381.665,152.577 382.233 C 152.473 383.181,152.519 383.216,153.141 382.654 C 153.601 382.237,154.007 382.160,154.409 382.414 C 154.967 382.767,154.924 382.829,154.033 382.950 C 152.670 383.136,153.514 383.493,155.075 383.391 C 156.134 383.321,157.000 383.236,157.000 383.202 C 157.000 383.167,157.316 383.078,157.702 383.005 C 158.088 382.931,158.302 383.034,158.178 383.235 C 157.879 383.720,159.285 383.700,160.597 383.201 C 161.377 382.905,161.572 382.922,161.357 383.269 C 161.164 383.582,161.288 383.652,161.734 383.481 C 162.176 383.311,162.400 383.431,162.400 383.836 C 162.400 384.219,162.213 384.335,161.900 384.147 C 161.577 383.953,161.600 384.093,161.965 384.542 C 162.558 385.273,163.408 384.659,162.912 383.857 C 162.782 383.648,162.868 383.595,163.103 383.740 C 163.553 384.018,163.556 384.715,163.110 385.428 C 162.934 385.708,163.256 385.795,164.045 385.679 C 164.884 385.556,165.182 385.329,165.029 384.930 C 164.907 384.613,164.985 384.467,165.205 384.603 C 165.422 384.737,165.611 385.242,165.625 385.724 C 165.649 386.556,165.672 386.549,166.079 385.600 L 166.508 384.600 166.814 385.600 L 167.120 386.600 167.192 385.600 C 167.231 385.050,167.354 384.825,167.465 385.100 C 167.715 385.719,168.681 385.758,168.881 385.156 C 168.970 384.891,169.264 385.002,169.615 385.433 C 170.089 386.017,170.093 386.089,169.638 385.815 C 169.297 385.609,169.170 385.628,169.315 385.863 C 169.446 386.075,170.149 386.185,170.877 386.108 C 172.894 385.892,172.926 385.892,174.076 386.122 C 174.948 386.297,175.112 386.212,174.943 385.669 C 174.764 385.096,174.820 385.103,175.329 385.724 C 175.708 386.186,176.018 386.294,176.186 386.022 C 176.340 385.774,176.897 385.711,177.525 385.872 C 178.116 386.023,178.929 386.124,179.330 386.096 C 179.957 386.052,179.985 386.138,179.530 386.699 C 179.083 387.251,179.089 387.300,179.568 387.011 C 180.003 386.749,180.071 386.838,179.859 387.391 C 179.625 388.001,179.676 388.035,180.191 387.608 C 180.695 387.189,180.800 387.218,180.800 387.775 C 180.800 388.145,180.983 388.334,181.207 388.196 C 181.430 388.058,181.528 387.807,181.424 387.639 C 181.320 387.471,181.480 387.333,181.779 387.333 C 182.079 387.333,182.239 387.555,182.135 387.826 C 182.031 388.097,182.138 388.438,182.373 388.583 C 182.608 388.728,182.800 388.657,182.800 388.424 C 182.800 388.191,183.261 388.000,183.824 388.000 C 184.495 388.000,184.749 388.159,184.562 388.462 C 184.366 388.779,184.452 388.812,184.838 388.568 C 185.147 388.372,185.670 388.194,186.000 388.172 C 186.933 388.108,188.000 387.554,188.000 387.134 C 188.000 386.924,187.792 386.881,187.538 387.038 C 187.255 387.213,187.185 387.148,187.357 386.870 C 187.564 386.535,187.843 386.545,188.422 386.907 C 188.854 387.177,189.025 387.458,188.801 387.533 C 188.225 387.725,188.728 388.400,189.447 388.400 C 189.821 388.400,189.934 388.211,189.747 387.900 C 189.543 387.560,189.663 387.576,190.123 387.949 C 190.706 388.422,190.800 388.408,190.800 387.849 C 190.800 387.178,191.831 386.932,192.067 387.547 C 192.283 388.110,194.000 388.516,194.000 388.003 C 194.000 387.756,193.775 387.682,193.500 387.841 C 193.225 387.999,193.140 387.974,193.312 387.786 C 193.847 387.198,194.760 387.238,194.530 387.839 C 194.272 388.512,195.032 388.595,195.437 387.939 C 195.636 387.618,195.877 387.690,196.234 388.179 C 196.558 388.621,196.941 388.760,197.273 388.554 C 197.883 388.176,201.483 388.205,202.469 388.596 C 203.105 388.849,204.241 387.574,203.786 387.119 C 203.684 387.017,203.862 386.933,204.182 386.933 C 204.503 386.933,204.685 387.063,204.587 387.221 C 204.489 387.380,204.711 387.755,205.081 388.055 C 205.614 388.487,205.688 388.490,205.435 388.070 C 205.174 387.637,205.262 387.632,205.919 388.042 C 206.584 388.457,206.900 388.427,207.761 387.862 C 208.774 387.199,208.801 387.205,208.840 388.091 C 208.879 388.973,208.889 388.970,209.200 388.000 C 209.376 387.450,209.538 387.236,209.560 387.524 C 209.582 387.812,209.768 387.944,209.972 387.817 C 210.177 387.691,210.460 387.773,210.600 388.000 C 210.740 388.227,211.023 388.309,211.228 388.183 C 211.432 388.056,211.606 388.188,211.613 388.476 C 211.622 388.839,211.780 388.797,212.128 388.339 C 212.456 387.908,212.991 387.747,213.668 387.877 C 214.239 387.986,214.813 387.903,214.944 387.691 C 215.074 387.480,215.633 387.394,216.186 387.499 C 216.738 387.605,217.100 387.838,216.989 388.018 C 216.657 388.556,217.634 388.926,218.115 388.445 C 218.360 388.200,218.874 388.000,219.257 388.000 C 219.746 388.000,219.907 387.754,219.795 387.173 C 219.694 386.650,219.813 386.409,220.118 386.519 C 220.383 386.614,220.945 386.514,221.367 386.296 C 222.335 385.797,226.453 385.591,226.165 386.057 C 226.047 386.247,226.367 386.332,226.876 386.246 C 227.384 386.161,227.745 385.860,227.677 385.578 C 227.585 385.192,227.729 385.206,228.254 385.632 C 228.701 385.995,228.845 386.019,228.653 385.700 C 228.264 385.053,228.984 385.053,229.681 385.700 C 230.357 386.328,231.346 386.560,231.006 386.010 C 230.859 385.772,231.169 385.600,231.743 385.600 C 232.288 385.600,232.824 385.825,232.935 386.100 C 233.046 386.375,233.151 386.195,233.168 385.700 C 233.186 385.205,233.380 384.800,233.600 384.800 C 233.820 384.800,233.979 384.935,233.953 385.100 C 233.800 386.069,234.022 386.585,234.361 386.050 C 234.552 385.748,235.182 385.500,235.761 385.500 C 236.434 385.500,237.170 385.076,237.804 384.322 C 238.554 383.431,239.002 383.210,239.648 383.415 C 240.217 383.596,240.410 383.540,240.229 383.247 C 240.056 382.967,240.197 382.901,240.620 383.063 C 240.994 383.207,241.434 383.075,241.634 382.758 C 241.928 382.294,241.989 382.304,241.994 382.814 C 241.998 383.246,242.407 383.429,243.371 383.429 C 244.124 383.429,244.652 383.284,244.543 383.108 C 244.434 382.931,244.179 382.889,243.977 383.014 C 243.774 383.140,243.727 382.935,243.873 382.555 C 244.065 382.053,243.994 381.956,243.606 382.196 C 243.244 382.420,243.172 382.370,243.378 382.036 C 243.607 381.666,243.849 381.701,244.382 382.184 C 244.770 382.535,245.379 382.706,245.742 382.567 C 246.121 382.422,246.400 382.512,246.400 382.781 C 246.400 383.037,246.565 383.145,246.766 383.021 C 246.967 382.897,247.215 383.021,247.316 383.298 C 247.459 383.688,247.622 383.676,248.050 383.241 C 248.398 382.888,248.416 382.787,248.100 382.965 C 247.790 383.140,247.600 383.002,247.600 382.600 C 247.600 382.244,247.780 382.064,248.000 382.200 C 248.220 382.336,248.400 382.257,248.400 382.024 C 248.400 381.791,248.205 381.600,247.967 381.600 C 247.145 381.600,247.868 380.600,248.723 380.555 C 249.194 380.530,249.483 380.665,249.366 380.855 C 249.083 381.313,249.482 381.291,250.402 380.799 C 250.914 380.525,251.235 380.533,251.415 380.825 C 251.588 381.104,251.967 381.000,252.508 380.526 C 252.964 380.127,253.218 380.006,253.071 380.258 C 252.925 380.510,253.074 380.819,253.402 380.946 C 253.765 381.085,254.000 380.944,254.000 380.587 C 254.000 379.911,254.464 379.824,255.033 380.393 C 255.291 380.651,255.456 380.437,255.511 379.771 C 255.569 379.061,255.445 378.842,255.097 379.042 C 254.824 379.200,254.743 379.172,254.917 378.981 C 255.091 378.790,256.240 378.613,257.470 378.588 C 258.922 378.559,259.863 378.337,260.153 377.956 C 260.665 377.283,262.271 377.068,262.616 377.625 C 263.074 378.367,263.470 377.977,263.403 376.849 C 263.335 375.703,263.343 375.699,265.458 375.826 C 266.627 375.895,267.694 375.771,267.831 375.550 C 267.982 375.305,268.377 375.417,268.840 375.836 C 269.619 376.541,269.605 376.554,269.767 374.954 C 269.839 374.240,270.858 373.188,271.245 373.428 C 271.440 373.549,271.600 373.460,271.600 373.232 C 271.600 372.957,271.942 372.973,272.611 373.278 C 273.402 373.638,273.728 373.624,274.111 373.210 C 274.497 372.793,274.495 372.742,274.100 372.965 C 273.461 373.326,273.424 372.156,274.062 371.762 C 274.326 371.598,274.416 371.651,274.271 371.885 C 274.132 372.109,274.375 372.615,274.809 373.009 C 275.570 373.697,275.602 373.696,275.646 372.962 C 275.672 372.543,275.717 371.930,275.746 371.600 C 275.787 371.143,276.378 370.992,278.232 370.966 C 280.760 370.930,281.777 370.609,281.383 369.972 C 281.256 369.768,281.553 369.600,282.043 369.600 C 282.533 369.600,282.816 369.483,282.673 369.339 C 282.222 368.889,284.553 367.932,285.600 368.139 C 286.694 368.354,288.631 367.097,288.222 366.436 C 288.082 366.209,288.439 366.125,289.092 366.234 C 289.841 366.358,290.023 366.300,289.653 366.056 C 289.221 365.770,289.206 365.540,289.584 364.948 C 289.899 364.453,289.995 364.414,289.868 364.833 C 289.759 365.193,289.909 365.467,290.216 365.467 C 290.513 365.467,290.744 365.362,290.730 365.233 C 290.558 363.633,290.837 363.263,292.100 363.419 C 292.899 363.518,293.195 363.452,292.866 363.246 C 292.441 362.979,292.468 362.859,292.999 362.656 C 293.917 362.303,294.088 362.334,293.800 362.800 C 293.664 363.020,293.760 363.200,294.014 363.200 C 294.267 363.200,294.572 362.830,294.690 362.377 C 294.818 361.889,295.128 361.640,295.453 361.765 C 295.754 361.880,296.000 361.816,296.000 361.621 C 296.000 361.426,295.780 361.193,295.510 361.103 C 295.241 361.014,295.421 360.835,295.911 360.707 C 296.442 360.569,296.704 360.633,296.559 360.866 C 296.415 361.099,296.858 361.205,297.659 361.128 C 298.766 361.022,298.992 360.842,298.952 360.094 C 298.913 359.370,299.013 359.279,299.452 359.643 C 300.118 360.196,300.178 360.558,299.538 360.162 C 299.243 359.979,299.185 360.053,299.378 360.365 C 299.750 360.967,300.114 360.644,300.278 359.565 C 300.360 359.031,300.243 358.850,299.939 359.037 C 299.659 359.211,299.584 359.149,299.751 358.879 C 299.902 358.635,300.319 358.548,300.678 358.685 C 301.150 358.866,301.240 358.789,301.004 358.406 C 300.799 358.074,300.832 357.973,301.093 358.134 C 301.322 358.275,301.739 358.115,302.019 357.777 C 302.299 357.440,302.767 357.255,303.059 357.367 C 303.351 357.479,303.571 357.443,303.548 357.286 C 303.386 356.201,303.649 355.058,303.951 355.534 C 304.416 356.269,304.578 356.282,305.339 355.651 C 305.702 355.349,306.000 355.242,306.000 355.413 C 306.000 355.584,306.391 355.381,306.869 354.962 C 307.347 354.543,307.589 354.453,307.407 354.762 C 307.180 355.148,307.226 355.231,307.554 355.028 C 307.817 354.866,307.937 354.343,307.820 353.866 C 307.703 353.390,307.714 353.236,307.845 353.524 C 308.030 353.932,308.268 353.887,308.910 353.324 C 309.365 352.926,309.629 352.788,309.496 353.017 C 309.363 353.249,309.643 353.453,310.128 353.476 C 310.607 353.499,310.775 353.432,310.500 353.326 C 310.225 353.220,310.000 352.958,310.000 352.743 C 310.000 352.528,310.211 352.483,310.468 352.642 C 310.783 352.836,310.852 352.713,310.681 352.266 C 310.540 351.900,310.599 351.600,310.813 351.600 C 311.026 351.600,311.179 351.465,311.153 351.300 C 310.987 350.253,311.218 349.917,311.782 350.385 C 312.103 350.651,312.553 350.753,312.782 350.611 C 313.012 350.469,313.203 350.588,313.206 350.876 C 313.211 351.300,313.275 351.302,313.538 350.886 C 313.718 350.603,314.164 350.488,314.532 350.629 C 315.407 350.965,315.388 350.436,314.500 349.738 C 313.872 349.244,313.924 349.209,315.000 349.396 C 315.660 349.511,315.985 349.502,315.722 349.377 C 315.106 349.082,315.515 348.000,316.243 348.000 C 316.549 348.000,316.821 347.595,316.846 347.100 C 316.881 346.423,316.938 346.373,317.076 346.900 C 317.176 347.285,317.436 347.600,317.653 347.600 C 317.870 347.600,317.936 347.420,317.800 347.200 C 317.664 346.980,317.844 346.800,318.200 346.800 C 318.556 346.800,318.734 346.617,318.596 346.393 C 318.458 346.170,318.149 346.108,317.911 346.255 C 317.649 346.417,317.592 346.337,317.766 346.055 C 317.925 345.798,318.223 345.691,318.428 345.817 C 318.632 345.944,318.800 345.657,318.800 345.181 C 318.800 344.575,318.980 344.384,319.400 344.545 C 319.765 344.685,320.000 344.545,320.000 344.187 C 320.000 343.864,320.135 343.633,320.300 343.674 C 320.724 343.779,323.600 342.492,323.600 342.197 C 323.600 342.063,323.375 342.088,323.100 342.253 C 322.712 342.486,322.705 342.424,323.066 341.977 C 323.322 341.660,323.547 341.265,323.566 341.100 C 323.585 340.935,323.645 340.830,323.700 340.868 C 324.160 341.178,325.618 339.825,325.410 339.282 C 325.271 338.920,325.288 338.754,325.446 338.913 C 325.605 339.072,326.096 338.886,326.536 338.501 C 327.008 338.088,327.202 338.031,327.007 338.362 C 326.784 338.741,326.827 338.831,327.138 338.638 C 327.392 338.481,327.600 338.093,327.600 337.776 C 327.600 337.459,327.870 337.200,328.200 337.200 C 328.530 337.200,328.779 337.065,328.753 336.900 C 328.627 336.103,328.840 335.578,329.200 335.800 C 329.420 335.936,329.600 335.849,329.600 335.606 C 329.600 335.363,329.894 335.218,330.253 335.282 C 330.683 335.360,330.960 335.061,331.064 334.409 C 331.152 333.863,331.424 333.233,331.670 333.009 C 331.984 332.722,332.033 332.749,331.835 333.100 C 331.410 333.853,331.899 333.701,332.800 332.800 C 333.645 331.955,333.874 331.384,333.200 331.800 C 332.980 331.936,332.800 331.945,332.800 331.820 C 332.800 331.696,333.481 331.321,334.314 330.988 C 335.734 330.420,336.541 328.811,335.414 328.794 C 335.186 328.791,335.260 328.623,335.578 328.422 C 335.932 328.198,336.438 328.206,336.878 328.442 C 337.467 328.757,337.600 328.674,337.600 327.990 C 337.600 327.463,337.770 327.258,338.058 327.436 C 338.373 327.631,338.454 327.394,338.317 326.677 C 338.139 325.748,338.202 325.680,338.893 326.050 C 339.320 326.278,339.698 326.405,339.734 326.332 C 339.770 326.260,340.125 325.615,340.523 324.899 C 340.921 324.184,341.135 323.419,340.999 323.199 C 340.864 322.980,340.943 322.800,341.176 322.800 C 341.409 322.800,341.600 322.980,341.600 323.200 C 341.600 323.420,341.799 323.600,342.043 323.600 C 342.286 323.600,342.376 323.313,342.241 322.963 C 342.080 322.543,342.259 322.257,342.768 322.124 C 343.255 321.997,343.487 321.652,343.398 321.189 C 343.312 320.744,343.647 320.199,344.247 319.806 C 344.792 319.449,345.589 318.581,346.018 317.878 C 346.446 317.175,346.798 316.844,346.799 317.142 C 346.799 317.440,346.350 318.219,345.800 318.873 C 345.250 319.527,344.800 320.228,344.800 320.431 C 344.800 321.120,345.178 320.804,345.807 319.587 C 346.152 318.920,346.606 318.480,346.817 318.611 C 347.028 318.741,347.200 318.646,347.200 318.400 C 347.200 318.154,347.425 318.080,347.700 318.235 C 348.100 318.461,348.100 318.410,347.700 317.979 C 346.981 317.205,347.053 315.969,347.800 316.255 C 348.130 316.382,348.400 316.307,348.400 316.089 C 348.400 315.486,349.872 315.232,350.390 315.746 C 350.732 316.086,350.778 316.018,350.572 315.477 C 350.415 315.065,350.052 314.848,349.728 314.972 C 349.412 315.093,349.267 315.014,349.403 314.795 C 349.537 314.578,349.967 314.400,350.357 314.400 C 350.747 314.400,351.067 314.127,351.067 313.794 C 351.067 313.374,350.811 313.258,350.233 313.415 L 349.400 313.642 350.231 312.913 C 350.688 312.512,350.992 311.975,350.906 311.719 C 350.662 310.985,352.421 310.187,352.829 310.847 C 353.009 311.138,353.288 311.245,353.449 311.084 C 353.610 310.923,353.395 310.521,352.971 310.190 C 352.470 309.799,352.403 309.625,352.780 309.694 C 353.131 309.758,353.544 309.258,353.824 308.429 C 354.078 307.675,354.367 307.302,354.467 307.600 C 354.572 307.916,354.854 308.014,355.143 307.835 C 355.501 307.614,355.519 307.385,355.209 307.011 C 354.892 306.629,354.945 306.430,355.411 306.251 C 355.821 306.094,355.943 306.169,355.759 306.466 C 355.594 306.734,355.653 306.815,355.901 306.661 C 356.134 306.517,356.231 306.041,356.117 305.604 C 356.003 305.167,355.780 304.889,355.621 304.987 C 355.463 305.085,355.333 304.911,355.333 304.600 C 355.333 304.289,355.483 304.128,355.667 304.241 C 355.850 304.355,356.000 304.257,356.000 304.024 C 356.000 303.791,356.315 303.597,356.700 303.594 C 357.298 303.589,357.313 303.531,356.800 303.200 C 356.310 302.883,356.357 302.811,357.057 302.806 C 357.954 302.800,358.579 301.866,358.442 300.736 C 358.389 300.294,358.762 299.984,359.558 299.809 C 360.376 299.630,360.685 299.365,360.534 298.973 C 360.410 298.650,360.551 298.397,360.857 298.394 C 361.276 298.389,361.263 298.299,360.800 298.000 C 360.364 297.718,360.343 297.611,360.724 297.606 C 361.012 297.603,361.154 297.450,361.041 297.266 C 360.927 297.082,360.991 296.407,361.183 295.766 C 361.374 295.125,361.547 294.825,361.566 295.100 C 361.585 295.375,361.786 295.600,362.014 295.600 C 362.280 295.600,362.257 295.278,361.949 294.700 C 361.514 293.884,361.531 293.851,362.135 294.349 C 362.707 294.821,362.800 294.808,362.800 294.249 C 362.800 293.014,363.530 291.921,364.118 292.276 C 365.085 292.863,365.639 291.432,364.731 290.690 C 364.219 290.273,364.033 290.052,364.318 290.200 C 364.994 290.552,366.000 289.700,366.000 288.775 C 366.000 288.375,366.208 287.919,366.462 287.762 C 366.748 287.585,366.815 287.652,366.638 287.938 C 366.444 288.252,366.777 288.398,367.676 288.394 C 368.678 288.389,368.854 288.293,368.400 288.000 C 368.070 287.787,367.995 287.609,368.233 287.606 C 368.472 287.603,368.667 287.330,368.667 287.000 C 368.667 286.442,368.261 286.225,367.470 286.363 C 367.289 286.394,367.256 286.232,367.398 286.003 C 367.539 285.774,367.806 285.680,367.990 285.794 C 368.175 285.908,368.224 285.613,368.100 285.138 C 367.936 284.512,368.012 284.360,368.377 284.586 C 368.776 284.833,368.782 284.713,368.403 284.005 C 368.030 283.309,368.035 283.014,368.422 282.657 C 368.802 282.306,368.843 282.330,368.597 282.762 C 368.382 283.138,368.429 283.229,368.738 283.038 C 368.992 282.881,369.221 282.448,369.247 282.076 C 369.273 281.704,369.432 281.940,369.600 282.600 C 369.768 283.260,369.927 283.485,369.953 283.100 C 369.979 282.715,370.161 282.400,370.357 282.400 C 370.554 282.400,370.814 282.139,370.937 281.820 C 371.094 281.410,370.961 281.310,370.480 281.479 C 369.926 281.674,369.892 281.618,370.300 281.179 C 370.911 280.520,370.945 280.000,370.376 280.000 C 370.143 280.000,370.081 280.208,370.238 280.462 C 370.422 280.759,370.347 280.815,370.027 280.617 C 369.669 280.396,369.652 280.188,369.965 279.875 C 370.204 279.636,370.414 279.071,370.432 278.620 C 370.449 278.169,370.548 278.006,370.651 278.258 C 370.861 278.771,372.400 278.503,372.400 277.953 C 372.400 277.759,372.265 277.621,372.100 277.647 C 371.318 277.771,371.195 277.548,371.743 277.000 C 372.421 276.322,372.975 276.193,372.600 276.800 C 372.198 277.451,372.657 277.256,373.251 276.523 C 373.624 276.063,373.640 275.943,373.300 276.147 C 372.947 276.359,372.802 276.117,372.806 275.324 C 372.811 274.451,372.899 274.334,373.200 274.800 C 373.733 275.625,373.702 274.938,373.160 273.925 C 372.837 273.322,372.839 273.177,373.167 273.380 C 373.477 273.571,373.559 273.204,373.432 272.185 C 373.285 270.998,373.446 270.517,374.269 269.694 C 374.830 269.133,375.327 268.418,375.373 268.105 C 375.419 267.792,375.714 267.373,376.028 267.174 C 376.517 266.865,376.513 266.810,376.000 266.800 C 375.531 266.790,375.513 266.716,375.920 266.458 C 376.206 266.276,376.468 265.752,376.503 265.292 C 376.538 264.832,376.664 264.462,376.783 264.471 C 378.056 264.562,378.795 263.857,378.161 263.157 C 377.633 262.574,377.591 262.293,377.964 261.843 C 378.294 261.446,378.308 261.191,378.013 261.008 C 377.779 260.863,377.720 260.532,377.883 260.272 C 378.047 260.013,378.128 259.485,378.065 259.100 C 377.995 258.674,378.203 258.400,378.598 258.400 C 378.987 258.400,379.133 258.215,378.962 257.938 C 378.781 257.646,378.852 257.585,379.156 257.773 C 379.786 258.162,380.811 257.294,380.543 256.596 C 380.428 256.296,380.034 256.144,379.667 256.258 C 379.160 256.415,379.192 256.309,379.800 255.815 C 380.649 255.125,380.850 254.357,380.284 253.958 C 380.095 253.825,380.237 253.420,380.599 253.058 C 381.053 252.604,381.099 252.400,380.749 252.400 C 380.364 252.400,380.353 252.287,380.701 251.939 C 381.019 251.621,381.039 251.247,380.767 250.739 C 380.499 250.237,380.507 250.000,380.794 250.000 C 381.029 250.000,381.133 249.543,381.029 248.968 C 380.863 248.054,380.916 247.997,381.498 248.468 C 381.969 248.851,382.069 248.860,381.853 248.500 C 381.674 248.202,381.765 247.998,382.076 247.994 C 382.396 247.990,382.444 247.873,382.200 247.694 C 381.980 247.532,381.745 247.145,381.677 246.832 C 381.573 246.350,381.654 246.347,382.213 246.811 C 382.773 247.275,382.859 247.270,382.788 246.778 C 382.637 245.726,382.795 245.150,383.171 245.382 C 383.542 245.611,383.395 243.300,382.946 241.850 C 382.801 241.379,382.872 241.197,383.138 241.361 C 383.413 241.532,383.513 241.127,383.423 240.198 C 383.241 238.321,384.197 237.207,385.066 238.284 C 385.595 238.939,385.607 238.924,385.208 238.100 C 384.914 237.494,384.907 237.200,385.186 237.200 C 385.414 237.200,385.600 236.821,385.600 236.357 C 385.600 235.728,385.422 235.576,384.900 235.758 C 384.316 235.961,384.329 235.902,384.976 235.401 C 385.404 235.070,385.539 234.800,385.276 234.800 C 385.014 234.800,384.800 234.609,384.800 234.376 C 384.800 234.143,384.967 234.056,385.171 234.182 C 385.375 234.308,385.665 234.027,385.814 233.556 C 385.985 233.016,385.885 232.573,385.543 232.356 C 385.110 232.082,385.107 232.011,385.524 232.006 C 385.812 232.003,385.944 231.832,385.817 231.628 C 385.691 231.423,385.768 231.143,385.989 231.007 C 386.242 230.850,386.162 230.409,385.774 229.816 C 385.362 229.188,385.297 228.787,385.579 228.613 C 385.816 228.466,385.869 228.055,385.699 227.676 C 385.270 226.717,385.346 225.208,385.840 224.879 C 386.385 224.516,386.928 223.074,386.395 223.403 C 386.178 223.537,386.000 223.476,386.000 223.266 C 386.000 222.781,387.157 222.326,387.636 222.622 C 388.294 223.029,388.016 222.300,387.300 221.743 C 386.633 221.224,386.633 221.210,387.300 221.442 C 387.767 221.604,388.000 221.483,388.000 221.076 C 388.000 220.741,388.225 220.376,388.500 220.265 C 388.879 220.112,388.882 220.056,388.513 220.032 C 388.244 220.014,388.129 219.728,388.257 219.395 C 388.431 218.941,388.304 218.859,387.745 219.063 C 387.039 219.322,387.040 219.290,387.778 218.451 C 388.307 217.848,388.367 217.638,387.966 217.792 C 387.548 217.952,387.350 217.709,387.288 216.960 C 387.214 216.062,387.291 215.978,387.800 216.400 C 388.291 216.808,388.400 216.780,388.400 216.249 C 388.400 215.892,388.085 215.597,387.700 215.594 C 387.250 215.590,387.164 215.483,387.460 215.294 C 387.713 215.132,387.983 214.640,388.060 214.200 C 388.137 213.760,388.380 213.268,388.600 213.106 C 388.860 212.915,388.849 212.810,388.569 212.806 C 388.319 212.803,388.212 212.298,388.315 211.600 C 388.456 210.634,388.345 210.399,387.745 210.394 C 387.137 210.389,387.107 210.320,387.581 210.020 C 387.900 209.818,388.323 209.753,388.521 209.875 C 388.718 209.997,388.676 209.715,388.426 209.248 C 388.176 208.782,388.075 208.400,388.200 208.400 C 388.325 208.400,388.234 208.037,387.997 207.594 C 387.657 206.960,387.697 206.738,388.183 206.551 C 388.522 206.421,388.800 206.053,388.800 205.734 C 388.800 205.414,388.665 205.236,388.500 205.337 C 388.335 205.438,388.200 202.766,388.200 199.398 C 388.200 196.031,388.335 193.359,388.500 193.461 C 388.665 193.564,388.800 193.457,388.800 193.224 C 388.800 192.991,388.636 192.800,388.435 192.800 C 388.106 192.800,388.203 190.905,388.592 189.738 C 388.685 189.458,388.368 189.318,387.784 189.382 C 387.255 189.440,386.918 189.333,387.035 189.144 C 387.152 188.955,387.552 188.786,387.924 188.768 C 388.347 188.749,388.412 188.661,388.095 188.534 C 387.818 188.422,387.395 187.964,387.156 187.517 C 386.840 186.927,386.841 186.778,387.160 186.975 C 387.427 187.140,387.600 186.914,387.600 186.400 C 387.600 185.829,387.437 185.651,387.100 185.853 C 386.701 186.093,386.700 186.029,387.097 185.540 C 387.370 185.203,387.467 184.801,387.314 184.647 C 387.161 184.494,387.430 184.265,387.913 184.139 C 388.396 184.012,388.691 183.747,388.568 183.548 C 388.445 183.349,388.177 183.291,387.972 183.417 C 387.434 183.750,387.515 183.045,388.080 182.480 C 388.401 182.159,388.415 182.000,388.123 182.000 C 387.882 182.000,387.586 181.739,387.463 181.420 C 387.317 181.041,387.433 180.915,387.798 181.055 C 388.170 181.197,388.335 181.001,388.295 180.462 C 388.261 180.018,388.104 179.736,387.945 179.834 C 387.785 179.933,387.542 179.830,387.404 179.607 C 387.169 179.226,387.733 179.016,388.568 179.175 C 388.770 179.214,388.696 178.957,388.404 178.604 C 388.111 178.252,387.611 178.064,387.291 178.186 C 386.895 178.338,386.785 178.217,386.943 177.805 C 387.074 177.463,386.956 177.200,386.672 177.200 C 386.364 177.200,386.146 176.587,386.107 175.614 C 386.072 174.742,385.858 173.681,385.630 173.256 C 385.324 172.684,385.360 172.365,385.770 172.025 C 386.363 171.533,386.384 170.930,385.838 170.055 C 385.623 169.712,385.701 169.381,386.049 169.161 C 386.514 168.867,386.515 168.811,386.051 168.806 C 385.586 168.801,385.586 168.697,386.051 168.123 C 386.353 167.751,386.395 167.569,386.145 167.719 C 385.892 167.871,385.602 167.683,385.491 167.296 C 385.381 166.913,385.150 166.255,384.977 165.834 C 384.772 165.332,384.809 165.159,385.087 165.330 C 385.319 165.473,385.603 165.233,385.717 164.796 C 385.873 164.201,385.727 164.000,385.139 164.000 C 384.707 164.000,384.466 163.817,384.604 163.593 C 384.742 163.370,385.023 163.291,385.228 163.417 C 385.432 163.544,385.600 163.383,385.600 163.061 C 385.600 162.676,385.331 162.545,384.818 162.679 C 384.209 162.839,383.984 162.632,383.801 161.742 C 383.672 161.114,383.411 160.015,383.220 159.299 C 383.015 158.527,383.022 158.090,383.237 158.223 C 383.437 158.346,383.600 157.700,383.600 156.786 C 383.600 155.468,383.437 155.082,382.810 154.918 C 382.173 154.752,382.098 154.565,382.424 153.956 C 382.646 153.540,382.687 153.195,382.514 153.188 C 382.341 153.181,382.491 153.006,382.846 152.798 C 383.625 152.343,383.412 150.668,382.479 149.912 C 382.063 149.575,381.943 149.561,382.130 149.872 C 382.286 150.132,382.218 150.465,381.980 150.613 C 381.737 150.763,381.450 150.511,381.326 150.040 C 381.206 149.578,380.948 149.200,380.753 149.200 C 380.559 149.200,380.400 149.009,380.400 148.776 C 380.400 148.543,380.545 148.442,380.721 148.551 C 380.898 148.660,380.977 148.176,380.898 147.475 C 380.818 146.774,380.727 145.807,380.696 145.326 C 380.665 144.845,380.505 144.535,380.340 144.637 C 380.017 144.837,379.326 143.658,379.380 143.000 C 379.443 142.227,380.060 141.590,380.489 141.855 C 380.755 142.019,380.808 141.937,380.626 141.642 C 380.437 141.337,380.159 141.296,379.864 141.531 C 379.609 141.735,379.130 141.788,378.800 141.651 C 378.129 141.370,377.752 140.000,378.345 140.000 C 378.554 140.000,378.631 139.642,378.517 139.204 C 378.399 138.752,378.113 138.523,377.855 138.673 C 377.605 138.819,377.726 138.565,378.124 138.110 C 378.532 137.645,378.669 137.221,378.437 137.141 C 378.211 137.064,377.980 136.401,377.925 135.670 C 377.870 134.938,377.657 134.235,377.451 134.108 C 377.245 133.981,377.205 134.084,377.362 134.338 C 377.677 134.849,377.108 134.975,376.633 134.500 C 376.468 134.335,376.168 134.178,375.967 134.150 C 375.765 134.123,375.488 134.077,375.351 134.050 C 375.214 134.023,375.341 133.712,375.633 133.360 C 376.292 132.566,376.483 131.502,375.902 131.861 C 375.627 132.031,375.554 131.818,375.700 131.263 C 375.857 130.662,375.743 130.400,375.325 130.400 C 374.995 130.400,374.627 130.025,374.507 129.566 C 374.341 128.932,374.208 128.860,373.951 129.266 C 373.567 129.871,373.449 129.344,373.590 127.655 C 373.634 127.135,373.503 126.812,373.301 126.937 C 373.099 127.063,372.933 126.911,372.933 126.600 C 372.933 126.289,373.082 126.127,373.264 126.240 C 373.446 126.352,373.556 125.980,373.509 125.413 C 373.449 124.682,373.246 124.443,372.812 124.592 C 372.366 124.745,372.390 124.654,372.900 124.257 C 373.834 123.529,373.784 123.211,372.765 123.407 C 371.965 123.561,371.957 123.525,372.574 122.584 C 373.158 121.692,373.160 121.600,372.586 121.600 C 372.238 121.600,372.064 121.780,372.200 122.000 C 372.336 122.220,372.257 122.400,372.024 122.400 C 371.791 122.400,371.600 122.209,371.600 121.976 C 371.600 121.743,371.401 121.676,371.157 121.826 C 370.855 122.013,370.805 121.813,371.000 121.200 C 371.207 120.549,371.152 120.382,370.803 120.598 C 370.426 120.831,370.426 120.699,370.800 120.000 C 371.183 119.284,371.178 119.167,370.772 119.417 C 370.412 119.640,370.338 119.537,370.519 119.066 C 370.822 118.277,370.389 118.201,369.586 118.900 C 369.270 119.175,369.445 118.906,369.974 118.302 C 370.503 117.697,370.816 117.082,370.668 116.935 C 370.521 116.787,370.394 116.922,370.387 117.233 C 370.378 117.630,370.182 117.560,369.733 117.000 C 369.231 116.372,369.143 116.348,369.329 116.887 C 369.459 117.265,369.348 117.699,369.083 117.851 C 368.817 118.004,368.733 117.981,368.897 117.801 C 369.060 117.621,368.993 117.233,368.749 116.939 C 368.505 116.645,368.400 116.043,368.515 115.602 C 368.631 115.160,368.562 114.900,368.363 115.023 C 368.163 115.146,368.000 114.967,368.000 114.624 C 368.000 114.281,368.210 114.000,368.467 114.000 C 369.159 114.000,368.589 113.557,367.737 113.432 C 367.331 113.372,367.000 113.101,367.000 112.830 C 367.000 112.558,366.685 112.105,366.300 111.824 C 365.564 111.285,365.396 110.424,365.900 109.772 C 366.065 109.558,365.855 109.747,365.434 110.192 C 364.867 110.789,364.729 110.830,364.902 110.349 C 365.032 109.991,364.927 109.469,364.669 109.190 C 364.301 108.792,364.344 108.733,364.867 108.916 C 365.260 109.054,365.628 108.905,365.762 108.554 C 365.891 108.218,365.819 108.065,365.595 108.203 C 365.378 108.337,365.200 108.270,365.200 108.053 C 365.200 107.836,365.515 107.576,365.900 107.476 C 366.584 107.297,365.088 107.017,364.255 107.168 C 363.623 107.282,362.852 105.835,363.208 105.203 C 363.437 104.796,363.264 104.280,362.673 103.612 C 362.138 103.007,362.074 102.835,362.509 103.169 C 363.127 103.643,363.186 103.629,362.966 103.057 C 362.828 102.695,362.453 102.400,362.134 102.400 C 361.814 102.400,361.651 102.240,361.772 102.045 C 361.893 101.850,361.678 101.715,361.296 101.745 C 360.768 101.787,360.605 101.499,360.619 100.556 C 360.637 99.435,360.528 99.321,359.526 99.406 C 358.915 99.458,358.492 99.375,358.587 99.222 C 358.681 99.068,358.506 98.455,358.196 97.858 C 357.803 97.100,357.779 96.847,358.117 97.016 C 358.383 97.150,358.251 96.976,357.824 96.630 C 357.396 96.283,357.261 96.000,357.524 96.000 C 357.786 96.000,358.000 95.820,358.000 95.600 C 358.000 95.380,357.649 95.200,357.220 95.200 C 356.791 95.200,356.263 94.885,356.048 94.500 C 355.833 94.115,355.554 93.845,355.428 93.900 C 354.867 94.146,354.376 93.963,354.604 93.593 C 354.742 93.370,355.010 93.283,355.200 93.400 C 355.788 93.763,356.067 92.844,355.594 92.103 C 355.195 91.478,355.165 91.497,355.330 92.282 C 355.508 93.125,355.475 93.136,354.558 92.536 C 354.031 92.190,353.600 91.558,353.600 91.130 C 353.600 90.615,353.432 90.454,353.100 90.653 C 352.717 90.883,352.706 90.818,353.051 90.377 C 353.320 90.031,353.372 89.479,353.179 89.000 C 352.720 87.863,352.735 87.513,353.230 87.818 C 353.466 87.964,353.427 87.712,353.143 87.258 C 352.772 86.664,352.539 86.568,352.314 86.916 C 352.074 87.287,351.918 87.272,351.648 86.855 C 351.352 86.394,351.263 86.394,351.080 86.855 C 350.929 87.235,350.854 87.188,350.832 86.700 C 350.814 86.315,350.519 86.000,350.176 86.000 C 349.807 86.000,349.669 86.188,349.838 86.462 C 350.015 86.748,349.948 86.815,349.662 86.638 C 349.408 86.481,349.200 86.083,349.200 85.753 C 349.200 85.401,349.009 85.271,348.738 85.438 C 348.464 85.607,348.385 85.549,348.542 85.294 C 348.688 85.058,348.566 84.623,348.272 84.329 C 347.977 84.034,347.806 83.524,347.893 83.196 C 347.993 82.818,347.819 82.888,347.418 83.386 C 346.818 84.132,346.799 84.103,347.055 82.824 C 347.250 81.848,347.196 81.555,346.860 81.763 C 346.599 81.924,346.289 81.777,346.155 81.428 C 346.024 81.085,345.755 80.904,345.558 81.026 C 345.361 81.148,345.200 81.057,345.200 80.824 C 345.200 80.591,345.515 80.389,345.900 80.375 C 346.418 80.356,346.356 80.252,345.663 79.974 C 345.148 79.767,344.587 79.685,344.417 79.790 C 343.772 80.188,342.657 78.454,343.164 77.843 C 343.452 77.496,343.489 77.178,343.257 77.035 C 343.047 76.905,342.977 76.411,343.101 75.937 C 343.255 75.346,343.180 75.165,342.863 75.361 C 342.591 75.529,342.400 75.400,342.400 75.047 C 342.400 74.717,342.229 74.342,342.021 74.213 C 341.812 74.084,341.713 74.348,341.800 74.800 C 341.887 75.252,341.788 75.516,341.579 75.387 C 341.371 75.258,341.200 74.793,341.200 74.353 C 341.200 73.913,341.020 73.664,340.800 73.800 C 340.580 73.936,340.400 73.837,340.400 73.581 C 340.400 73.324,340.126 73.220,339.791 73.348 C 339.296 73.538,339.260 73.436,339.600 72.800 C 339.919 72.204,339.897 72.063,339.509 72.209 C 339.229 72.314,338.583 71.787,338.074 71.037 C 337.564 70.287,336.709 69.564,336.174 69.429 C 335.638 69.295,335.200 68.998,335.200 68.769 C 335.200 68.540,335.408 68.481,335.662 68.638 C 335.948 68.815,336.015 68.748,335.838 68.462 C 335.681 68.208,335.288 68.000,334.964 68.000 C 334.639 68.000,334.211 67.595,334.012 67.100 C 333.813 66.605,333.639 66.425,333.625 66.700 C 333.611 66.975,333.420 67.200,333.200 67.200 C 332.980 67.200,332.821 67.065,332.847 66.900 C 333.082 65.411,332.718 64.478,331.837 64.309 C 331.146 64.177,330.932 64.277,331.079 64.662 C 331.193 64.958,331.183 65.200,331.058 65.200 C 330.933 65.200,330.629 64.449,330.381 63.531 C 330.097 62.476,329.820 62.045,329.626 62.358 C 329.245 62.975,328.282 60.832,328.471 59.789 C 328.606 59.047,326.971 58.600,326.559 59.266 C 326.212 59.828,325.333 59.637,325.333 59.000 C 325.333 58.670,325.494 58.400,325.690 58.400 C 325.887 58.400,325.934 58.217,325.796 57.993 C 325.658 57.770,325.379 57.689,325.177 57.814 C 324.974 57.940,324.927 57.735,325.073 57.355 C 325.251 56.889,325.185 56.762,324.868 56.958 C 324.611 57.117,324.175 57.107,323.900 56.935 C 323.047 56.402,322.445 56.453,322.670 57.039 C 322.789 57.348,322.706 57.600,322.486 57.600 C 322.266 57.600,321.978 57.319,321.846 56.975 C 321.714 56.631,321.450 56.445,321.261 56.563 C 321.071 56.680,321.006 56.304,321.116 55.728 C 321.254 55.007,321.174 54.769,320.858 54.964 C 320.589 55.131,320.400 54.990,320.400 54.624 C 320.400 54.225,320.039 54.000,319.400 54.000 C 318.498 54.000,318.198 53.616,318.363 52.670 C 318.394 52.489,318.205 52.473,317.942 52.636 C 317.615 52.838,317.546 52.718,317.723 52.256 C 317.941 51.689,317.856 51.649,317.191 52.005 C 316.652 52.293,316.400 52.296,316.400 52.014 C 316.400 51.786,316.130 51.600,315.800 51.600 C 315.470 51.600,315.200 51.398,315.200 51.151 C 315.200 50.822,315.057 50.821,314.667 51.145 C 314.264 51.479,314.133 51.446,314.133 51.011 C 314.133 50.694,314.283 50.528,314.467 50.641 C 314.650 50.755,314.800 50.622,314.800 50.347 C 314.800 50.066,315.072 50.186,315.422 50.624 C 316.027 51.378,316.033 51.376,315.636 50.553 C 315.412 50.087,315.332 49.601,315.459 49.474 C 315.586 49.347,315.323 49.271,314.873 49.304 C 314.423 49.338,314.144 49.509,314.251 49.683 C 314.359 49.857,314.156 50.000,313.800 50.000 C 313.444 50.000,313.256 49.832,313.383 49.628 C 313.509 49.423,313.427 49.140,313.200 49.000 C 312.973 48.860,312.883 48.590,313.000 48.400 C 313.117 48.210,313.010 47.930,312.762 47.776 C 312.514 47.623,312.163 47.736,311.983 48.028 C 311.748 48.408,311.577 48.249,311.381 47.466 C 311.135 46.488,311.056 46.444,310.614 47.048 C 310.090 47.765,309.000 47.447,309.455 46.711 C 309.607 46.465,309.539 46.390,309.298 46.539 C 308.558 46.997,307.650 46.380,307.813 45.532 C 307.923 44.962,307.800 44.791,307.395 44.947 C 307.075 45.070,306.557 44.788,306.220 44.307 C 305.889 43.835,305.501 43.566,305.357 43.710 C 304.880 44.187,303.600 43.186,303.600 42.337 C 303.600 41.603,303.518 41.568,302.923 42.051 C 302.463 42.424,302.343 42.440,302.547 42.100 C 302.749 41.763,302.571 41.600,302.000 41.600 C 301.429 41.600,301.251 41.763,301.453 42.100 C 301.691 42.496,301.628 42.499,301.149 42.111 C 300.755 41.793,300.585 41.095,300.663 40.115 L 300.781 38.609 300.091 39.645 C 299.417 40.656,299.381 40.663,298.630 39.941 C 298.207 39.533,298.036 39.200,298.250 39.200 C 298.465 39.200,298.856 39.416,299.120 39.680 C 299.384 39.944,299.599 39.989,299.597 39.780 C 299.596 39.571,299.044 39.087,298.372 38.704 C 297.699 38.321,297.248 37.846,297.370 37.649 C 297.491 37.452,297.233 37.197,296.796 37.083 C 296.342 36.964,295.997 37.074,295.994 37.337 C 295.990 37.667,295.899 37.660,295.678 37.313 C 295.508 37.045,294.786 36.781,294.074 36.727 C 293.154 36.657,292.842 36.467,292.995 36.070 C 293.144 35.680,293.009 35.588,292.548 35.765 C 291.970 35.987,291.956 35.933,292.443 35.332 C 292.921 34.744,292.919 34.695,292.432 34.989 C 291.994 35.253,291.926 35.156,292.133 34.566 C 292.394 33.823,292.384 33.824,291.801 34.576 C 291.230 35.314,291.200 35.316,291.200 34.614 C 291.200 33.897,291.177 33.897,290.383 34.616 C 289.726 35.210,289.614 35.230,289.810 34.718 C 289.945 34.368,289.834 33.945,289.565 33.779 C 289.270 33.596,289.179 33.643,289.336 33.896 C 289.479 34.127,289.317 34.423,288.977 34.554 C 288.623 34.689,288.463 34.622,288.603 34.395 C 288.814 34.054,288.350 33.846,287.567 33.930 C 287.438 33.944,287.333 33.705,287.333 33.399 C 287.333 32.984,287.519 32.943,288.067 33.236 C 288.558 33.499,288.800 33.492,288.800 33.214 C 288.800 32.838,287.920 32.612,287.058 32.767 C 286.870 32.800,286.510 32.663,286.258 32.460 C 286.006 32.258,285.213 31.967,284.497 31.814 C 283.704 31.644,283.299 31.364,283.462 31.099 C 283.641 30.811,283.474 30.762,282.966 30.956 C 282.351 31.190,282.299 31.148,282.700 30.744 C 283.391 30.048,283.332 29.393,282.631 29.974 C 282.170 30.357,282.037 30.275,281.931 29.549 C 281.806 28.692,281.768 28.683,281.100 29.354 C 280.715 29.741,280.400 29.854,280.400 29.605 C 280.400 29.356,280.220 29.264,280.000 29.400 C 279.780 29.536,279.587 29.412,279.572 29.124 C 279.556 28.836,279.395 28.960,279.214 29.400 C 278.885 30.198,278.883 30.198,278.542 29.392 C 278.354 28.947,277.840 28.583,277.400 28.583 C 276.864 28.582,276.639 28.354,276.718 27.891 C 276.807 27.365,276.552 27.200,275.651 27.200 C 275.000 27.200,274.376 26.975,274.265 26.700 C 274.108 26.310,274.056 26.314,274.032 26.716 C 274.006 27.137,273.897 27.137,273.440 26.716 C 273.040 26.347,273.000 26.053,273.300 25.687 C 273.636 25.276,273.499 25.258,272.604 25.598 C 271.991 25.832,271.394 25.927,271.278 25.811 C 271.162 25.695,271.247 25.600,271.467 25.600 C 271.687 25.600,271.867 25.338,271.867 25.018 C 271.867 24.697,271.732 24.518,271.567 24.620 C 271.403 24.722,271.192 24.579,271.099 24.302 C 270.967 23.910,270.782 23.922,270.256 24.357 C 269.660 24.849,269.610 24.826,269.829 24.157 C 270.026 23.551,269.993 23.517,269.661 23.987 C 269.236 24.586,266.800 24.878,266.800 24.329 C 266.800 24.162,266.544 24.123,266.232 24.243 C 265.818 24.402,265.694 24.185,265.776 23.442 C 265.849 22.775,265.734 22.518,265.444 22.700 C 264.821 23.089,263.961 23.187,264.172 22.845 C 264.269 22.688,264.000 22.343,263.574 22.077 C 262.963 21.695,262.799 21.699,262.794 22.097 C 262.789 22.483,262.710 22.478,262.454 22.073 C 262.047 21.431,260.689 21.176,260.362 21.680 C 259.975 22.276,257.912 21.551,257.701 20.744 C 257.594 20.335,257.337 20.000,257.130 20.000 C 256.922 20.000,256.888 20.225,257.053 20.500 C 257.282 20.881,257.217 20.894,256.777 20.554 C 256.460 20.308,255.930 19.991,255.600 19.849 C 255.270 19.707,255.405 19.666,255.900 19.758 C 256.394 19.850,256.881 19.792,256.982 19.629 C 257.083 19.466,256.948 19.324,256.682 19.313 C 256.417 19.302,255.705 19.194,255.100 19.073 C 254.397 18.932,253.998 19.024,253.994 19.326 C 253.990 19.607,253.830 19.555,253.600 19.200 C 253.387 18.870,253.209 18.780,253.206 19.000 C 253.203 19.220,252.767 19.400,252.238 19.400 C 251.709 19.400,251.360 19.265,251.462 19.100 C 251.564 18.935,251.354 18.800,250.995 18.800 C 250.130 18.800,249.029 17.724,249.674 17.509 C 249.931 17.423,250.009 17.138,249.847 16.876 C 249.412 16.172,248.804 16.298,248.772 17.100 C 248.748 17.694,248.695 17.678,248.426 17.000 L 248.108 16.200 247.900 17.000 C 247.731 17.653,247.684 17.671,247.646 17.100 C 247.590 16.254,247.533 16.250,245.811 16.969 C 244.599 17.476,244.475 17.471,244.685 16.923 C 244.883 16.406,244.783 16.381,244.061 16.768 C 243.587 17.021,243.200 17.067,243.200 16.869 C 243.200 16.672,242.586 16.578,241.835 16.661 C 240.709 16.785,240.489 16.687,240.583 16.106 C 240.783 14.859,240.041 13.868,239.342 14.448 C 238.856 14.851,238.673 14.842,238.400 14.400 C 238.130 13.963,237.941 13.951,237.469 14.342 C 237.000 14.732,236.834 14.727,236.664 14.317 C 236.504 13.931,236.302 13.982,235.866 14.521 C 235.533 14.931,235.219 15.057,235.137 14.812 C 234.956 14.269,228.401 13.881,227.636 14.368 C 227.253 14.611,226.579 14.400,225.536 13.710 C 223.953 12.663,223.450 12.078,224.714 12.754 C 225.280 13.057,225.429 12.983,225.429 12.398 C 225.429 11.991,225.290 11.745,225.120 11.850 C 224.950 11.955,224.176 11.865,223.401 11.651 C 222.626 11.437,222.080 11.406,222.188 11.581 C 222.297 11.756,221.939 11.900,221.393 11.900 C 220.847 11.900,220.400 11.720,220.400 11.501 C 220.400 11.280,220.133 11.324,219.800 11.600 C 219.470 11.874,219.197 11.941,219.194 11.749 C 219.191 11.557,219.033 11.644,218.845 11.941 C 218.577 12.364,218.315 12.382,217.651 12.027 C 216.866 11.607,216.631 11.730,216.753 12.500 C 216.779 12.665,216.536 12.800,216.213 12.800 C 215.873 12.800,215.716 12.563,215.840 12.240 C 216.088 11.593,214.777 11.559,214.306 12.200 C 214.144 12.421,213.997 12.242,213.978 11.800 L 213.944 11.000 213.600 11.800 C 213.411 12.240,213.244 12.380,213.228 12.112 C 213.211 11.817,212.653 11.645,211.816 11.676 C 210.940 11.709,210.525 11.888,210.685 12.164 C 210.824 12.404,210.592 12.308,210.169 11.952 C 209.331 11.247,208.223 11.382,208.674 12.134 C 208.877 12.472,208.791 12.469,208.363 12.122 C 207.956 11.794,205.828 11.657,201.547 11.684 C 198.124 11.705,195.130 11.604,194.895 11.459 C 194.660 11.314,194.408 11.364,194.334 11.570 C 194.159 12.059,190.839 12.386,190.564 11.941 C 190.265 11.458,188.499 11.517,188.188 12.019 C 188.011 12.306,187.750 12.291,187.364 11.970 C 187.054 11.713,186.797 11.659,186.794 11.851 C 186.791 12.043,186.613 11.930,186.400 11.600 C 186.166 11.238,186.010 11.190,186.006 11.477 C 186.001 11.907,184.859 11.906,184.098 11.477 C 183.934 11.384,183.575 11.389,183.300 11.487 M304.579 41.966 C 304.703 42.167,304.579 42.412,304.302 42.511 C 304.026 42.610,303.945 42.845,304.122 43.034 C 304.299 43.222,304.611 43.112,304.816 42.788 C 305.308 42.009,305.295 41.600,304.776 41.600 C 304.543 41.600,304.455 41.765,304.579 41.966 M327.890 60.400 C 327.857 60.840,327.699 61.200,327.540 61.200 C 327.380 61.200,327.277 60.840,327.310 60.400 C 327.343 59.960,327.501 59.600,327.660 59.600 C 327.820 59.600,327.923 59.960,327.890 60.400 M70.520 62.536 C 70.633 62.831,70.565 63.326,70.369 63.636 C 70.109 64.047,70.011 63.901,70.006 63.100 C 69.999 61.906,70.196 61.690,70.520 62.536 M26.854 123.070 C 26.894 123.252,26.786 123.723,26.614 124.117 C 26.132 125.221,26.547 125.271,27.066 124.171 C 27.340 123.591,27.375 123.108,27.152 122.971 C 26.948 122.844,26.813 122.889,26.854 123.070 M15.588 163.584 C 15.912 163.789,16.073 164.061,15.946 164.188 C 15.631 164.503,14.400 164.001,14.400 163.557 C 14.400 163.101,14.840 163.111,15.588 163.584 M13.425 221.735 C 13.741 221.614,14.000 221.684,14.000 221.891 C 14.000 222.405,12.665 222.379,12.326 221.859 C 12.176 221.627,12.172 221.250,12.317 221.019 C 12.473 220.772,12.637 220.879,12.716 221.278 C 12.795 221.679,13.085 221.866,13.425 221.735 M69.206 336.300 C 69.224 337.177,69.988 337.759,69.994 336.900 C 69.997 336.405,69.820 336.000,69.600 336.000 C 69.380 336.000,69.203 336.135,69.206 336.300 " stroke="none" fill="#fcd43c" fill-rule="evenodd"></path>
        <path id="path1" d="" stroke="none" fill="#100d43c" fill-rule="evenodd"></path>
        <path id="path2" d="" stroke="none" fill="#100d43c" fill-rule="evenodd"></path>
        <path id="path3" d="" stroke="none" fill="#100d43c" fill-rule="evenodd"></path>
        <path id="path4" d="" stroke="none" fill="#100d43c" fill-rule="evenodd"></path>
    </g>
</svg>
